sawarabi-mincho-medium.sfdir

StartChar: exclam
Encoding: 33 33 4
Width: 363
GlyphClass: 2
Flags: W
LayerCount: 2
Fore
SplineSet
238 731 m 1,0,1
 238 531 238 531 202 203 c 1,2,-1
 160 203 l 1,3,4
 125 551 125 551 125 731 c 1,5,6
 154 762 154 762 182 762 c 128,-1,7
 210 762 210 762 238 731 c 1,0,1
116 59 m 128,-1,9
 116 86 116 86 135 105 c 128,-1,10
 154 124 154 124 181 124 c 128,-1,11
 208 124 208 124 227 105 c 128,-1,12
 246 86 246 86 246 59 c 128,-1,13
 246 32 246 32 227 13 c 128,-1,14
 208 -6 208 -6 181 -6 c 128,-1,15
 154 -6 154 -6 135 13 c 128,-1,8
 116 32 116 32 116 59 c 128,-1,9
EndSplineSet
Validated: 1
EndChar
StartChar: quotedbl
Encoding: 34 34 5
Width: 444
GlyphClass: 2
Flags: W
LayerCount: 2
Fore
SplineSet
354 734 m 1,0,1
 354 654 354 654 327 478 c 1,2,-1
 292 478 l 1,3,4
 266 654 266 654 266 734 c 1,5,6
 280 767 280 767 310 767 c 128,-1,7
 340 767 340 767 354 734 c 1,0,1
178 734 m 1,8,9
 178 654 178 654 151 478 c 1,10,-1
 116 478 l 1,11,12
 90 654 90 654 90 734 c 1,13,14
 104 767 104 767 134 767 c 128,-1,15
 164 767 164 767 178 734 c 1,8,9
EndSplineSet
EndChar
StartChar: numbersign
Encoding: 35 35 6
Width: 695
GlyphClass: 2
Flags: W
LayerCount: 2
Fore
SplineSet
206 0 m 1,0,-1
 119 0 l 1,1,-1
 166 198 l 1,2,-1
 30 198 l 1,3,-1
 30 250 l 1,4,-1
 179 250 l 1,5,-1
 222 430 l 1,6,-1
 84 430 l 1,7,-1
 84 482 l 1,8,-1
 234 482 l 1,9,-1
 279 671 l 1,10,-1
 366 671 l 1,11,-1
 321 482 l 1,12,-1
 442 482 l 1,13,-1
 487 671 l 1,14,-1
 574 671 l 1,15,-1
 529 482 l 1,16,-1
 665 482 l 1,17,-1
 665 430 l 1,18,-1
 517 430 l 1,19,-1
 474 250 l 1,20,-1
 611 250 l 1,21,-1
 611 198 l 1,22,-1
 461 198 l 1,23,-1
 414 0 l 1,24,-1
 327 0 l 1,25,-1
 374 198 l 1,26,-1
 253 198 l 1,27,-1
 206 0 l 1,0,-1
266 250 m 1,28,-1
 387 250 l 1,29,-1
 430 430 l 1,30,-1
 309 430 l 1,31,-1
 266 250 l 1,28,-1
EndSplineSet
EndChar

StartChar: dollar
Encoding: 36 36 7
Width: 546
GlyphClass: 2
Flags: W
LayerCount: 2
Fore
SplineSet
313 316 m 1,0,-1
 313 120 l 1,1,2
 353 127 353 127 377.5 153 c 128,-1,3
 402 179 402 179 402 217.5 c 128,-1,4
 402 256 402 256 388 269 c 1,5,6
 356 304 356 304 336 309 c 1,7,-1
 313 316 l 1,0,-1
259 415 m 1,8,-1
 259 600 l 1,9,10
 230 594 230 594 201.5 566.5 c 128,-1,11
 173 539 173 539 173 504 c 128,-1,12
 173 469 173 469 194.5 450 c 128,-1,13
 216 431 216 431 247 420 c 1,14,-1
 259 415 l 1,8,-1
356 647 m 2,15,16
 356 654 356 654 346 668 c 1,17,-1
 400 668 l 1,18,-1
 476 529 l 1,19,-1
 440 498 l 1,20,-1
 421 525 l 1,21,-1
 391 554 l 1,22,23
 366 580 366 580 349 588.5 c 128,-1,24
 332 597 332 597 313 600 c 1,25,-1
 313 396 l 1,26,27
 387 373 387 373 415 353 c 0,28,29
 488 303 488 303 488 219 c 0,30,31
 488 173 488 173 468 139 c 1,32,33
 417 58 417 58 313 50 c 1,34,-1
 313 -11 l 1,35,-1
 259 -11 l 1,36,-1
 259 53 l 1,37,38
 216 61 216 61 182 80 c 1,39,40
 182 74 l 2,41,42
 182 70 182 70 186 65 c 2,43,-1
 193 57 l 1,44,-1
 132 57 l 1,45,-1
 57 194 l 1,46,-1
 98 226 l 1,47,-1
 116 198 l 1,48,-1
 146 167 l 1,49,50
 185 121 185 121 259 117 c 1,51,-1
 259 333 l 1,52,53
 196 355 196 355 160 375 c 0,54,55
 89 414 89 414 89 497 c 2,56,-1
 89 499 l 2,57,58
 89 540 89 540 108 573 c 128,-1,59
 127 606 127 606 152 623 c 0,60,61
 205 659 205 659 259 660 c 1,62,-1
 259 722 l 1,63,-1
 313 722 l 1,64,-1
 313 654 l 1,65,66
 335 649 335 649 356 638 c 1,67,-1
 356 647 l 2,15,16
EndSplineSet
Validated: 1
EndChar

StartChar: percent
Encoding: 37 37 8
Width: 726
GlyphClass: 2
Flags: W
LayerCount: 2
Fore
SplineSet
46 68 m 1,0,-1
 589 615 l 1,1,-1
 670 615 l 1,2,-1
 128 68 l 1,3,-1
 46 68 l 1,0,-1
555 281 m 0,4,5
 546 287 546 287 530.5 287 c 128,-1,6
 515 287 515 287 505 281 c 1,7,8
 454 259 454 259 454 173.5 c 128,-1,9
 454 88 454 88 505 59 c 0,10,11
 515 53 515 53 523 53 c 2,12,-1
 532 53 l 1,13,14
 608 57 608 57 608 166 c 0,15,16
 608 248 608 248 555 281 c 0,4,5
535 4 m 2,17,-1
 528 4 l 2,18,19
 487 4 487 4 453 20 c 0,20,21
 371 59 371 59 371 170.5 c 128,-1,22
 371 282 371 282 455 321 c 0,23,24
 488 336 488 336 527 336 c 2,25,-1
 535 336 l 2,26,27
 574 336 574 336 604 321 c 0,28,29
 692 279 692 279 692 168.5 c 128,-1,30
 692 58 692 58 608 19 c 0,31,32
 575 4 575 4 535 4 c 2,17,-1
118 526 m 0,33,34
 118 437 118 437 167 413 c 0,35,36
 178 407 178 407 185 407 c 2,37,-1
 195 407 l 1,38,39
 271 411 271 411 271 524 c 0,40,41
 271 604 271 604 219 635 c 0,42,43
 211 640 211 640 201 640 c 2,44,-1
 192 640 l 1,45,46
 118 636 118 636 118 526 c 0,33,34
116 373 m 0,47,48
 34 412 34 412 34 522.5 c 128,-1,49
 34 633 34 633 120 675 c 0,50,51
 152 691 152 691 192.5 691 c 128,-1,52
 233 691 233 691 267 674 c 0,53,54
 355 632 355 632 355 522 c 128,-1,55
 355 412 355 412 269 373 c 0,56,57
 234 357 234 357 194 357 c 2,58,-1
 191 357 l 2,59,60
 150 357 150 357 116 373 c 0,47,48
EndSplineSet
Validated: 1
EndChar
StartChar: ampersand
Encoding: 38 38 9
Width: 784
GlyphClass: 2
Flags: W
LayerCount: 2
Fore
SplineSet
600 304 m 0,0,1
 562 174 562 174 537 149 c 1,2,-1
 602 86 l 1,3,4
 651 47 651 47 685 47 c 2,5,-1
 736 47 l 1,6,-1
 736 0 l 1,7,-1
 578 0 l 1,8,-1
 488 87 l 1,9,10
 394 -11 394 -11 262 -14 c 1,11,12
 164 -14 164 -14 111 34 c 128,-1,13
 58 82 58 82 58 167 c 2,14,-1
 58 175 l 2,15,16
 58 207 58 207 117 276 c 0,17,18
 155 320 155 320 220 362 c 1,19,20
 181 391 181 391 136 474 c 0,21,22
 116 511 116 511 116 553.5 c 128,-1,23
 116 596 116 596 135 631 c 0,24,25
 178 712 178 712 293 713 c 0,26,27
 345 713 345 713 391 682 c 0,28,29
 419 663 419 663 437.5 631.5 c 128,-1,30
 456 600 456 600 456 561 c 2,31,-1
 456 559 l 2,32,33
 456 496 456 496 414.5 455.5 c 128,-1,34
 373 415 373 415 315 373 c 1,35,36
 310 360 310 360 419 263 c 2,37,-1
 500 190 l 1,38,39
 553 289 553 289 544 307 c 0,40,41
 529 340 529 340 504 340 c 2,42,-1
 466 340 l 1,43,-1
 466 387 l 1,44,-1
 667 387 l 1,45,-1
 667 340 l 1,46,-1
 641 340 l 2,47,48
 610 340 610 340 600 304 c 0,0,1
262 65 m 1,49,50
 393 65 393 65 451 126 c 1,51,52
 388 197 388 197 254 324 c 1,53,54
 152 240 152 240 152 176 c 2,55,-1
 152 172 l 1,56,57
 155 117 155 117 177 101 c 128,-1,58
 199 85 199 85 262 65 c 1,49,50
284 402 m 1,59,60
 381 499 381 499 381 573 c 1,61,62
 380 617 380 617 350 642 c 0,63,64
 338 652 338 652 322.5 657.5 c 128,-1,65
 307 663 307 663 301 663 c 2,66,-1
 296 663 l 2,67,68
 235 663 235 663 213 614 c 0,69,70
 203 593 203 593 203 548 c 0,71,72
 203 541 203 541 224.5 493.5 c 128,-1,73
 246 446 246 446 265 424 c 2,74,-1
 284 402 l 1,59,60
EndSplineSet
EndChar
StartChar: quotesingle
Encoding: 39 39 10
Width: 268
GlyphClass: 2
Flags: W
LayerCount: 2
Fore
SplineSet
178 734 m 1,0,1
 178 654 178 654 151 478 c 1,2,-1
 116 478 l 1,3,4
 90 654 90 654 90 734 c 1,5,6
 104 767 104 767 134 767 c 128,-1,7
 164 767 164 767 178 734 c 1,0,1
EndSplineSet
EndChar

StartChar: parenleft
Encoding: 40 40 11
Width: 545
GlyphClass: 2
Flags: W
LayerCount: 2
Fore
SplineSet
500 -146 m 1,0,-1
 460 -146 l 1,1,2
 380 -105 380 -105 309 -10 c 1,3,4
 210 120 210 120 210 290 c 0,5,6
 210 415 210 415 258 508 c 128,-1,7
 306 601 306 601 362 652 c 128,-1,8
 418 703 418 703 446 719 c 2,9,-1
 460 727 l 1,10,-1
 500 727 l 1,11,12
 472 709 472 709 434 665.5 c 128,-1,13
 396 622 396 622 370 576 c 128,-1,14
 344 530 344 530 322.5 453 c 128,-1,15
 301 376 301 376 301 302 c 0,16,17
 301 166 301 166 339.5 72 c 128,-1,18
 378 -22 378 -22 423 -74 c 128,-1,19
 468 -126 468 -126 489 -139 c 2,20,-1
 500 -146 l 1,0,-1
EndSplineSet
Validated: 1
EndChar

StartChar: parenright
Encoding: 41 41 12
Width: 545
GlyphClass: 2
Flags: W
LayerCount: 2
Fore
SplineSet
45 -146 m 5,0,-1
 56 -139 l 6,1,2
 77 -126 77 -126 122 -74 c 132,-1,3
 167 -22 167 -22 206 72 c 4,4,5
 244 166 244 166 244 302 c 4,6,7
 244 376 244 376 222.5 453 c 132,-1,8
 201 530 201 530 175 576 c 132,-1,9
 149 622 149 622 111 665.5 c 132,-1,10
 73 709 73 709 45 727 c 5,11,-1
 85 727 l 5,12,-1
 99 719 l 6,13,14
 127 703 127 703 183 652 c 132,-1,15
 239 601 239 601 287 508 c 132,-1,16
 335 415 335 415 335 290 c 4,17,18
 335 120 335 120 236 -10 c 5,19,20
 165 -105 165 -105 85 -146 c 5,21,-1
 45 -146 l 5,0,-1
EndSplineSet
Validated: 1
EndChar

StartChar: asterisk
Encoding: 42 42 13
Width: 451
GlyphClass: 2
Flags: W
LayerCount: 2
Fore
SplineSet
224 757 m 0,0,1
 257 757 257 757 257 710 c 0,2,3
 257 689 257 689 253 661 c 2,4,-1
 249 635 l 2,5,6
 247 618 247 618 246 614 c 2,7,-1
 244 601 l 1,8,-1
 292 639 l 2,9,10
 339 677 339 677 360 677 c 128,-1,11
 381 677 381 677 389 661 c 0,12,13
 393 655 393 655 393 647 c 0,14,15
 393 625 393 625 370.5 611.5 c 128,-1,16
 348 598 348 598 310 584 c 1,17,-1
 265 566 l 1,18,-1
 321 544 l 2,19,20
 351 532 351 532 365 523 c 1,21,22
 393 508 393 508 393 485 c 0,23,24
 393 478 393 478 386.5 466.5 c 128,-1,25
 380 455 380 455 360 455 c 128,-1,26
 340 455 340 455 292 493 c 2,27,-1
 244 531 l 1,28,-1
 246 516 l 2,29,30
 246 511 246 511 249 496 c 2,31,-1
 255 461 l 1,32,33
 257 441 257 441 257 421.5 c 128,-1,34
 257 402 257 402 248.5 388.5 c 128,-1,35
 240 375 240 375 224 375 c 128,-1,36
 208 375 208 375 199.5 388.5 c 128,-1,37
 191 402 191 402 191 422.5 c 128,-1,38
 191 443 191 443 195 471 c 2,39,-1
 199 497 l 2,40,41
 201 514 201 514 202 518 c 2,42,-1
 204 531 l 1,43,-1
 156 493 l 2,44,45
 109 455 109 455 88 455 c 128,-1,46
 67 455 67 455 59 471 c 0,47,48
 55 477 55 477 55 485 c 0,49,50
 55 507 55 507 77.5 520.5 c 128,-1,51
 100 534 100 534 138 548 c 1,52,-1
 183 566 l 1,53,-1
 127 588 l 2,54,55
 98 599 98 599 82 609 c 0,56,57
 55 625 55 625 55 647 c 0,58,59
 55 654 55 654 61.5 665.5 c 128,-1,60
 68 677 68 677 83.5 677 c 128,-1,61
 99 677 99 677 115 667.5 c 128,-1,62
 131 658 131 658 156 639 c 2,63,-1
 204 601 l 1,64,-1
 202 616 l 2,65,66
 202 621 202 621 199 636 c 2,67,-1
 193 671 l 1,68,69
 191 691 191 691 191 711.5 c 128,-1,70
 191 732 191 732 199.5 744.5 c 128,-1,71
 208 757 208 757 224 757 c 0,0,1
EndSplineSet
Validated: 1
EndChar
StartChar: plus
Encoding: 43 43 14
Width: 540
GlyphClass: 2
Flags: W
LayerCount: 2
Fore
SplineSet
490 317 m 1,0,-1
 490 255 l 1,1,-1
 301 255 l 1,2,-1
 301 66 l 1,3,-1
 239 66 l 1,4,-1
 239 255 l 1,5,-1
 50 255 l 1,6,-1
 50 317 l 1,7,-1
 239 317 l 1,8,-1
 239 507 l 1,9,-1
 301 507 l 1,10,-1
 301 317 l 1,11,-1
 490 317 l 1,0,-1
EndSplineSet
EndChar
StartChar: comma
Encoding: 44 44 15
Width: 306
GlyphClass: 2
Flags: W
LayerCount: 2
Fore
SplineSet
142 -11 m 1,0,1
 142 -11 142 -11 141 -11 c 0,2,3
 138 -11 138 -11 136 -11 c 0,4,5
 115 -11 115 -11 94 5 c 0,6,7
 70 24 70 24 70 53.5 c 128,-1,8
 70 83 70 83 87 103 c 0,9,10
 105 125 105 125 133 125 c 128,-1,11
 161 125 161 125 181 108 c 128,-1,12
 201 91 201 91 203.5 68 c 128,-1,13
 206 45 206 45 206 24 c 0,14,15
 206 -47 206 -47 142 -122 c 1,16,-1
 95 -122 l 1,17,18
 157 -80 157 -80 142 -11 c 1,0,1
EndSplineSet
EndChar
StartChar: hyphen
Encoding: 45 45 16
Width: 470
GlyphClass: 2
Flags: W
LayerCount: 2
Fore
SplineSet
410 317 m 1,0,-1
 410 255 l 1,1,-1
 60 255 l 1,2,-1
 60 317 l 1,3,-1
 410 317 l 1,0,-1
EndSplineSet
EndChar

StartChar: period
Encoding: 46 46 17
Width: 312
GlyphClass: 2
Flags: W
LayerCount: 2
Fore
SplineSet
91 59 m 128,-1,1
 91 86 91 86 110 105 c 128,-1,2
 129 124 129 124 156 124 c 128,-1,3
 183 124 183 124 202 105 c 128,-1,4
 221 86 221 86 221 59 c 128,-1,5
 221 32 221 32 202 13 c 128,-1,6
 183 -6 183 -6 156 -6 c 128,-1,7
 129 -6 129 -6 110 13 c 128,-1,0
 91 32 91 32 91 59 c 128,-1,1
EndSplineSet
EndChar
StartChar: slash
Encoding: 47 47 18
Width: 550
GlyphClass: 2
Flags: W
LayerCount: 2
Fore
SplineSet
515 800 m 1,0,-1
 99 -120 l 1,1,-1
 35 -120 l 1,2,-1
 451 800 l 1,3,-1
 515 800 l 1,0,-1
EndSplineSet
EndChar

StartChar: zero
Encoding: 48 48 19
Width: 550
GlyphClass: 2
Flags: W
LayerCount: 2
Fore
SplineSet
275 41 m 0,0,1
 326 41 326 41 366.5 129.5 c 128,-1,2
 407 218 407 218 407 342 c 0,3,4
 407 679 407 679 275 679 c 0,5,6
 218 679 218 679 180.5 596.5 c 128,-1,7
 143 514 143 514 143 383 c 0,8,9
 143 126 143 126 225 59 c 0,10,11
 247 41 247 41 275 41 c 0,0,1
275 728 m 0,12,13
 383 728 383 728 442.5 630 c 128,-1,14
 502 532 502 532 502 361 c 0,15,16
 502 237 502 237 465.5 147.5 c 128,-1,17
 429 58 429 58 363 18 c 0,18,19
 318 -9 318 -9 275 -9 c 0,20,21
 177 -9 177 -9 112.5 88.5 c 128,-1,22
 48 186 48 186 48 361 c 0,23,24
 48 630 48 630 180 704 c 0,25,26
 223 728 223 728 275 728 c 0,12,13
EndSplineSet
Validated: 1
EndChar

StartChar: one
Encoding: 49 49 20
Width: 550
GlyphClass: 2
Flags: W
LayerCount: 2
Fore
SplineSet
235 707 m 2,0,-1
 235 717 l 1,1,-1
 322 717 l 1,2,-1
 322 99 l 1,3,4
 325 82 325 82 337.5 69.5 c 128,-1,5
 350 57 350 57 368 54 c 1,6,-1
 441 54 l 1,7,-1
 441 0 l 1,8,-1
 109 0 l 1,9,-1
 109 54 l 1,10,-1
 188 54 l 1,11,-1
 188 55 l 1,12,13
 206 57 206 57 218.5 69.5 c 128,-1,14
 231 82 231 82 234 99 c 1,15,-1
 235 99 l 1,16,-1
 235 541 l 1,17,18
 212 530 212 530 172 530 c 2,19,20
 108 530 l 1,21,-1
 108 590 l 1,22,-1
 122 589 l 1,23,24
 164 589 164 589 191 610 c 128,-1,25
 218 631 218 631 226.5 664.5 c 128,-1,26
 235 698 235 698 235 707 c 2,0,-1
EndSplineSet
Validated: 1
EndChar

StartChar: two
Encoding: 50 50 21
Width: 550
GlyphClass: 2
Flags: W
LayerCount: 2
Fore
SplineSet
279 720 m 0,0,1
 471 720 471 720 471 532 c 0,2,3
 471 467 471 467 442 427 c 128,-1,4
 413 387 413 387 328.5 324.5 c 128,-1,5
 244 262 244 262 207 213 c 0,6,7
 158 147 158 147 157 83 c 1,8,-1
 373 83 l 2,9,10
 397 83 397 83 426.5 101 c 128,-1,11
 456 119 456 119 474 138 c 2,12,-1
 491 156 l 1,13,-1
 458 -1 l 1,14,-1
 71 -1 l 1,15,-1
 71 83 l 2,16,17
 71 161 71 161 151 250 c 0,18,19
 188 291 188 291 230 328 c 0,20,21
 340 428 340 428 369 473 c 1,22,23
 383 497 383 497 383 538.5 c 128,-1,24
 383 580 383 580 344 610 c 128,-1,25
 305 640 305 640 260 640 c 128,-1,26
 215 640 215 640 168.5 626 c 128,-1,27
 122 612 122 612 90 593 c 2,28,-1
 80 587 l 1,29,-1
 68 638 l 1,30,31
 85 658 85 658 153 689 c 128,-1,32
 221 720 221 720 279 720 c 0,0,1
EndSplineSet
Validated: 1
EndChar

StartChar: three
Encoding: 51 51 22
Width: 550
GlyphClass: 2
Flags: W
LayerCount: 2
Fore
SplineSet
321 656 m 0,0,1
 300 671 300 671 244 672 c 1,2,-1
 242 672 l 2,3,4
 187 672 187 672 108 610 c 1,5,-1
 79 650 l 1,6,-1
 108 669 l 2,7,8
 210 736 210 736 271 736 c 128,-1,9
 332 736 332 736 375 714.5 c 128,-1,10
 418 693 418 693 435.5 654.5 c 128,-1,11
 453 616 453 616 453 570.5 c 128,-1,12
 453 525 453 525 414.5 480.5 c 128,-1,13
 376 436 376 436 295 401 c 1,14,15
 425 397 425 397 472 318 c 0,16,17
 494 281 494 281 494 228 c 0,18,19
 494 144 494 144 436.5 89.5 c 128,-1,20
 379 35 379 35 287 6 c 0,21,22
 234 -11 234 -11 177 -11 c 128,-1,23
 120 -11 120 -11 66 -3 c 1,24,-1
 49 56 l 1,25,-1
 67 53 l 1,26,-1
 89 50 l 2,27,28
 111 47 111 47 151.5 47 c 128,-1,29
 192 47 192 47 225 53 c 0,30,31
 285 65 285 65 343 112 c 128,-1,32
 401 159 401 159 401 228 c 0,33,34
 401 355 401 355 240 355 c 2,35,-1
 239 355 l 1,36,37
 230 356 230 356 218.5 356 c 128,-1,38
 207 356 207 356 181 349 c 2,39,-1
 133 336 l 1,40,-1
 125 394 l 1,41,-1
 166 399 l 2,42,43
 187 402 187 402 216 416 c 0,44,45
 362 492 362 492 362 580 c 0,46,47
 362 627 362 627 321 656 c 0,0,1
EndSplineSet
Validated: 1
EndChar

StartChar: four
Encoding: 52 52 23
Width: 570
GlyphClass: 2
Flags: W
LayerCount: 2
Fore
SplineSet
127 249 m 1,0,-1
 338 249 l 1,1,-1
 338 611 l 1,2,-1
 127 249 l 1,0,-1
543 178 m 1,3,-1
 421 178 l 1,4,-1
 421 90 l 1,5,-1
 422 90 l 1,6,7
 425 73 425 73 437.5 60.5 c 128,-1,8
 450 48 450 48 468 45 c 1,9,-1
 533 45 l 1,10,-1
 533 0 l 1,11,-1
 221 0 l 1,12,-1
 221 45 l 1,13,-1
 291 45 l 1,14,-1
 291 46 l 1,15,16
 309 48 309 48 322 60.5 c 128,-1,17
 335 73 335 73 338 90 c 1,18,-1
 338 178 l 1,19,-1
 27 178 l 1,20,-1
 332 723 l 1,21,-1
 421 723 l 1,22,-1
 421 249 l 1,23,-1
 543 249 l 1,24,-1
 543 178 l 1,3,-1
EndSplineSet
Validated: 1
EndChar

StartChar: five
Encoding: 53 53 24
Width: 570
GlyphClass: 2
Flags: W
LayerCount: 2
Fore
SplineSet
44 53 m 1,0,1
 107 40 107 40 149.5 40 c 128,-1,2
 192 40 192 40 202 42 c 0,3,4
 318 60 318 60 374 158 c 0,5,6
 396 197 396 197 396 245 c 128,-1,7
 396 293 396 293 365 338 c 0,8,9
 344 368 344 368 309.5 382.5 c 128,-1,10
 275 397 275 397 241 397 c 0,11,12
 163 397 163 397 118 377 c 2,13,-1
 98 368 l 1,14,-1
 111 728 l 1,15,-1
 453 728 l 1,16,-1
 453 645 l 1,17,-1
 167 645 l 1,18,-1
 159 430 l 1,19,20
 220 452 220 452 267.5 452 c 128,-1,21
 315 452 315 452 366.5 434 c 128,-1,22
 418 416 418 416 444 374 c 0,23,24
 484 312 484 312 484 250 c 2,25,-1
 484 246 l 2,26,27
 484 189 484 189 459.5 142 c 128,-1,28
 435 95 435 95 407 66 c 0,29,30
 327 -14 327 -14 160 -14 c 0,31,32
 110 -14 110 -14 60 -5 c 1,33,-1
 44 53 l 1,0,1
EndSplineSet
EndChar
StartChar: six
Encoding: 54 54 25
Width: 570
GlyphClass: 2
Flags: W
LayerCount: 2
Fore
SplineSet
410 235 m 2,0,1
 410 252 l 2,2,3
 410 432 410 432 291 432 c 0,4,5
 289 432 289 432 287 432 c 0,6,7
 238 432 238 432 202 390.5 c 128,-1,8
 166 349 166 349 163 250 c 1,9,-1
 163 231 l 2,10,11
 163 144 163 144 193.5 92 c 128,-1,12
 224 40 224 40 280 37 c 1,13,-1
 285 37 l 2,14,15
 338 37 338 37 374 88 c 128,-1,16
 410 139 410 139 410 235 c 2,0,1
420 686 m 1,17,18
 411 686 l 2,19,20
 292 686 292 686 219 585 c 0,21,22
 195 552 195 552 181 505.5 c 128,-1,23
 167 459 167 459 166 435 c 2,24,-1
 165 407 l 1,25,26
 182 437 182 437 214.5 459 c 128,-1,27
 247 481 247 481 292 481 c 2,28,-1
 295 481 l 2,29,30
 386 481 386 481 445.5 417.5 c 128,-1,31
 505 354 505 354 505 246 c 2,32,-1
 505 245 l 2,33,34
 505 81 505 81 392 12 c 0,35,36
 347 -15 347 -15 287 -15 c 2,37,-1
 280 -15 l 2,38,39
 221 -15 221 -15 177 12.5 c 128,-1,40
 133 40 133 40 107 89 c 0,41,42
 65 169 65 169 65 291 c 0,43,44
 65 330 65 330 69 372 c 0,45,46
 80 480 80 480 106 539.5 c 128,-1,47
 132 599 132 599 190 657 c 0,48,49
 228 695 228 695 305.5 723 c 128,-1,50
 383 751 383 751 438 753 c 1,51,-1
 420 686 l 1,17,18
EndSplineSet
Validated: 1
EndChar
StartChar: seven
Encoding: 55 55 26
Width: 570
GlyphClass: 2
Flags: W
LayerCount: 2
Fore
SplineSet
168 -3 m 1,0,1
 189 208 189 208 217 296 c 0,2,3
 261 434 261 434 360 581 c 0,4,5
 399 638 399 638 408 651 c 1,6,-1
 72 651 l 1,7,-1
 111 734 l 1,8,-1
 498 734 l 1,9,-1
 498 642 l 1,10,11
 472 622 472 622 427.5 567 c 128,-1,12
 383 512 383 512 341 435 c 0,13,14
 253 274 253 274 253 35 c 0,15,16
 253 16 253 16 254 -3 c 1,17,-1
 168 -3 l 1,0,1
EndSplineSet
Validated: 1
EndChar
StartChar: eight
Encoding: 56 56 27
Width: 570
GlyphClass: 2
Flags: W
LayerCount: 2
Fore
SplineSet
275 350 m 0,0,1
 267.571 352.286 267.571 352.286 259 354 c 2,2,-1
 254 355 l 1,3,4
 228.034 344.692 228.034 344.692 189.1 308.012 c 0,5,6
 148 270.223 148 270.223 148 198 c 0,7,8
 148 49 148 49 272 37 c 1,9,10
 287 37 l 2,11,12
 334 37 334 37 377 71 c 128,-1,13
 420 105 420 105 420 180 c 128,-1,14
 420 255 420 255 374 293 c 0,15,16
 322.806 335.29 322.806 335.29 275 350 c 0,0,1
382 573 m 0,17,18
 382 630 382 630 354.5 661.5 c 128,-1,19
 327 693 327 693 278.5 693 c 128,-1,20
 230 693 230 693 200.5 656.5 c 128,-1,21
 171 620 171 620 171 578 c 0,22,23
 171 538.693 171 538.693 190.6 499.747 c 129,-1,24
 210.2 460.8 210.2 460.8 285 439 c 0,25,26
 288.036 438.115 288.036 438.115 296.018 438.058 c 128,-1,27
 304 438 304 438 332 458 c 0,28,29
 382 493 382 493 382 573 c 0,17,18
178 5.5 m 128,-1,31
 122 31 122 31 90.5 80.5 c 128,-1,32
 59 130 59 130 59 190 c 0,33,34
 59 266 59 266 130 332 c 0,35,36
 167 367 167 367 207 387 c 1,37,38
 139 427 139 427 112 470 c 128,-1,39
 85 513 85 513 85 563 c 0,40,41
 85 649 85 649 138.5 694 c 128,-1,42
 192 739 192 739 276.5 739 c 128,-1,43
 361 739 361 739 414.5 688 c 128,-1,44
 468 637 468 637 468 573 c 0,45,46
 468 487 468 487 361 407 c 1,47,48
 429 368 429 368 461 330 c 0,49,50
 511 272 511 272 511 183.5 c 128,-1,51
 511 95 511 95 443 37.5 c 128,-1,52
 375 -20 375 -20 276 -20 c 2,53,-1
 275 -20 l 2,54,30
 234 -20 234 -20 178 5.5 c 128,-1,31
EndSplineSet
Validated: 33
EndChar
StartChar: nine
Encoding: 57 57 28
Width: 570
GlyphClass: 2
Flags: W
LayerCount: 2
Fore
SplineSet
160 503 m 2,0,1
 160 486 l 2,2,3
 160 306 160 306 279 306 c 0,4,5
 281 306 281 306 283 306 c 0,6,7
 332 306 332 306 368 347.5 c 128,-1,8
 404 389 404 389 407 488 c 1,9,-1
 407 507 l 2,10,11
 407 594 407 594 376.5 646 c 128,-1,12
 346 698 346 698 290 701 c 1,13,-1
 285 701 l 2,14,15
 232 701 232 701 196 650 c 128,-1,16
 160 599 160 599 160 503 c 2,0,1
150 52 m 1,17,18
 159 52 l 2,19,20
 278 52 278 52 351 153 c 0,21,22
 375 186 375 186 389 232.5 c 128,-1,23
 403 279 403 279 404 303 c 2,24,-1
 405 331 l 1,25,26
 388 301 388 301 355.5 279 c 128,-1,27
 323 257 323 257 278 257 c 2,28,-1
 275 257 l 2,29,30
 184 257 184 257 124.5 320.5 c 128,-1,31
 65 384 65 384 65 492 c 2,32,-1
 65 493 l 2,33,34
 65 657 65 657 178 726 c 0,35,36
 223 753 223 753 283 753 c 2,37,-1
 290 753 l 2,38,39
 349 753 349 753 393 725.5 c 128,-1,40
 437 698 437 698 463 649 c 0,41,42
 505 569 505 569 505 447 c 0,43,44
 505 408 505 408 501 366 c 0,45,46
 490 258 490 258 464 198.5 c 128,-1,47
 438 139 438 139 380 81 c 0,48,49
 342 43 342 43 264.5 15 c 128,-1,50
 187 -13 187 -13 132 -15 c 1,51,-1
 150 52 l 1,17,18
EndSplineSet
Validated: 1
EndChar
StartChar: colon
Encoding: 58 58 29
Width: 312
GlyphClass: 2
Flags: W
LayerCount: 2
Fore
SplineSet
91 59 m 128,-1,1
 91 86 91 86 110 105 c 128,-1,2
 129 124 129 124 156 124 c 128,-1,3
 183 124 183 124 202 105 c 128,-1,4
 221 86 221 86 221 59 c 128,-1,5
 221 32 221 32 202 13 c 128,-1,6
 183 -6 183 -6 156 -6 c 128,-1,7
 129 -6 129 -6 110 13 c 128,-1,0
 91 32 91 32 91 59 c 128,-1,1
91 387 m 128,-1,9
 91 414 91 414 110 433 c 128,-1,10
 129 452 129 452 156 452 c 128,-1,11
 183 452 183 452 202 433 c 128,-1,12
 221 414 221 414 221 387 c 128,-1,13
 221 360 221 360 202 341 c 128,-1,14
 183 322 183 322 156 322 c 128,-1,15
 129 322 129 322 110 341 c 128,-1,8
 91 360 91 360 91 387 c 128,-1,9
EndSplineSet
EndChar
StartChar: semicolon
Encoding: 59 59 30
Width: 312
GlyphClass: 2
Flags: W
LayerCount: 2
Fore
SplineSet
91 387 m 128,-1,1
 91 414 91 414 110 433 c 128,-1,2
 129 452 129 452 156 452 c 128,-1,3
 183 452 183 452 202 433 c 128,-1,4
 221 414 221 414 221 387 c 128,-1,5
 221 360 221 360 202 341 c 128,-1,6
 183 322 183 322 156 322 c 128,-1,7
 129 322 129 322 110 341 c 128,-1,0
 91 360 91 360 91 387 c 128,-1,1
162 -11 m 1,8,-1
 161 -11 l 2,9,10
 158 -11 158 -11 156 -11 c 0,11,12
 135 -11 135 -11 114 5 c 0,13,14
 90 24 90 24 90 53.5 c 128,-1,15
 90 83 90 83 107 103 c 0,16,17
 125 125 125 125 153 125 c 128,-1,18
 181 125 181 125 201 108 c 128,-1,19
 221 91 221 91 223.5 68 c 128,-1,20
 226 45 226 45 226 24 c 0,21,22
 226 -47 226 -47 162 -122 c 1,23,-1
 115 -122 l 1,24,25
 177 -80 177 -80 162 -11 c 1,8,-1
EndSplineSet
EndChar

StartChar: less
Encoding: 60 60 31
Width: 525
GlyphClass: 2
Flags: W
LayerCount: 2
Fore
SplineSet
35 294 m 1,0,-1
 490 570 l 1,1,-1
 490 502 l 1,2,-1
 137 295 l 1,3,-1
 490 87 l 1,4,-1
 490 18 l 1,5,-1
 35 294 l 1,0,-1
EndSplineSet
EndChar
StartChar: equal
Encoding: 61 61 32
Width: 525
GlyphClass: 2
Flags: W
LayerCount: 2
Fore
SplineSet
465 239 m 1,0,-1
 465 182 l 1,1,-1
 60 182 l 1,2,-1
 60 239 l 1,3,-1
 465 239 l 1,0,-1
465 409 m 1,4,-1
 465 352 l 1,5,-1
 60 352 l 1,6,-1
 60 409 l 1,7,-1
 465 409 l 1,4,-1
EndSplineSet
EndChar

StartChar: greater
Encoding: 62 62 33
Width: 525
GlyphClass: 2
Flags: W
LayerCount: 2
Fore
SplineSet
490 294 m 1,0,-1
 35 18 l 1,1,-1
 35 87 l 1,2,-1
 388 295 l 1,3,-1
 35 502 l 1,4,-1
 35 570 l 1,5,-1
 490 294 l 1,0,-1
EndSplineSet
EndChar

StartChar: question
Encoding: 63 63 34
Width: 463
GlyphClass: 2
Flags: W
LayerCount: 2
Fore
SplineSet
153 204 m 1,0,-1
 150 296 l 1,1,2
 151 383 151 383 178 400 c 128,-1,3
 205 417 205 417 240 439 c 0,4,5
 301 478 301 478 324 558 c 0,6,7
 328 572 328 572 328 590 c 128,-1,8
 328 608 328 608 320 627 c 0,9,10
 288 704 288 704 167 704 c 0,11,12
 104 704 104 704 47 652 c 1,13,-1
 45 732 l 1,14,15
 99 757 99 757 177 757 c 0,16,17
 354 756 354 756 410 641 c 0,18,19
 427 606 427 606 427 579 c 0,20,21
 427 463 427 463 322 409 c 0,22,23
 295 394 295 394 272.5 383.5 c 128,-1,24
 250 373 250 373 234 351 c 0,25,26
 202 308 202 308 202 204 c 1,27,-1
 153 204 l 1,0,-1
116 59 m 128,-1,29
 116 86 116 86 135 105 c 128,-1,30
 154 124 154 124 181 124 c 128,-1,31
 208 124 208 124 227 105 c 128,-1,32
 246 86 246 86 246 59 c 128,-1,33
 246 32 246 32 227 13 c 128,-1,34
 208 -6 208 -6 181 -6 c 128,-1,35
 154 -6 154 -6 135 13 c 128,-1,28
 116 32 116 32 116 59 c 128,-1,29
EndSplineSet
Validated: 1
EndChar

StartChar: at
Encoding: 64 64 35
Width: 814
GlyphClass: 2
Flags: W
LayerCount: 2
Fore
SplineSet
440 498 m 0,0,1
 404 498 404 498 366 465.5 c 128,-1,2
 328 433 328 433 300 377 c 1,3,4
 289 345 289 345 289 308.5 c 128,-1,5
 289 272 289 272 300 248 c 1,6,7
 308 237 308 237 322 237 c 0,8,9
 408 237 408 237 471 344 c 1,10,-1
 479 363 l 1,11,12
 502 425 502 425 502 442.5 c 128,-1,13
 502 460 502 460 493 473.5 c 128,-1,14
 484 487 484 487 466.5 492.5 c 128,-1,15
 449 498 449 498 440 498 c 0,0,1
625 137 m 1,16,-1
 654 108 l 1,17,18
 624 78 624 78 601 61 c 0,19,20
 515 0 515 0 377 0 c 0,21,22
 291 0 291 0 208 37 c 0,23,24
 161 58 161 58 114 111 c 1,25,26
 25 202 25 202 25 321 c 0,27,28
 25 351 25 351 30 381 c 0,29,30
 60 537 60 537 179 635 c 128,-1,31
 298 733 298 733 459 733 c 0,32,33
 633 733 633 733 741 574 c 1,34,35
 781 518 781 518 781 455 c 0,36,37
 781 424 781 424 775 390 c 1,38,39
 746 253 746 253 639 191 c 1,40,41
 607 175 607 175 571 175 c 0,42,43
 489 175 489 175 475 244 c 0,44,45
 474 249 474 249 473 253 c 1,46,47
 399 188 399 188 302 188 c 0,48,49
 258 188 258 188 234 212 c 0,50,51
 197 249 197 249 197 309 c 128,-1,52
 197 369 197 369 220 406 c 1,53,54
 258 471 258 471 318 509 c 128,-1,55
 378 547 378 547 440 547 c 128,-1,56
 502 547 502 547 547 505 c 0,57,58
 573 481 573 481 573 448 c 128,-1,59
 573 415 573 415 560 383 c 2,60,-1
 540 331 l 2,61,62
 528 301 528 301 528 273 c 128,-1,63
 528 245 528 245 536 236.5 c 128,-1,64
 544 228 544 228 554.5 227 c 128,-1,65
 565 226 565 226 576 226 c 0,66,67
 674 226 674 226 710 393 c 0,68,69
 713 407 713 407 713 424 c 2,70,-1
 713 450 l 1,71,72
 712 538 712 538 666 587 c 1,73,74
 572 684 572 684 459 686 c 1,75,76
 332 684 332 684 225 602 c 1,77,78
 132 523 132 523 103 384 c 0,79,80
 98 360 98 360 98 321 c 0,81,82
 98 239 98 239 127 187 c 0,83,84
 203 51 203 51 402 50 c 0,85,86
 563 50 563 50 625 137 c 1,16,-1
EndSplineSet
Validated: 1
EndChar
StartChar: A
Encoding: 65 65 36
Width: 849
GlyphClass: 2
Flags: W
LayerCount: 2
Fore
SplineSet
759 45 m 1,0,-1
 814 45 l 1,1,-1
 814 0 l 1,2,-1
 511 0 l 1,3,-1
 511 45 l 1,4,-1
 571 45 l 2,5,6
 592 45 592 45 600.5 57 c 128,-1,7
 609 69 609 69 609 78 c 2,8,-1
 609 91 l 1,9,-1
 408 593 l 1,10,-1
 203 91 l 1,11,-1
 203 79 l 2,12,13
 203 69 203 69 214.5 57 c 128,-1,14
 226 45 226 45 241 45 c 2,15,-1
 301 45 l 1,16,-1
 301 0 l 1,17,-1
 40 0 l 1,18,-1
 40 45 l 1,19,-1
 90 45 l 2,20,21
 107 45 107 45 122.943010986 60.4448700077 c 128,-1,22
 138.886021972 75.8897400155 138.886021972 75.8897400155 145 91 c 2,23,-1
 425 783 l 1,24,-1
 704 91 l 2,25,26
 720 51 720 51 759 45 c 1,0,-1
259.532226562 305 m 1,27,-1
 573.182617188 305 l 1,28,-1
 590 258 l 1,29,-1
 242 258 l 1,30,-1
 259.532226562 305 l 1,27,-1
EndSplineSet
EndChar
StartChar: B
Encoding: 66 66 37
Width: 726
GlyphClass: 2
Flags: W
LayerCount: 2
Fore
SplineSet
672 218 m 0,0,1
 672 0 672 0 378 0 c 2,2,-1
 40 0 l 1,3,-1
 40 45 l 1,4,-1
 111 45 l 1,5,-1
 111 46 l 1,6,7
 139 50 139 50 152 75 c 1,8,-1
 152 645 l 1,9,-1
 151 645 l 1,10,11
 148 662 148 662 135.5 674.5 c 128,-1,12
 123 687 123 687 105 690 c 1,13,-1
 40 690 l 1,14,-1
 40 735 l 1,15,-1
 378 735 l 2,16,17
 488 735 488 735 549.5 691 c 128,-1,18
 611 647 611 647 611 554 c 0,19,20
 611 428 611 428 503 395 c 1,21,22
 582 383 582 383 627 340 c 128,-1,23
 672 297 672 297 672 218 c 0,0,1
437 429 m 0,24,25
 505 446 505 446 505 553 c 0,26,27
 505 674 505 674 412 686 c 0,28,29
 379 690 379 690 353 690 c 0,30,31
 307 690 307 690 283 688 c 1,32,33
 266 685 266 685 247 650 c 1,34,-1
 247 416 l 1,35,-1
 336 416 l 2,36,37
 386 416 386 416 437 429 c 0,24,25
395 370 m 2,38,-1
 247 370 l 1,39,-1
 247 91 l 1,40,41
 252 62 252 62 278 48 c 1,42,-1
 337 48 l 2,43,44
 441 48 441 48 486 67 c 0,45,46
 562 99 562 99 562 201.5 c 128,-1,47
 562 304 562 304 513 344 c 1,48,49
 479 370 479 370 401 370 c 0,50,51
 398 370 398 370 395 370 c 2,38,-1
EndSplineSet
EndChar
StartChar: C
Encoding: 67 67 38
Width: 741
GlyphClass: 2
Flags: W
LayerCount: 2
Fore
SplineSet
406 50 m 0,0,1
 576 50 576 50 652 143 c 1,2,-1
 672 170 l 1,3,-1
 701 146 l 1,4,5
 662 95 662 95 646.5 81.5 c 128,-1,6
 631 68 631 68 613.5 55 c 128,-1,7
 596 42 596 42 579.5 34 c 128,-1,8
 563 26 563 26 556 22 c 1,9,-1
 541 16 l 1,10,11
 469 -11 469 -11 390 -11 c 128,-1,12
 311 -11 311 -11 248.5 18 c 128,-1,13
 186 47 186 47 141 100 c 128,-1,14
 96 153 96 153 68 231 c 128,-1,15
 40 309 40 309 40 382 c 0,16,17
 40 566 40 566 196 685 c 1,18,19
 285 752 285 752 380 749 c 0,20,21
 522 745 522 745 574 692.85546875 c 1,22,23
 616 736 616 736 628 780 c 1,24,-1
 668 780 l 1,25,-1
 668 512 l 1,26,27
 645 567 645 567 607 608 c 0,28,29
 526 696 526 696 424 695 c 0,30,31
 383 695 383 695 347 682.5 c 0,32,33
 310 670 310 670 273.5 643 c 128,-1,34
 237 616 237 616 207 580 c 128,-1,35
 177 544 177 544 161.5 495 c 128,-1,36
 146 446 146 446 146 394 c 0,37,38
 146 251 146 251 221 150.5 c 128,-1,39
 296 50 296 50 406 50 c 0,0,1
EndSplineSet
EndChar
StartChar: D
Encoding: 68 68 39
Width: 785
GlyphClass: 2
Flags: W
LayerCount: 2
Fore
SplineSet
467 735 m 2,0,1
 533 735 533 735 596 680.5 c 128,-1,2
 659 626 659 626 697 540 c 128,-1,3
 735 454 735 454 735 368.5 c 128,-1,4
 735 283 735 283 697.5 198.5 c 128,-1,5
 660 114 660 114 592.5 57 c 128,-1,6
 525 0 525 0 448 0 c 2,7,-1
 40 0 l 1,8,-1
 40 45 l 1,9,-1
 111 45 l 1,10,-1
 111 46 l 1,11,12
 139 50 139 50 152 75 c 1,13,-1
 152 645 l 1,14,-1
 151 645 l 1,15,16
 148 662 148 662 135.5 674.5 c 128,-1,17
 123 687 123 687 105 690 c 1,18,-1
 40 690 l 1,19,-1
 40 735 l 1,20,-1
 467 735 l 2,0,1
407 50 m 2,21,22
 470 50 470 50 521 97 c 128,-1,23
 572 144 572 144 598.5 215.5 c 128,-1,24
 625 287 625 287 625 372.5 c 128,-1,25
 625 458 625 458 598 530.5 c 128,-1,26
 571 603 571 603 519.5 646 c 128,-1,27
 468 689 468 689 401 689 c 2,28,-1
 288 689 l 1,29,-1
 288 688 l 1,30,31
 260 684 260 684 247 659 c 1,32,-1
 247 91 l 1,33,34
 252 62 252 62 278 50 c 1,35,-1
 407 50 l 2,21,22
EndSplineSet
EndChar
StartChar: E
Encoding: 69 69 40
Width: 700
GlyphClass: 2
Flags: W
LayerCount: 2
Fore
SplineSet
451 416 m 1,0,1
 501 432 501 432 501 482 c 2,2,-1
 501 527 l 1,3,-1
 546 527 l 1,4,-1
 546 259 l 1,5,-1
 501 259 l 1,6,-1
 501 310 l 2,7,8
 501 349 501 349 451 370 c 1,9,-1
 237 370 l 1,10,-1
 237 91 l 1,11,12
 242 62 242 62 268 48 c 1,13,-1
 553 47 l 1,14,15
 605 54 605 54 605 103 c 2,16,-1
 605 158 l 1,17,-1
 650 158 l 1,18,-1
 650 0 l 1,19,-1
 30 0 l 1,20,-1
 30 45 l 1,21,-1
 101 45 l 1,22,23
 129 49 129 49 142 74 c 1,24,-1
 142 645 l 1,25,26
 139 662 139 662 126.5 674.5 c 128,-1,27
 114 687 114 687 95 690 c 1,28,-1
 30 690 l 1,29,-1
 30 735 l 1,30,-1
 634 735 l 1,31,-1
 634 576 l 1,32,-1
 589 576 l 1,33,-1
 589 637 l 1,34,35
 585 665 585 665 539 688 c 1,36,-1
 273 688 l 1,37,38
 256 685 256 685 237 650 c 1,39,-1
 237 416 l 1,40,-1
 451 416 l 1,0,1
EndSplineSet
EndChar
StartChar: F
Encoding: 70 70 41
Width: 710
GlyphClass: 2
Flags: W
LayerCount: 2
Fore
SplineSet
431 416 m 1,0,1
 481 432 481 432 481 482 c 2,2,-1
 481 527 l 1,3,-1
 526 527 l 1,4,-1
 526 259 l 1,5,-1
 481 259 l 1,6,-1
 481 310 l 2,7,8
 481 349 481 349 431 370 c 1,9,-1
 247 370 l 1,10,-1
 247 91 l 1,11,12
 252 62 252 62 278 48 c 1,13,-1
 366 48 l 1,14,-1
 366 0 l 1,15,-1
 40 0 l 1,16,-1
 40 45 l 1,17,-1
 111 45 l 1,18,19
 139 49 139 49 152 74 c 1,20,-1
 152 645 l 1,21,22
 149 662 149 662 136.5 674.5 c 128,-1,23
 124 687 124 687 105 690 c 1,24,-1
 40 690 l 1,25,-1
 40 735 l 1,26,-1
 644 735 l 1,27,-1
 644 576 l 1,28,-1
 599 576 l 1,29,-1
 599 637 l 1,30,31
 595 665 595 665 549 688 c 1,32,-1
 283 688 l 1,33,34
 266 685 266 685 247 650 c 1,35,-1
 247 416 l 1,36,-1
 431 416 l 1,0,1
EndSplineSet
EndChar

StartChar: G
Encoding: 71 71 42
Width: 790
GlyphClass: 2
Flags: W
LayerCount: 2
Fore
SplineSet
571 725 m 0,0,1
 576 723 576 723 578.5 723 c 128,-1,2
 581 723 581 723 581 727 c 128,-1,3
 581 731 581 731 575 740 c 1,4,-1
 628 740 l 1,5,-1
 730 592 l 1,6,-1
 700 569 l 1,7,-1
 678 596 l 1,8,-1
 636 634 l 2,9,10
 589 677 589 677 540 686 c 128,-1,11
 491 695 491 695 449 695 c 128,-1,12
 407 695 407 695 368 682.5 c 128,-1,13
 329 670 329 670 290.5 643 c 128,-1,14
 252 616 252 616 220.5 580 c 128,-1,15
 189 544 189 544 170 495 c 128,-1,16
 151 446 151 446 151 394 c 0,17,18
 151 246 151 246 227.5 148.5 c 128,-1,19
 304 51 304 51 424 51 c 128,-1,20
 544 51 544 51 595 93 c 1,21,-1
 595 258 l 1,22,23
 586 309 586 309 548 309 c 2,24,-1
 484 309 l 1,25,-1
 484 355 l 1,26,-1
 774 355 l 1,27,-1
 774 309 l 1,28,29
 713 309 l 2,30,31
 675 309 675 309 675 258 c 2,32,-1
 675 79 l 1,33,34
 647 48 647 48 620 33 c 128,-1,35
 593 18 593 18 549 4 c 128,-1,36
 505 -10 505 -10 417 -10 c 128,-1,37
 329 -10 329 -10 263.5 18.5 c 128,-1,38
 198 47 198 47 151 100 c 128,-1,39
 104 153 104 153 74.5 231 c 128,-1,40
 45 309 45 309 45 382 c 0,41,42
 45 568 45 568 209 685 c 0,43,44
 299 749 299 749 405 749 c 128,-1,45
 511 749 511 749 571 725 c 0,0,1
EndSplineSet
Validated: 1
EndChar
StartChar: H
Encoding: 72 72 43
Width: 900
GlyphClass: 2
Flags: W
LayerCount: 2
Fore
SplineSet
257 75 m 1,0,1
 264 45 264 45 303 45 c 2,2,-1
 368 45 l 1,3,-1
 368 0 l 1,4,-1
 50 0 l 1,5,-1
 50 45 l 1,6,-1
 121 45 l 1,7,8
 148 49 148 49 162 75 c 1,9,-1
 162 652 l 1,10,11
 158 675 158 675 115 682 c 1,12,-1
 50 682 l 1,13,-1
 50 727 l 1,14,-1
 368 727 l 1,15,-1
 368 682 l 1,16,-1
 298 682 l 1,17,18
 271 678 271 678 257 652 c 1,19,-1
 257 393 l 1,20,-1
 634 393 l 1,21,-1
 634 652 l 1,22,23
 630 675 630 675 587 682 c 1,24,-1
 522 682 l 1,25,-1
 522 727 l 1,26,-1
 840 727 l 1,27,-1
 840 682 l 1,28,-1
 770 682 l 1,29,30
 743 678 743 678 729 652 c 1,31,-1
 729 75 l 1,32,33
 736 45 736 45 775 45 c 2,34,-1
 840 45 l 1,35,-1
 840 0 l 1,36,-1
 522 0 l 1,37,-1
 522 45 l 1,38,-1
 593 45 l 1,39,40
 620 49 620 49 634 75 c 1,41,-1
 634 346 l 1,42,-1
 257 346 l 1,43,-1
 257 75 l 1,0,1
EndSplineSet
EndChar
StartChar: I
Encoding: 73 73 44
Width: 398
GlyphClass: 2
Flags: W
LayerCount: 2
Fore
SplineSet
247 75 m 1,0,1
 254 45 254 45 293 45 c 2,2,-1
 358 45 l 1,3,-1
 358 0 l 1,4,-1
 40 0 l 1,5,-1
 40 45 l 1,6,-1
 111 46 l 1,7,8
 139 50 139 50 152 75 c 1,9,-1
 152 652 l 1,10,11
 148 675 148 675 105 682 c 1,12,-1
 40 682 l 1,13,-1
 40 727 l 1,14,-1
 358 727 l 1,15,-1
 358 682 l 1,16,-1
 288 682 l 1,17,18
 261 678 261 678 247 652 c 1,19,-1
 247 75 l 1,0,1
EndSplineSet
EndChar

StartChar: J
Encoding: 74 74 45
Width: 398
GlyphClass: 2
Flags: W
LayerCount: 2
Fore
SplineSet
247 135 m 2,0,1
 247 -70 247 -70 22 -140 c 1,2,3
 -18 -128 -18 -128 22 -102 c 0,4,5
 152 -19 152 -19 152 135 c 2,6,-1
 152 652 l 1,7,8
 148 675 148 675 105 682 c 1,9,-1
 40 682 l 1,10,-1
 40 727 l 1,11,-1
 358 727 l 1,12,-1
 358 682 l 1,13,-1
 288 682 l 1,14,-1
 288 681 l 1,15,16
 260 677 260 677 247 652 c 1,17,-1
 247 135 l 2,0,1
EndSplineSet
EndChar
StartChar: K
Encoding: 75 75 46
Width: 880
GlyphClass: 2
Flags: W
LayerCount: 2
Fore
SplineSet
247 75 m 1,0,1
 254 45 254 45 293 45 c 2,2,-1
 358 45 l 1,3,-1
 358 0 l 1,4,-1
 40 0 l 1,5,-1
 40 45 l 1,6,-1
 111 45 l 1,7,8
 139 49 139 49 152 74 c 1,9,-1
 152 652 l 1,10,11
 148 675 148 675 105 682 c 1,12,-1
 40 682 l 1,13,-1
 40 727 l 1,14,-1
 358 727 l 1,15,-1
 358 682 l 1,16,-1
 288 682 l 1,17,18
 261 678 261 678 247 652 c 1,19,-1
 247 360 l 1,20,-1
 568 632 l 1,21,22
 572 643 572 643 572 651 c 0,23,24
 572 673 572 673 538 682 c 1,25,-1
 496 682 l 1,26,-1
 496 727 l 1,27,-1
 776 727 l 1,28,-1
 776 681 l 1,29,-1
 740 681 l 1,30,31
 673 663 673 663 618 616 c 2,32,-1
 387 418 l 1,33,-1
 723 77 l 2,34,35
 754 46 754 46 807 46 c 2,36,-1
 840 46 l 1,37,-1
 840 0 l 1,38,-1
 519 0 l 1,39,-1
 519 45 l 1,40,-1
 565 46 l 1,41,42
 600 57 600 57 600 65 c 128,-1,43
 600 73 600 73 585 100 c 1,44,-1
 326 365 l 1,45,-1
 247 297 l 1,46,-1
 247 75 l 1,0,1
EndSplineSet
EndChar

StartChar: L
Encoding: 76 76 47
Width: 700
GlyphClass: 2
Flags: W
LayerCount: 2
Fore
SplineSet
247 91 m 1,0,1
 252 62 252 62 278 48 c 1,2,-1
 505 47 l 2,3,4
 615 47 615 47 615 145 c 2,5,-1
 615 179 l 1,6,-1
 660 179 l 1,7,-1
 660 0 l 1,8,-1
 40 0 l 1,9,-1
 40 45 l 1,10,-1
 111 45 l 1,11,12
 139 49 139 49 152 74 c 1,13,-1
 152 645 l 1,14,15
 149 662 149 662 136.5 674.5 c 128,-1,16
 124 687 124 687 105 690 c 1,17,-1
 40 690 l 1,18,-1
 40 735 l 1,19,-1
 365 735 l 1,20,-1
 365 688 l 1,21,-1
 283 688 l 1,22,23
 266 685 266 685 247 650 c 1,24,-1
 247 91 l 1,0,1
EndSplineSet
EndChar
StartChar: M
Encoding: 77 77 48
Width: 1030
GlyphClass: 2
Flags: W
LayerCount: 2
Fore
SplineSet
223 105 m 2,0,1
 223 45 223 45 308 45 c 2,2,-1
 334 45 l 1,3,-1
 334 0 l 1,4,-1
 50 0 l 1,5,-1
 50 45 l 1,6,-1
 85 46 l 2,7,8
 162 48 162 48 162 105 c 2,9,-1
 162 632 l 2,10,11
 162 675 162 675 115 682 c 1,12,-1
 50 682 l 1,13,-1
 50 727 l 1,14,-1
 232 727 l 1,15,-1
 509 189 l 1,16,-1
 773 727 l 1,17,-1
 978 727 l 1,18,-1
 978 682 l 1,19,-1
 908 682 l 1,20,21
 868 675 868 675 868 632 c 2,22,-1
 868 105 l 2,23,24
 868 45 868 45 952 45 c 2,25,-1
 978 45 l 1,26,-1
 978 0 l 1,27,-1
 660 0 l 1,28,-1
 660 45 l 1,29,-1
 695 46 l 2,30,31
 772 48 772 48 772 105 c 2,32,-1
 772 602 l 1,33,-1
 496 22 l 1,34,-1
 223 543 l 1,35,-1
 223 105 l 2,0,1
EndSplineSet
EndChar
StartChar: N
Encoding: 78 78 49
Width: 941
GlyphClass: 2
Flags: W
LayerCount: 2
Fore
SplineSet
253 112 m 2,0,1
 253 45 253 45 342 45 c 2,2,-1
 364 45 l 1,3,-1
 364 0 l 1,4,-1
 70 0 l 1,5,-1
 70 45 l 1,6,-1
 95 46 l 2,7,8
 182 49 182 49 182 112 c 2,9,-1
 182 652 l 1,10,11
 178 675 178 675 135 682 c 1,12,-1
 70 682 l 1,13,-1
 70 727 l 1,14,-1
 255 727 l 1,15,-1
 689 214 l 1,16,-1
 689 612 l 2,17,18
 689 682 689 682 605 682 c 2,19,-1
 577 682 l 1,20,-1
 577 727 l 1,21,-1
 871 727 l 1,22,-1
 871 681 l 1,23,-1
 845 681 l 2,24,25
 760 681 760 681 760 612 c 2,26,-1
 760 -30 l 1,27,-1
 253 571 l 1,28,-1
 253 112 l 2,0,1
EndSplineSet
Validated: 1
EndChar

StartChar: O
Encoding: 79 79 50
Width: 814
GlyphClass: 2
Flags: W
LayerCount: 2
Fore
SplineSet
413 692 m 2,0,1
 380 692 l 2,2,3
 295 692 295 692 222 594 c 128,-1,4
 149 496 149 496 149 356 c 128,-1,5
 149 216 149 216 227 125 c 128,-1,6
 305 34 305 34 414.5 34 c 128,-1,7
 524 34 524 34 594.5 126.5 c 128,-1,8
 665 219 665 219 665 365 c 128,-1,9
 665 511 665 511 587.5 601.5 c 128,-1,10
 510 692 510 692 413 692 c 2,0,1
82 170 m 128,-1,12
 30 256 30 256 30 360 c 128,-1,13
 30 464 30 464 82 551.5 c 128,-1,14
 134 639 134 639 219 692 c 128,-1,15
 304 745 304 745 407 745 c 128,-1,16
 510 745 510 745 594.5 695 c 128,-1,17
 679 645 679 645 731.5 557.5 c 128,-1,18
 784 470 784 470 784 361.5 c 128,-1,19
 784 253 784 253 731.5 167 c 128,-1,20
 679 81 679 81 594.5 30.5 c 128,-1,21
 510 -20 510 -20 407 -20 c 128,-1,22
 304 -20 304 -20 219 32 c 128,-1,11
 134 84 134 84 82 170 c 128,-1,12
EndSplineSet
Validated: 1
EndChar
StartChar: P
Encoding: 80 80 51
Width: 686
GlyphClass: 2
Flags: W
LayerCount: 2
Fore
SplineSet
247 76 m 1,0,1
 254 46 254 46 293 46 c 2,2,-1
 358 46 l 1,3,-1
 358 1 l 1,4,-1
 40 1 l 1,5,-1
 40 46 l 1,6,-1
 111 47 l 1,7,8
 139 51 139 51 152 76 c 1,9,-1
 152 645 l 1,10,11
 149 662 149 662 136.5 674.5 c 128,-1,12
 124 687 124 687 105 690 c 1,13,-1
 40 690 l 1,14,-1
 40 736 l 1,15,-1
 403 735 l 2,16,17
 513 735 513 735 574.5 675 c 128,-1,18
 636 615 636 615 636 522 c 0,19,20
 636 328 636 328 390 328 c 2,21,-1
 247 328 l 1,22,-1
 247 76 l 1,0,1
530 524 m 128,-1,24
 530 674 530 674 437 686 c 0,25,26
 404 690 404 690 355.5 690 c 128,-1,27
 307 690 307 690 283 688 c 1,28,29
 266 685 266 685 247 650 c 1,30,-1
 247 374 l 1,31,-1
 381 374 l 2,32,23
 530 374 530 374 530 524 c 128,-1,24
EndSplineSet
EndChar

StartChar: Q
Encoding: 81 81 52
Width: 814
GlyphClass: 2
Flags: W
LayerCount: 2
Fore
SplineSet
400 692 m 1,0,-1
 399 692 l 1,1,2
 292 688 292 688 218 589 c 128,-1,3
 144 490 144 490 149 350 c 128,-1,4
 154 210 154 210 231.5 120 c 128,-1,5
 309 30 309 30 416.5 34 c 128,-1,6
 524 38 524 38 597 131.5 c 128,-1,7
 670 225 670 225 665 371 c 128,-1,8
 660 517 660 517 583.5 606 c 128,-1,9
 507 695 507 695 400 692 c 1,0,-1
82 170 m 128,-1,11
 30 256 30 256 30 360 c 128,-1,12
 30 464 30 464 82 551.5 c 128,-1,13
 134 639 134 639 219 692 c 128,-1,14
 304 745 304 745 407 745 c 128,-1,15
 510 745 510 745 594.5 695 c 128,-1,16
 679 645 679 645 731.5 557.5 c 128,-1,17
 784 470 784 470 784 361.5 c 128,-1,18
 784 253 784 253 731.5 167 c 128,-1,19
 679 81 679 81 594 30 c 0,20,21
 546 2 546 2 492 -11 c 1,22,23
 546 -102 546 -102 766 -130 c 0,24,25
 817 -136 817 -136 817 -145.5 c 128,-1,26
 817 -155 817 -155 766 -168 c 1,27,28
 527 -150 527 -150 392 -46 c 1,29,30
 366 -29 366 -29 339 -14 c 1,31,32
 275 -2 275 -2 219 32 c 0,33,10
 134 84 134 84 82 170 c 128,-1,11
EndSplineSet
EndChar

StartChar: R
Encoding: 82 82 53
Width: 821
GlyphClass: 2
Flags: W
LayerCount: 2
Fore
SplineSet
725 45 m 2,0,-1
 781 45 l 1,1,-1
 781 0 l 1,2,-1
 463 0 l 1,3,-1
 463 45 l 1,4,-1
 533 45 l 2,5,6
 554 45 554 45 554 55 c 0,7,8
 554 62 554 62 546 72 c 2,9,-1
 342 329 l 1,10,-1
 253 329 l 1,11,-1
 253 74 l 2,12,13
 253 45 253 45 298 45 c 2,14,-1
 364 45 l 1,15,-1
 364 0 l 1,16,-1
 40 0 l 1,17,-1
 40 45 l 1,18,-1
 112 45 l 2,19,20
 127 45 127 45 140.5 53.5 c 128,-1,21
 154 62 154 62 154 74 c 2,22,-1
 154 646 l 2,23,24
 154 663 154 663 140.5 677 c 128,-1,25
 127 691 127 691 106 691 c 2,26,-1
 40 691 l 1,27,-1
 40 736 l 1,28,-1
 403 736 l 2,29,30
 512 736 512 736 574.5 675.5 c 128,-1,31
 637 615 637 615 637 523 c 0,32,33
 637 352 637 352 445 332 c 1,34,-1
 651 72 l 1,35,36
 674 45 674 45 725 45 c 2,0,-1
253 651 m 2,37,-1
 253 374 l 1,38,-1
 382 374 l 2,39,40
 530 374 530 374 530 524.5 c 128,-1,41
 530 675 530 675 437 687 c 0,42,43
 406 691 406 691 342 691 c 128,-1,44
 278 691 278 691 265.5 679.5 c 128,-1,45
 253 668 253 668 253 651 c 2,37,-1
EndSplineSet
EndChar

StartChar: S
Encoding: 83 83 54
Width: 637
GlyphClass: 2
Flags: W
LayerCount: 2
Fore
SplineSet
428 707 m 1,0,1
 431 709 431 709 425 724 c 128,-1,2
 419 739 419 739 417 749 c 1,3,-1
 467 749 l 1,4,-1
 564 581 l 1,5,-1
 536 558 l 1,6,-1
 515 585 l 1,7,-1
 475 623 l 1,8,9
 442 656 442 656 410.5 670 c 128,-1,10
 379 684 379 684 316 684 c 128,-1,11
 253 684 253 684 208 640 c 128,-1,12
 163 596 163 596 163 550 c 128,-1,13
 163 504 163 504 193 480 c 128,-1,14
 223 456 223 456 265.5 438 c 128,-1,15
 308 420 308 420 329 415 c 0,16,17
 441 388 441 388 491 354 c 0,18,19
 587 290 587 290 587 189 c 0,20,21
 587 134 587 134 558.5 91.5 c 128,-1,22
 530 49 530 49 502 31 c 0,23,24
 432 -15 432 -15 314 -15 c 0,25,26
 243 -15 243 -15 184 19 c 1,27,-1
 169 28 l 1,28,-1
 171 10 l 1,29,30
 174 0 174 0 177 -9 c 1,31,-1
 127 -9 l 1,32,-1
 30 159 l 1,33,-1
 58 182 l 1,34,-1
 79 155 l 1,35,-1
 119 117 l 1,36,37
 192 42 192 42 280 42 c 0,38,39
 283 42 283 42 286 42 c 0,40,41
 377 45 377 45 430.5 91 c 128,-1,42
 484 137 484 137 484 187.5 c 128,-1,43
 484 238 484 238 464 258 c 0,44,45
 421 301 421 301 391 310 c 0,46,47
 244 354 244 354 162 394 c 0,48,49
 66 442 66 442 66 540 c 2,50,-1
 66 544 l 2,51,52
 66 593 66 593 88.5 633 c 128,-1,53
 111 673 111 673 147 695 c 0,54,55
 220 739 220 739 293 739 c 128,-1,56
 366 739 366 739 428 707 c 1,0,1
EndSplineSet
Validated: 1
EndChar

StartChar: T
Encoding: 84 84 55
Width: 773
GlyphClass: 2
Flags: W
LayerCount: 2
Fore
SplineSet
431 644 m 1,0,-1
 431 86 l 1,1,2
 449 50 449 50 467 48 c 1,3,-1
 578 48 l 1,4,-1
 578 0 l 1,5,-1
 194 0 l 1,6,-1
 194 46 l 1,7,-1
 289 46 l 1,8,9
 307 48 307 48 319 61 c 128,-1,10
 331 74 331 74 335 90 c 1,11,-1
 335 660 l 1,12,13
 325 682 325 682 304 688 c 1,14,15
 84 688 84 688 84 590 c 2,16,-1
 84 556 l 1,17,-1
 40 556 l 1,18,-1
 40 736 l 1,19,-1
 733 736 l 1,20,-1
 733 556 l 1,21,-1
 689 556 l 1,22,-1
 689 590 l 2,23,24
 689 688 689 688 579 688 c 2,25,-1
 461 688 l 1,26,27
 435 674 435 674 431 644 c 1,0,-1
EndSplineSet
Validated: 1
EndChar
StartChar: U
Encoding: 85 85 56
Width: 859
GlyphClass: 2
Flags: W
LayerCount: 2
Fore
SplineSet
95 695 m 1,0,-1
 40 695 l 1,1,-1
 40 740 l 1,2,-1
 348 740 l 1,3,-1
 348 695 l 1,4,-1
 288 695 l 2,5,6
 267 695 267 695 258.5 683.5 c 128,-1,7
 250 672 250 672 250 662 c 2,8,-1
 250 280 l 2,9,10
 250 59 250 59 450 59 c 0,11,12
 646 59 646 59 655 280 c 1,13,-1
 655 661 l 2,14,15
 655 671 655 671 645.5 681.5 c 128,-1,16
 636 692 636 692 618 695 c 1,17,-1
 558 695 l 1,18,-1
 558 740 l 1,19,-1
 819 740 l 1,20,-1
 819 695 l 1,21,-1
 769 695 l 1,22,23
 755 693 755 693 734.5 678.5 c 128,-1,24
 714 664 714 664 714 649 c 2,25,-1
 714 280 l 2,26,27
 714 0 714 0 447 0 c 0,28,29
 150 0 150 0 150 280 c 2,30,-1
 150 649 l 2,31,32
 150 687 150 687 95 695 c 1,0,-1
EndSplineSet
EndChar

StartChar: V
Encoding: 86 86 57
Width: 859
GlyphClass: 2
Flags: W
LayerCount: 2
Fore
SplineSet
95 695 m 1,0,-1
 40 695 l 1,1,-1
 40 740 l 1,2,-1
 348 740 l 1,3,-1
 348 695 l 1,4,-1
 288 695 l 2,5,6
 267 695 267 695 258.5 683.5 c 128,-1,7
 250 672 250 672 250 662 c 2,8,-1
 250 649 l 1,9,-1
 453 80 l 1,10,-1
 656 649 l 1,11,-1
 656 661 l 2,12,13
 656 671 656 671 646 681.5 c 128,-1,14
 636 692 636 692 618 695 c 1,15,-1
 558 695 l 1,16,-1
 558 740 l 1,17,-1
 819 740 l 1,18,-1
 819 695 l 1,19,-1
 769 695 l 1,20,21
 751 692 751 692 736 679 c 0,22,23
 720 666 720 666 714 649 c 2,24,-1
 482 0 l 1,25,-1
 382 0 l 1,26,-1
 150 649 l 2,27,28
 136 689 136 689 95 695 c 1,0,-1
EndSplineSet
EndChar
StartChar: W
Encoding: 87 87 58
Width: 1120
GlyphClass: 2
Flags: W
LayerCount: 2
Fore
SplineSet
95 695 m 1,0,-1
 40 695 l 1,1,-1
 40 740 l 1,2,-1
 348 740 l 1,3,-1
 348 695 l 1,4,-1
 288 695 l 2,5,6
 267 695 267 695 258.5 683.5 c 128,-1,7
 250 672 250 672 250 662 c 2,8,-1
 250 649 l 1,9,-1
 442 199 l 1,10,-1
 573.935546875 514.040039062 l 1,11,-1
 603 444 l 1,12,-1
 416 0 l 1,13,-1
 150 649 l 2,14,15
 134 689 134 689 95 695 c 1,0,-1
504 649 m 2,16,17
 490.107576634 689.98264893 490.107576634 689.98264893 459 695 c 1,18,-1
 416 695 l 1,19,-1
 416 740 l 1,20,-1
 690 740 l 1,21,-1
 690 695 l 1,22,-1
 642 695 l 2,23,24
 621 695 621 695 612.5 683.5 c 128,-1,25
 604 672 604 672 604 662 c 2,26,-1
 604 649 l 1,27,-1
 745 221 l 1,28,-1
 910 649 l 1,29,-1
 910 661 l 2,30,31
 910 671 910 671 898.5 683 c 128,-1,32
 887 695 887 695 872 695 c 2,33,-1
 812 695 l 1,34,-1
 812 740 l 1,35,-1
 1075 740 l 1,36,-1
 1075 695 l 1,37,-1
 1025 695 l 2,38,39
 1011 695 1011 695 993.63671875 679.625 c 0,40,41
 975.526747798 663.580728946 975.526747798 663.580728946 970 649 c 2,42,-1
 724 0 l 1,43,-1
 504 649 l 2,16,17
EndSplineSet
EndChar

StartChar: X
Encoding: 88 88 59
Width: 940
GlyphClass: 2
Flags: W
LayerCount: 2
Fore
SplineSet
248 75 m 1,0,1
 256 45 256 45 291 45 c 2,2,-1
 347 45 l 1,3,-1
 347 0 l 1,4,-1
 40 0 l 1,5,-1
 40 47 l 1,6,-1
 133 48 l 1,7,8
 167 52 167 52 181 75 c 1,9,-1
 413 369 l 1,10,-1
 196 652 l 1,11,12
 182 677 182 677 134 681 c 1,13,-1
 57 682 l 1,14,-1
 57 727 l 1,15,-1
 412 727 l 1,16,-1
 412 682 l 1,17,-1
 360 682 l 1,18,19
 321 675 321 675 316 652 c 1,20,-1
 474 446 l 1,21,-1
 636 652 l 1,22,23
 631 675 631 675 591 682 c 1,24,-1
 537 682 l 1,25,-1
 537 727 l 1,26,-1
 843 727 l 1,27,-1
 843 680 l 1,28,-1
 750 680 l 1,29,30
 718 676 718 676 703 652 c 1,31,-1
 507 403 l 1,32,-1
 759 75 l 1,33,34
 786 51 786 51 824 46 c 1,35,-1
 900 45 l 1,36,-1
 900 0 l 1,37,-1
 541 0 l 1,38,-1
 541 45 l 1,39,-1
 595 45 l 2,40,41
 631 45 631 45 639 75 c 1,42,-1
 446 326 l 1,43,-1
 248 75 l 1,0,1
EndSplineSet
EndChar
StartChar: Y
Encoding: 89 89 60
Width: 866
GlyphClass: 2
Flags: W
LayerCount: 2
Fore
SplineSet
489 75 m 1,0,1
 496 45 496 45 535 45 c 2,2,-1
 600 45 l 1,3,-1
 600 0 l 1,4,-1
 282 0 l 1,5,-1
 282 45 l 1,6,-1
 353 46 l 1,7,8
 381 50 381 50 394 75 c 1,9,-1
 394 322 l 1,10,-1
 179 652 l 1,11,12
 165 677 165 677 117 681 c 1,13,-1
 40 682 l 1,14,-1
 40 727 l 1,15,-1
 395 727 l 1,16,-1
 395 682 l 1,17,-1
 343 682 l 1,18,19
 304 675 304 675 299 652 c 1,20,-1
 457 396 l 1,21,-1
 619 652 l 1,22,23
 614 675 614 675 574 682 c 1,24,-1
 520 682 l 1,25,-1
 520 727 l 1,26,-1
 826 727 l 1,27,-1
 826 680 l 1,28,-1
 733 680 l 1,29,30
 701 676 701 676 686 653 c 2,31,-1
 489 352 l 1,32,-1
 489 75 l 1,0,1
EndSplineSet
Validated: 1
EndChar
StartChar: Z
Encoding: 90 90 61
Width: 700
GlyphClass: 2
Flags: W
LayerCount: 2
Fore
SplineSet
201 91 m 1,0,1
 194 78 194 78 194 69 c 0,2,3
 194 48 194 48 232 48 c 2,4,5
 506 48 l 2,6,7
 615 48 615 48 615 145 c 2,8,-1
 615 179 l 1,9,-1
 660 179 l 1,10,-1
 660 0 l 1,11,-1
 40 0 l 1,12,-1
 40 48 l 1,13,14
 69 52 69 52 81 75 c 1,15,-1
 489 637 l 1,16,17
 483 671 483 671 450 680 c 1,18,-1
 230 680 l 2,19,20
 130 680 130 680 130 582 c 2,21,-1
 130 548 l 1,22,-1
 85 548 l 1,23,-1
 85 727 l 1,24,-1
 647 727 l 1,25,-1
 647 680 l 1,26,-1
 643 680 l 1,27,28
 626 677 626 677 607 642 c 1,29,-1
 201 91 l 1,0,1
EndSplineSet
Validated: 1
EndChar

StartChar: bracketleft
Encoding: 91 91 62
Width: 399
GlyphClass: 2
Flags: W
LayerCount: 2
Fore
SplineSet
80 -200 m 1,0,-1
 80 731 l 1,1,-1
 349 731 l 1,2,-1
 349 687 l 1,3,-1
 187 687 l 1,4,-1
 187 -156 l 1,5,-1
 349 -156 l 1,6,-1
 349 -200 l 1,7,-1
 80 -200 l 1,0,-1
EndSplineSet
EndChar

StartChar: backslash
Encoding: 92 92 63
Width: 550
GlyphClass: 2
Flags: W
LayerCount: 2
Fore
SplineSet
35 800 m 1,0,-1
 99 800 l 1,1,-1
 515 -120 l 1,2,-1
 451 -120 l 1,3,-1
 35 800 l 1,0,-1
EndSplineSet
EndChar
StartChar: bracketright
Encoding: 93 93 64
Width: 399
GlyphClass: 2
Flags: W
LayerCount: 2
Fore
SplineSet
319 -200 m 1,0,-1
 50 -200 l 1,1,-1
 50 -156 l 1,2,-1
 212 -156 l 1,3,-1
 212 687 l 1,4,-1
 50 687 l 1,5,-1
 50 731 l 1,6,-1
 319 731 l 1,7,-1
 319 -200 l 1,0,-1
EndSplineSet
EndChar

StartChar: asciicircum
Encoding: 94 94 65
Width: 500
GlyphClass: 2
Flags: W
LayerCount: 2
Fore
SplineSet
250 642 m 1,0,-1
 79 510 l 1,1,-1
 47 510 l 1,2,-1
 220 732 l 1,3,-1
 281 732 l 1,4,-1
 453 510 l 1,5,-1
 423 507 l 1,6,-1
 250 642 l 1,0,-1
EndSplineSet
Validated: 1
EndChar
StartChar: underscore
Encoding: 95 95 66
Width: 500
GlyphClass: 2
Flags: W
LayerCount: 2
Fore
SplineSet
468 45 m 1,0,-1
 468 0 l 1,1,-1
 32 0 l 1,2,-1
 32 45 l 1,3,-1
 468 45 l 1,0,-1
EndSplineSet
EndChar

StartChar: grave
Encoding: 96 96 67
Width: 268
GlyphClass: 2
Flags: W
LayerCount: 2
Fore
SplineSet
126 742 m 1,0,1
 166 673 166 673 230 507 c 1,2,-1
 200 490 l 1,3,4
 90 629 90 629 50 698 c 1,5,6
 49 705 49 705 49 709 c 0,7,8
 50 737 50 737 71 749 c 0,9,10
 82 755 82 755 95.5 755 c 128,-1,11
 109 755 109 755 126 742 c 1,0,1
EndSplineSet
Validated: 1
EndChar

StartChar: a
Encoding: 97 97 68
Width: 559
GlyphClass: 2
Flags: W
LayerCount: 2
Fore
SplineSet
539 53 m 1,0,1
 523 -13 523 -13 469.5 -13 c 128,-1,2
 416 -13 416 -13 394 58 c 1,3,4
 339 -14 339 -14 258 -14 c 2,5,-1
 257 -14 l 2,6,7
 162 -14 162 -14 101 28.5 c 128,-1,8
 40 71 40 71 40 135 c 2,9,-1
 40 138 l 2,10,11
 40 250 40 250 166 309 c 0,12,13
 236 342 236 342 287 342 c 128,-1,14
 338 342 338 342 394 318 c 1,15,-1
 394 328 l 1,16,-1
 395 352 l 1,17,18
 395 407 395 407 377 425 c 1,19,20
 338 461 338 461 269 461 c 128,-1,21
 200 461 200 461 85 389 c 1,22,-1
 83 467 l 1,23,24
 179 515 179 515 279 515 c 2,25,-1
 284 515 l 2,26,27
 355 515 355 515 416 471 c 0,28,29
 448 448 448 448 467.5 410 c 128,-1,30
 487 372 487 372 487 325 c 2,31,-1
 487 66 l 1,32,33
 493 59 493 59 502 59 c 0,34,35
 504 59 504 59 539 98 c 1,36,-1
 539 53 l 1,0,1
394 239 m 1,37,38
 386 284 386 284 311 284 c 2,39,-1
 305 284 l 2,40,41
 245 284 245 284 192 239 c 128,-1,42
 139 194 139 194 139 143 c 0,43,44
 139 136 139 136 140 129 c 0,45,46
 150 47 150 47 261 47 c 0,47,48
 313 47 313 47 343 72 c 128,-1,49
 373 97 373 97 380 114 c 128,-1,50
 387 131 387 131 390.5 157 c 128,-1,51
 394 183 394 183 394 191 c 2,52,-1
 394 239 l 1,37,38
EndSplineSet
EndChar
StartChar: b
Encoding: 98 98 69
Width: 568
GlyphClass: 2
Flags: W
LayerCount: 2
Fore
SplineSet
144 439 m 1,0,1
 203 513 203 513 301 513 c 128,-1,2
 399 513 399 513 463.5 444 c 128,-1,3
 528 375 528 375 528 254.5 c 128,-1,4
 528 134 528 134 463.5 59.5 c 128,-1,5
 399 -15 399 -15 301.5 -15 c 128,-1,6
 204 -15 204 -15 144 63 c 1,7,-1
 144 -3 l 1,8,-1
 60 -3 l 1,9,-1
 60 640 l 1,10,-1
 -15 640 l 1,11,-1
 -15 660 l 1,12,-1
 104 740 l 1,13,-1
 144 740 l 1,14,-1
 144 439 l 1,0,1
390 105 m 128,-1,16
 428 160 428 160 429 251 c 1,17,18
 427 345 427 345 387 397 c 128,-1,19
 347 449 347 449 284 449 c 0,20,21
 153 448 153 448 144 282 c 1,22,-1
 144 228 l 1,23,24
 159 50 159 50 284 50 c 0,25,15
 352 50 352 50 390 105 c 128,-1,16
EndSplineSet
Validated: 1
EndChar
StartChar: c
Encoding: 99 99 70
Width: 491
GlyphClass: 2
Flags: W
LayerCount: 2
Fore
SplineSet
443 69 m 1,0,-1
 475 49 l 1,1,2
 404 -11 404 -11 333 -11 c 2,3,4
 320 -11 l 2,5,6
 194 -11 194 -11 130 49.5 c 0,7,8
 45 131 45 131 45 249.5 c 256,9,10
 45 376 45 376 130.5 445 c 0,11,12
 206 506 206 506 324 506 c 256,13,14
 435 506 435 506 463 453 c 1,15,-1
 437 381 l 1,16,17
 419 442 419 442 320 442 c 128,-1,18
 221 442 221 442 182.5 385 c 128,-1,19
 144 328 144 328 144 247.5 c 256,20,21
 144 152 144 152 197.5 98.5 c 128,-1,22
 251 45 251 45 350 45 c 0,23,24
 399 45 399 45 443 69 c 1,0,-1
EndSplineSet
EndChar
StartChar: d
Encoding: 100 100 71
Width: 568
GlyphClass: 2
Flags: W
LayerCount: 2
Fore
SplineSet
40 254.5 m 128,-1,1
 40 375 40 375 104.5 444 c 128,-1,2
 169 513 169 513 267 513 c 128,-1,3
 365 513 365 513 424 439 c 1,4,-1
 424 640 l 1,5,-1
 349 640 l 1,6,-1
 349 660 l 1,7,-1
 468 740 l 1,8,-1
 508 740 l 1,9,-1
 508 66 l 1,10,11
 514 59 514 59 523 59 c 0,12,13
 529 59 529 59 560 98 c 1,14,-1
 560 53 l 1,15,16
 544 -13 544 -13 495 -13 c 128,-1,17
 446 -13 446 -13 424 58 c 1,18,-1
 425 61 l 1,19,-1
 424 63 l 1,20,21
 364 -15 364 -15 266.5 -15 c 128,-1,22
 169 -15 169 -15 104.5 59.5 c 128,-1,0
 40 134 40 134 40 254.5 c 128,-1,1
178 105 m 128,-1,24
 216 50 216 50 284 50 c 0,25,26
 409 50 409 50 424 228 c 1,27,-1
 424 282 l 1,28,29
 415 448 415 448 284 449 c 0,30,31
 221 449 221 449 181 397 c 128,-1,32
 141 345 141 345 139 251 c 1,33,23
 140 160 140 160 178 105 c 128,-1,24
EndSplineSet
EndChar
StartChar: e
Encoding: 101 101 72
Width: 540
GlyphClass: 2
Flags: W
LayerCount: 2
Fore
SplineSet
426 284 m 1,0,1
 423 448 423 448 292 448 c 2,2,-1
 290 448 l 2,3,4
 147 448 147 448 124 284 c 1,5,-1
 426 284 l 1,0,1
483 34 m 1,6,7
 395 -15 395 -15 293 -15 c 0,8,9
 291 -15 291 -15 289 -15 c 0,10,11
 168 -15 168 -15 98.5 55 c 128,-1,12
 29 125 29 125 29 249 c 128,-1,13
 29 373 29 373 97 439 c 1,14,15
 172 510 172 510 286.5 510 c 128,-1,16
 401 510 401 510 454.5 438 c 128,-1,17
 508 366 508 366 508 256 c 2,18,-1
 508 232 l 1,19,-1
 124 232 l 1,20,21
 130 154 130 154 177 97 c 1,22,23
 227 39 227 39 317 39 c 128,-1,24
 407 39 407 39 487 98 c 1,25,-1
 483 34 l 1,6,7
EndSplineSet
EndChar
StartChar: f
Encoding: 102 102 73
Width: 410
GlyphClass: 2
Flags: W
LayerCount: 2
Fore
SplineSet
440 722 m 5,0,1
 408 749 408 749 358.5 749 c 260,2,3
 245 749 245 749 245 650 c 6,4,-1
 245 468 l 1,5,-1
 382 468 l 1,6,-1
 382 425 l 1,7,-1
 245 425 l 1,8,-1
 245 75 l 1,9,10
 252 45 252 45 291 45 c 2,11,-1
 353 45 l 1,12,-1
 353 0 l 1,13,-1
 47 0 l 1,14,-1
 47 45 l 1,15,-1
 115 46 l 1,16,17
 143 50 143 50 156 75 c 1,18,-1
 156 425 l 1,19,-1
 30 425 l 1,20,-1
 30 468 l 1,21,-1
 156 468 l 1,22,-1
 156 626 l 6,23,24
 156 790 156 790 319.5 790 c 260,25,26
 389 790 389 790 440 764 c 5,27,-1
 440 722 l 5,0,1
EndSplineSet
EndChar
StartChar: g
Encoding: 103 103 74
Width: 531
GlyphClass: 2
Flags: W
LayerCount: 2
Fore
SplineSet
147 11 m 1,0,1
 113 -2 113 -2 113 -64 c 0,2,3
 113 -78 113 -78 132 -104 c 128,-1,4
 151 -130 151 -130 276 -130 c 0,5,6
 320 -130 320 -130 348 -121 c 0,7,8
 424 -94 424 -94 424 -50 c 0,9,10
 424 -27 424 -27 411.5 -15.5 c 128,-1,11
 399 -4 399 -4 376 2 c 1,12,13
 345 14 345 14 308.5 14 c 128,-1,14
 272 14 272 14 246 10.5 c 128,-1,15
 220 7 220 7 195.5 7 c 128,-1,16
 171 7 171 7 147 11 c 1,0,1
267 92 m 1,17,-1
 338 93 l 1,18,19
 434 93 434 93 475 27 c 0,20,21
 491 2 491 2 491 -23 c 128,-1,22
 491 -48 491 -48 470 -90 c 1,23,24
 434 -156 434 -156 347 -169 c 0,25,26
 300 -176 300 -176 229 -176 c 128,-1,27
 158 -176 158 -176 113 -160 c 1,28,29
 51 -140 51 -140 37 -79 c 0,30,31
 35 -70 35 -70 35 -55.5 c 128,-1,32
 35 -41 35 -41 51.5 -16 c 128,-1,33
 68 9 68 9 107 30 c 1,34,35
 84 41 84 41 70 64 c 128,-1,36
 56 87 56 87 56 103.5 c 128,-1,37
 56 120 56 120 62 135 c 0,38,39
 75 171 75 171 102 184 c 0,40,41
 112 188 112 188 123 192 c 1,42,43
 109 202 109 202 96 214 c 0,44,45
 40 266 40 266 40 339.5 c 128,-1,46
 40 413 40 413 96.5 465.5 c 128,-1,47
 153 518 153 518 234 518 c 0,48,49
 279 518 279 518 318 501 c 1,50,-1
 479 501 l 1,51,-1
 479 458 l 1,52,-1
 379 458 l 1,53,54
 428 408 428 408 428 337 c 128,-1,55
 428 266 428 266 371 213.5 c 128,-1,56
 314 161 314 161 234 161 c 0,57,58
 193 161 193 161 159 174 c 1,59,60
 147 169 147 169 135.5 158 c 128,-1,61
 124 147 124 147 124 134 c 128,-1,62
 124 121 124 121 135 108 c 1,63,64
 151 92 151 92 267 92 c 1,17,-1
233.5 474 m 128,-1,66
 189 474 189 474 158.5 434.5 c 128,-1,67
 128 395 128 395 128 339.5 c 128,-1,68
 128 284 128 284 158.5 244.5 c 128,-1,69
 189 205 189 205 233.5 205 c 128,-1,70
 278 205 278 205 308.5 244.5 c 128,-1,71
 339 284 339 284 339 339.5 c 128,-1,72
 339 395 339 395 308.5 434.5 c 128,-1,65
 278 474 278 474 233.5 474 c 128,-1,66
EndSplineSet
EndChar

StartChar: h
Encoding: 104 104 75
Width: 603
GlyphClass: 2
Flags: W
LayerCount: 2
Fore
SplineSet
168 406 m 1,0,1
 215 503 215 503 322 503 c 0,2,3
 410 503 410 503 462 446.5 c 128,-1,4
 514 390 514 390 514 291 c 2,5,-1
 514 75 l 1,6,7
 521 45 521 45 540 45 c 2,8,-1
 583 45 l 1,9,-1
 583 0 l 1,10,-1
 357 0 l 1,11,-1
 357 45 l 1,12,-1
 405 46 l 1,13,14
 408 50 408 50 426 75 c 1,15,-1
 426 274 l 2,16,17
 426 332 426 332 403.5 392 c 128,-1,18
 381 452 381 452 322.5 452 c 128,-1,19
 264 452 264 452 216 406.5 c 128,-1,20
 168 361 168 361 168 297 c 2,21,-1
 168 75 l 1,22,23
 175 45 175 45 194 45 c 2,24,-1
 237 45 l 1,25,-1
 237 0 l 1,26,-1
 16 0 l 1,27,-1
 16 45 l 1,28,-1
 64 46 l 1,29,30
 67 50 67 50 85 75 c 1,31,-1
 85 640 l 1,32,-1
 10 640 l 1,33,-1
 10 660 l 1,34,-1
 129 740 l 1,35,-1
 168 740 l 1,36,-1
 168 406 l 1,0,1
EndSplineSet
Validated: 1
EndChar
StartChar: i
Encoding: 105 105 76
Width: 285
GlyphClass: 2
Flags: W
LayerCount: 2
Fore
SplineSet
185 75 m 1,0,1
 192 45 192 45 221 45 c 2,2,-1
 269 45 l 1,3,-1
 269 0 l 1,4,-1
 18 0 l 1,5,-1
 18 45 l 1,6,-1
 71 46 l 1,7,8
 91 50 91 50 102 75 c 1,9,-1
 102 420 l 1,10,-1
 27 420 l 1,11,-1
 27 440 l 1,12,-1
 146 520 l 1,13,-1
 185 520 l 1,14,-1
 185 75 l 1,0,1
79 674 m 128,-1,16
 79 701 79 701 98.5 720.5 c 128,-1,17
 118 740 118 740 145 740 c 128,-1,18
 172 740 172 740 191.5 720.5 c 128,-1,19
 211 701 211 701 211 674 c 128,-1,20
 211 647 211 647 191.5 627.5 c 128,-1,21
 172 608 172 608 145 608 c 128,-1,22
 118 608 118 608 98.5 627.5 c 128,-1,15
 79 647 79 647 79 674 c 128,-1,16
EndSplineSet
Validated: 1
EndChar
StartChar: j
Encoding: 106 106 77
Width: 242
GlyphClass: 2
Flags: W
LayerCount: 2
Fore
SplineSet
53 674 m 128,-1,1
 53 701 53 701 72.5 720.5 c 128,-1,2
 92 740 92 740 119 740 c 128,-1,3
 146 740 146 740 165.5 720.5 c 128,-1,4
 185 701 185 701 185 674 c 128,-1,5
 185 647 185 647 165.5 627.5 c 128,-1,6
 146 608 146 608 119 608 c 128,-1,7
 92 608 92 608 72.5 627.5 c 128,-1,0
 53 647 53 647 53 674 c 128,-1,1
162 520 m 1,8,-1
 162 -12 l 2,9,10
 162 -85 162 -85 112 -138 c 0,11,12
 67 -187 67 -187 -89 -176 c 1,13,14
 -88 -165 -88 -165 -88 -163 c 0,15,16
 -91 -139 -91 -139 -100 -125 c 1,17,18
 32 -125 32 -125 55.5 -100 c 128,-1,19
 79 -75 79 -75 79 -40 c 2,20,-1
 79 420 l 1,21,-1
 4 420 l 1,22,-1
 4 440 l 1,23,-1
 123 520 l 1,24,-1
 162 520 l 1,8,-1
EndSplineSet
EndChar

StartChar: k
Encoding: 107 107 78
Width: 595
GlyphClass: 2
Flags: W
LayerCount: 2
Fore
SplineSet
178 75 m 1,0,1
 185 45 185 45 204 45 c 2,2,-1
 247 45 l 1,3,-1
 247 0 l 1,4,-1
 26 0 l 1,5,-1
 26 45 l 1,6,-1
 74 46 l 1,7,8
 77 50 77 50 95 75 c 1,9,-1
 95 640 l 1,10,-1
 20 640 l 1,11,-1
 20 660 l 1,12,-1
 139 740 l 1,13,-1
 178 740 l 1,14,-1
 178 267 l 1,15,-1
 383 457 l 1,16,-1
 317 457 l 1,17,-1
 317 500 l 1,18,-1
 524 500 l 1,19,-1
 524 457 l 1,20,-1
 453 457 l 1,21,-1
 315 329 l 1,22,-1
 492 75 l 1,23,24
 509 45 509 45 532 45 c 2,25,-1
 578 45 l 1,26,-1
 578 0 l 1,27,-1
 340 0 l 1,28,-1
 340 45 l 1,29,-1
 384 46 l 1,30,31
 395 56 395 56 390 70 c 1,32,-1
 251 269 l 1,33,-1
 178 201 l 1,34,-1
 178 75 l 1,0,1
EndSplineSet
Validated: 1
EndChar
StartChar: l
Encoding: 108 108 79
Width: 267
GlyphClass: 2
Flags: W
LayerCount: 2
Fore
SplineSet
178 740 m 1,0,-1
 178 75 l 1,1,2
 185 45 185 45 204 45 c 2,3,-1
 257 45 l 1,4,-1
 257 0 l 1,5,-1
 16 0 l 1,6,-1
 16 45 l 1,7,-1
 74 46 l 1,8,9
 77 50 77 50 95 75 c 1,10,-1
 95 640 l 1,11,-1
 20 640 l 1,12,-1
 20 660 l 1,13,-1
 139 740 l 1,14,-1
 178 740 l 1,0,-1
EndSplineSet
Validated: 1
EndChar

StartChar: m
Encoding: 109 109 80
Width: 882
GlyphClass: 2
Flags: W
LayerCount: 2
Fore
SplineSet
461 421 m 1,0,1
 507 511 507 511 600.5 511 c 128,-1,2
 694 511 694 511 741 453 c 128,-1,3
 788 395 788 395 788 310 c 2,4,-1
 788 75 l 1,5,6
 795 45 795 45 824 45 c 2,7,-1
 862 45 l 1,8,-1
 862 0 l 1,9,-1
 631 0 l 1,10,-1
 631 45 l 1,11,-1
 674 46 l 1,12,-1
 675 46 l 2,13,14
 687 46 687 46 705 75 c 1,15,-1
 705 310 l 2,16,17
 705 368 705 368 679.5 412 c 128,-1,18
 654 456 654 456 604 456 c 128,-1,19
 554 456 554 456 520 424 c 128,-1,20
 486 392 486 392 486 348 c 2,21,-1
 486 75 l 1,22,23
 493 45 493 45 522 45 c 2,24,-1
 560 45 l 1,25,-1
 560 0 l 1,26,-1
 329 0 l 1,27,-1
 329 45 l 1,28,-1
 372 46 l 1,29,-1
 373 46 l 2,30,31
 385 46 385 46 403 75 c 1,32,-1
 403 310 l 2,33,34
 403 368 403 368 378.5 412 c 128,-1,35
 354 456 354 456 303.5 456 c 128,-1,36
 253 456 253 456 218.5 424 c 128,-1,37
 184 392 184 392 184 348 c 2,38,-1
 184 75 l 1,39,40
 191 45 191 45 220 45 c 2,41,-1
 258 45 l 1,42,-1
 258 0 l 1,43,-1
 27 0 l 1,44,-1
 27 45 l 1,45,-1
 70 46 l 1,46,47
 90 50 90 50 101 75 c 1,48,-1
 101 420 l 1,49,-1
 26 420 l 1,50,-1
 26 440 l 1,51,-1
 145 520 l 1,52,-1
 184 520 l 1,53,-1
 184 449 l 1,54,55
 232 510 232 510 296 511 c 1,56,-1
 299 511 l 2,57,58
 413 511 413 511 461 421 c 1,0,1
EndSplineSet
Validated: 1
EndChar
StartChar: n
Encoding: 110 110 81
Width: 620
GlyphClass: 2
Flags: W
LayerCount: 2
Fore
SplineSet
184 358 m 1,0,1
 219 511 219 511 343 511 c 0,2,3
 520 510 520 510 520 340 c 2,4,-1
 520 75 l 1,5,6
 527 45 527 45 556 45 c 2,7,-1
 594 45 l 1,8,-1
 594 0 l 1,9,-1
 353 0 l 1,10,-1
 353 45 l 1,11,-1
 396 46 l 1,12,13
 416 50 416 50 427 75 c 1,14,-1
 427 302 l 2,15,16
 427 456 427 456 343 456 c 0,17,18
 184 456 184 456 184 140 c 2,19,-1
 184 75 l 1,20,21
 191 45 191 45 220 45 c 2,22,-1
 258 45 l 1,23,-1
 258 0 l 1,24,-1
 27 0 l 1,25,-1
 27 45 l 1,26,-1
 70 46 l 1,27,28
 90 50 90 50 101 75 c 1,29,-1
 101 440 l 1,30,-1
 26 440 l 1,31,-1
 26 460 l 1,32,-1
 145 520 l 1,33,-1
 184 520 l 1,34,-1
 184 358 l 1,0,1
EndSplineSet
EndChar
StartChar: o
Encoding: 111 111 82
Width: 550
GlyphClass: 2
Flags: W
LayerCount: 2
Fore
SplineSet
374.5 412.5 m 0,0,1
 334 468 334 468 265 468 c 256,2,3
 201 468 201 468 162.5 410.5 c 0,4,5
 128 359 128 359 128 244.5 c 256,6,7
 128 135 128 135 169.5 80.5 c 0,8,9
 210 27 210 27 277.5 27 c 256,10,11
 344 27 344 27 380 83 c 0,12,13
 416 137 416 137 416 247 c 256,14,15
 416 356 416 356 374.5 412.5 c 0,0,1
100 59 m 128,-1,17
 30 137 30 137 30 246 c 128,-1,18
 30 355 30 355 100 435 c 128,-1,19
 170 515 170 515 271.5 515 c 128,-1,20
 373 515 373 515 446.5 435 c 128,-1,21
 520 355 520 355 520 246 c 256,22,23
 520 137 520 137 446.5 59 c 128,-1,24
 373 -19 373 -19 271.5 -19 c 128,-1,16
 170 -19 170 -19 100 59 c 128,-1,17
EndSplineSet
EndChar
StartChar: p
Encoding: 112 112 83
Width: 585
GlyphClass: 2
Flags: W
LayerCount: 2
Fore
SplineSet
186 447 m 1,0,1
 241 514 241 514 329 515 c 1,2,-1
 332 515 l 2,3,4
 436 515 436 515 500.5 440.5 c 128,-1,5
 565 366 565 366 565 245.5 c 128,-1,6
 565 125 565 125 499.5 55 c 128,-1,7
 434 -15 434 -15 332 -15 c 2,8,-1
 329 -15 l 1,9,10
 242 -14 242 -14 185 51 c 1,11,-1
 185 -95 l 1,12,13
 192 -125 192 -125 221 -125 c 2,14,-1
 269 -125 l 1,15,-1
 269 -170 l 1,16,-1
 18 -170 l 1,17,-1
 18 -125 l 1,18,-1
 71 -124 l 1,19,20
 91 -120 91 -120 102 -95 c 1,21,-1
 102 408 l 1,22,-1
 27 408 l 1,23,-1
 27 428 l 1,24,-1
 146 508 l 1,25,-1
 185 508 l 1,26,-1
 185 507 l 1,27,-1
 186 508 l 1,28,-1
 186 447 l 1,0,1
422 395 m 128,-1,30
 386 450 386 450 321 450 c 0,31,32
 202 450 202 450 188 272 c 1,33,-1
 188 218 l 1,34,35
 197 52 197 52 321 51 c 0,36,37
 381 51 381 51 419 103 c 128,-1,38
 457 155 457 155 459 249 c 1,39,29
 458 340 458 340 422 395 c 128,-1,30
EndSplineSet
EndChar

StartChar: q
Encoding: 113 113 84
Width: 585
GlyphClass: 2
Flags: W
LayerCount: 2
Fore
SplineSet
397 447 m 1,0,1
 397 447 397 447 397 508 c 1,2,-1
 398 507 l 1,3,-1
 398 508 l 1,4,-1
 481 508 l 1,5,-1
 481 -95 l 1,6,7
 492 -120 492 -120 512 -124 c 1,8,-1
 565 -125 l 1,9,-1
 565 -170 l 1,10,-1
 314 -170 l 1,11,-1
 314 -125 l 1,12,-1
 362 -125 l 2,13,14
 391 -125 391 -125 398 -95 c 1,15,-1
 398 51 l 1,16,17
 341 -14 341 -14 254 -15 c 1,18,-1
 251 -15 l 2,19,20
 149 -15 149 -15 83.5 55 c 128,-1,21
 18 125 18 125 18 245.5 c 128,-1,22
 18 366 18 366 82.5 440.5 c 128,-1,23
 147 515 147 515 251 515 c 2,24,-1
 254 515 l 1,25,26
 342 514 342 514 397 447 c 1,0,1
161 395 m 128,-1,28
 125 340 125 340 124 249 c 1,29,30
 126 155 126 155 164 103 c 128,-1,31
 202 51 202 51 262 51 c 0,32,33
 386 52 386 52 395 218 c 1,34,-1
 395 272 l 1,35,36
 381 450 381 450 262 450 c 0,37,27
 197 450 197 450 161 395 c 128,-1,28
EndSplineSet
EndChar
StartChar: r
Encoding: 114 114 85
Width: 439
GlyphClass: 2
Flags: W
LayerCount: 2
Fore
SplineSet
334 526 m 0,1,2
 426 526 426 526 429 383 c 1,3,4
 407 370 l 1,5,6
 390 448 390 448 339 448 c 0,7,8
 185 448 185 448 185 256 c 2,9,-1
 185 75 l 1,10,11
 192 45 192 45 221 45 c 2,12,-1
 269 45 l 1,13,-1
 269 0 l 1,14,-1
 18 0 l 1,15,-1
 18 45 l 1,16,-1
 71 46 l 1,17,18
 91 50 91 50 102 75 c 1,19,-1
 102 441 l 1,20,-1
 27 441 l 1,21,-1
 27 461 l 1,22,-1
 146 521 l 1,23,-1
 185 521 l 1,24,-1
 185 359 l 1,25,26
 211 526 211 526 334 526 c 0,1,2
EndSplineSet
EndChar

StartChar: s
Encoding: 115 115 86
Width: 530
GlyphClass: 2
Flags: W
LayerCount: 2
Fore
SplineSet
266 450 m 0,0,1
 209 450 209 450 176 429.5 c 128,-1,2
 143 409 143 409 143 390.5 c 128,-1,3
 143 372 143 372 165.5 343 c 128,-1,4
 188 314 188 314 280.5 295 c 128,-1,5
 373 276 373 276 410 258 c 0,6,7
 490 218 490 218 490 136 c 2,8,-1
 490 133 l 2,9,10
 490 71 490 71 433 31 c 128,-1,11
 376 -9 376 -9 276 -9 c 0,12,13
 221 -9 221 -9 166 17 c 1,14,-1
 167 15 l 1,15,-1
 169 12 l 1,16,-1
 168 12 l 1,17,18
 169 9 169 9 169 -1.5 c 128,-1,19
 169 -12 169 -12 175 -21 c 1,20,-1
 125 -21 l 1,21,-1
 39 130 l 1,22,-1
 67 153 l 1,23,-1
 88 126 l 1,24,-1
 155 79 l 1,25,26
 211 51 211 51 273 46.5 c 128,-1,27
 335 42 335 42 371.5 62 c 128,-1,28
 408 82 408 82 408 119 c 128,-1,29
 408 156 408 156 391 166 c 0,30,31
 346 193 346 193 328 193 c 0,32,33
 327 193 327 193 254 209.5 c 128,-1,34
 181 226 181 226 143 243.5 c 128,-1,35
 105 261 105 261 82.5 291.5 c 128,-1,36
 60 322 60 322 60 361.5 c 128,-1,37
 60 401 60 401 81 430.5 c 128,-1,38
 102 460 102 460 134 477 c 1,39,40
 247 533 247 533 348 490 c 1,41,42
 347 494 347 494 347 503.5 c 128,-1,43
 347 513 347 513 341 522 c 1,44,-1
 391 522 l 1,45,-1
 477 371 l 1,46,-1
 449 348 l 1,47,-1
 428 375 l 1,48,49
 334 450 334 450 266 450 c 0,0,1
EndSplineSet
EndChar
StartChar: t
Encoding: 116 116 87
Width: 369
GlyphClass: 2
Flags: W
LayerCount: 2
Fore
SplineSet
284 -9 m 6,0,1
 111 -9 111 -9 111 206 c 6,2,-1
 111 424 l 5,3,-1
 20 424 l 5,4,-1
 20 472 l 5,5,-1
 58 472 l 5,6,7
 132 476 132 476 142 596 c 5,8,-1
 196 658 l 5,9,-1
 196 472 l 5,10,-1
 314 472 l 5,11,-1
 314 424 l 5,12,-1
 196 424 l 5,13,-1
 196 165 l 6,14,15
 196 88 196 88 219.5 65.5 c 132,-1,16
 243 43 243 43 287 43 c 132,-1,17
 331 43 331 43 354 60 c 5,18,-1
 354 -3 l 5,19,20
 339 -9 339 -9 314 -9 c 6,21,-1
 284 -9 l 6,0,1
EndSplineSet
Validated: 1
EndChar
StartChar: u
Encoding: 117 117 88
Width: 540
GlyphClass: 2
Flags: W
LayerCount: 2
Fore
SplineSet
311 514 m 1,0,-1
 470 514 l 1,1,-1
 470 66 l 1,2,3
 476 59 476 59 485 59 c 0,4,5
 491 59 491 59 522 98 c 1,6,-1
 522 53 l 1,7,8
 506 -13 506 -13 457 -13 c 128,-1,9
 408 -13 408 -13 386 58 c 1,10,-1
 386 111 l 1,11,12
 362 -15 362 -15 232 -15 c 0,13,14
 65 -14 65 -14 65 170 c 2,15,-1
 65 469 l 1,16,-1
 -10 469 l 1,17,-1
 -10 514 l 1,18,-1
 148 514 l 1,19,-1
 148 212 l 1,20,21
 150 42 150 42 240 42 c 0,22,23
 386 42 386 42 386 276 c 2,24,-1
 386 469 l 1,25,-1
 311 469 l 1,26,-1
 311 514 l 1,0,-1
EndSplineSet
EndChar
StartChar: v
Encoding: 118 118 89
Width: 575
GlyphClass: 2
Flags: W
LayerCount: 2
Fore
SplineSet
60 457 m 1,0,-1
 20 457 l 1,1,-1
 20 502 l 1,2,-1
 258 502 l 1,3,-1
 258 457 l 1,4,-1
 213 457 l 1,5,-1
 213 456 l 1,6,7
 192 456 192 456 191 444.5 c 128,-1,8
 190 433 190 433 190 424 c 2,9,-1
 190 411 l 1,10,-1
 306 121 l 1,11,-1
 417 411 l 1,12,-1
 416 411 l 1,13,-1
 416 423 l 2,14,15
 416 432 416 432 414 442.5 c 128,-1,16
 412 453 412 453 394 456 c 1,17,-1
 394 457 l 1,18,-1
 349 457 l 1,19,-1
 349 502 l 1,20,-1
 550 502 l 1,21,-1
 550 457 l 1,22,-1
 515 457 l 1,23,24
 513 455 513 455 497.331054688 441.34765625 c 0,25,26
 482.496125201 429.39958004 482.496125201 429.39958004 475 411 c 2,27,-1
 288 -48 l 5,28,-1
 100 411 l 2,29,30
 82 454 82 454 60 457 c 1,0,-1
EndSplineSet
EndChar
StartChar: w
Encoding: 119 119 90
Width: 780
GlyphClass: 2
Flags: W
LayerCount: 2
Fore
SplineSet
350 411 m 2,0,1
 332.079470199 454.986754967 332.079470199 454.986754967 320 457 c 1,2,-1
 292 457 l 1,3,-1
 292 502 l 1,4,-1
 496 502 l 1,5,-1
 496 457 l 1,6,-1
 463 457 l 1,7,-1
 448 444 l 1,8,9
 440 433 440 433 440 424 c 2,10,-1
 440 411 l 1,11,-1
 548 144 l 1,12,-1
 637 411 l 1,13,-1
 636 411 l 1,14,-1
 636 423 l 2,15,16
 636 432 636 432 634 442 c 1,17,-1
 614 457 l 1,18,-1
 569 457 l 1,19,-1
 569 502 l 1,20,-1
 770 502 l 1,21,-1
 770 457 l 1,22,-1
 735 457 l 1,23,24
 705 452 705 452 695 411 c 1,25,-1
 537 -48 l 1,26,-1
 350 411 l 2,0,1
50 457 m 2,27,-1
 10 457 l 1,28,-1
 10 502 l 1,29,-1
 248 502 l 1,30,-1
 248 457 l 1,31,-1
 203 457 l 1,32,-1
 188 444 l 2,33,34
 180 437 180 437 180 424 c 2,35,-1
 180 411 l 1,36,-1
 282.992072012 166.585978359 l 1,37,-1
 365.994140625 389.67578125 l 1,38,-1
 392 318 l 1,39,-1
 259 -48 l 1,40,-1
 90 411 l 2,41,42
 73.0631808279 457 73.0631808279 457 50 457 c 2,27,-1
EndSplineSet
EndChar
StartChar: x
Encoding: 120 120 91
Width: 650
GlyphClass: 2
Flags: W
LayerCount: 2
Fore
SplineSet
205 75 m 1,0,1
 213 45 213 45 248 45 c 2,2,-1
 283 45 l 1,3,-1
 283 0 l 1,4,-1
 20 0 l 1,5,-1
 20 47 l 1,6,-1
 90 48 l 1,7,8
 124 52 124 52 138 75 c 1,9,-1
 272 242 l 1,10,-1
 129 425 l 1,11,12
 114 450 114 450 77 455 c 1,13,-1
 30 455 l 1,14,-1
 30 500 l 1,15,-1
 315 500 l 1,16,-1
 315 455 l 1,17,-1
 283 455 l 1,18,19
 255 448 255 448 249 425 c 1,20,-1
 333 318 l 1,21,-1
 419 425 l 1,22,23
 412 448 412 448 394 455 c 1,24,-1
 360 455 l 1,25,-1
 360 500 l 1,26,-1
 586 500 l 1,27,-1
 586 453 l 1,28,-1
 533 453 l 1,29,-1
 533 452 l 1,30,31
 500 448 500 448 486 425 c 1,32,-1
 366 276 l 1,33,-1
 524 75 l 1,34,35
 552 51 552 51 579 46 c 1,36,-1
 630 45 l 1,37,-1
 630 0 l 1,38,-1
 337 0 l 1,39,-1
 337 45 l 1,40,-1
 370 45 l 2,41,42
 396 45 396 45 404 75 c 1,43,-1
 306 200 l 1,44,-1
 205 75 l 1,0,1
EndSplineSet
Validated: 1
EndChar
StartChar: y
Encoding: 121 121 92
Width: 630
GlyphClass: 2
Flags: W
LayerCount: 2
Fore
SplineSet
192 429 m 0,0,1
 192 423 192 423 193 411 c 1,2,-1
 341 104 l 1,3,-1
 475 411 l 1,4,-1
 475 423 l 2,5,6
 475 432 475 432 473 442.5 c 128,-1,7
 471 453 471 453 453 456 c 1,8,-1
 453 457 l 1,9,-1
 408 457 l 1,10,-1
 408 502 l 1,11,-1
 609 502 l 1,12,-1
 609 457 l 1,13,-1
 574 457 l 1,14,15
 572 455 572 455 556.5 442 c 128,-1,16
 541 429 541 429 534 411 c 0,17,18
 327 -56 327 -56 307 -94 c 0,19,20
 256 -190 256 -190 134 -190 c 2,21,-1
 68 -190 l 1,22,-1
 68 -128 l 1,23,24
 133 -134 133 -134 138 -137 c 1,25,26
 234 -137 234 -137 273 -55 c 0,27,28
 294 -11 294 -11 294 -6.5 c 128,-1,29
 294 -2 294 -2 293 0 c 2,30,-1
 85 431 l 1,31,32
 72 455 72 455 55 457 c 1,33,-1
 15 457 l 1,34,-1
 15 502 l 1,35,-1
 258 502 l 1,36,-1
 258 457 l 1,37,-1
 216 457 l 1,38,-1
 216 456 l 1,39,40
 192 455 192 455 192 429 c 0,0,1
EndSplineSet
Validated: 1
EndChar
StartChar: z
Encoding: 122 122 93
Width: 549
GlyphClass: 2
Flags: W
LayerCount: 2
Fore
SplineSet
201 91 m 1,0,1
 194 78 194 78 194 69 c 0,2,3
 194 48 194 48 232 48 c 0,4,5
 304 48 304 48 375 48 c 0,6,7
 464 48 464 48 464 145 c 2,8,-1
 464 179 l 1,9,-1
 509 179 l 1,10,-1
 509 0 l 1,11,-1
 40 0 l 1,12,-1
 40 48 l 1,13,14
 69 52 69 52 81 75 c 1,15,-1
 351 410 l 1,16,-1
 350 410 l 1,17,18
 347 427 347 427 336 438 c 128,-1,19
 325 449 325 449 312 453 c 1,20,-1
 230 453 l 2,21,22
 130 453 130 453 130 355 c 2,23,-1
 130 321 l 1,24,-1
 85 321 l 1,25,-1
 85 500 l 1,26,-1
 509 500 l 1,27,-1
 509 453 l 1,28,-1
 505 453 l 1,29,30
 488 450 488 450 469 415 c 1,31,-1
 201 91 l 1,0,1
EndSplineSet
EndChar
StartChar: braceleft
Encoding: 123 123 94
Width: 448
GlyphClass: 2
Flags: W
LayerCount: 2
Fore
SplineSet
151 265 m 1,0,1
 265 217 265 217 265 128 c 0,2,3
 265 90 265 90 248.5 39 c 128,-1,4
 232 -12 232 -12 232 -39.5 c 128,-1,5
 232 -67 232 -67 240 -79 c 0,6,7
 289 -157 289 -157 349 -157 c 2,8,-1
 358 -157 l 1,9,-1
 408 -156 l 1,10,-1
 408 -199 l 1,11,-1
 358 -200 l 1,12,-1
 349 -200 l 2,13,14
 219 -200 219 -200 172 -126 c 0,15,16
 149 -90 149 -90 149 -43 c 128,-1,17
 149 4 149 4 166 55.5 c 128,-1,18
 183 107 183 107 183 135 c 0,19,20
 183 198 183 198 142 218 c 0,21,22
 135 221 135 221 91 250 c 1,23,-1
 90 250 l 1,24,-1
 91 286 l 1,25,-1
 105 293 l 2,26,27
 149 315 149 315 170 348 c 0,28,29
 182 366 182 366 182 396.5 c 128,-1,30
 182 427 182 427 165.5 478.5 c 128,-1,31
 149 530 149 530 149 576.5 c 128,-1,32
 149 623 149 623 172.5 658 c 128,-1,33
 196 693 196 693 239 712.5 c 128,-1,34
 282 732 282 732 360 732 c 2,35,-1
 408 732 l 1,36,-1
 408 678 l 1,37,-1
 360 679 l 1,38,-1
 351 679 l 2,39,40
 297 679 297 679 272.5 651.5 c 128,-1,41
 248 624 248 624 240 611.5 c 128,-1,42
 232 599 232 599 232 571 c 128,-1,43
 232 543 232 543 249 491.5 c 128,-1,44
 266 440 266 440 266 404 c 0,45,46
 266 317 266 317 151 265 c 1,0,1
EndSplineSet
EndChar

StartChar: bar
Encoding: 124 124 95
Width: 194
GlyphClass: 2
Flags: W
LayerCount: 2
Fore
SplineSet
70 800 m 1,0,-1
 124 800 l 1,1,-1
 124 -130 l 1,2,-1
 70 -130 l 1,3,-1
 70 800 l 1,0,-1
EndSplineSet
Validated: 1
EndChar

StartChar: braceright
Encoding: 125 125 96
Width: 448
GlyphClass: 2
Flags: W
LayerCount: 2
Fore
SplineSet
297 265 m 1,0,1
 182 317 182 317 182 404 c 0,2,3
 182 440 182 440 199 491.5 c 128,-1,4
 216 543 216 543 216 571 c 128,-1,5
 216 599 216 599 208 611.5 c 128,-1,6
 200 624 200 624 175.5 651.5 c 128,-1,7
 151 679 151 679 97 679 c 2,8,-1
 88 679 l 1,9,-1
 40 678 l 1,10,-1
 40 732 l 1,11,-1
 88 732 l 2,12,13
 166 732 166 732 209 712.5 c 128,-1,14
 252 693 252 693 275.5 658 c 128,-1,15
 299 623 299 623 299 576.5 c 128,-1,16
 299 530 299 530 282.5 478.5 c 128,-1,17
 266 427 266 427 266 396.5 c 128,-1,18
 266 366 266 366 278 348 c 0,19,20
 299 315 299 315 343 293 c 2,21,-1
 357 286 l 1,22,-1
 358 250 l 1,23,-1
 357 250 l 1,24,25
 313 221 313 221 306 218 c 0,26,27
 265 198 265 198 265 135 c 0,28,29
 265 107 265 107 282 55.5 c 128,-1,30
 299 4 299 4 299 -43 c 128,-1,31
 299 -90 299 -90 276 -126 c 0,32,33
 229 -200 229 -200 99 -200 c 2,34,-1
 90 -200 l 1,35,-1
 40 -199 l 1,36,-1
 40 -156 l 1,37,-1
 90 -157 l 1,38,-1
 99 -157 l 2,39,40
 159 -157 159 -157 208 -79 c 0,41,42
 216 -67 216 -67 216 -39.5 c 128,-1,43
 216 -12 216 -12 199.5 39 c 128,-1,44
 183 90 183 90 183 128 c 0,45,46
 183 217 183 217 297 265 c 1,0,1
EndSplineSet
EndChar

StartChar: asciitilde
Encoding: 126 126 97
Width: 484
GlyphClass: 2
Flags: W
LayerCount: 2
Fore
SplineSet
451 669 m 1,0,1
 398 543 398 543 322 543 c 0,2,3
 278 543 278 543 233 591 c 0,4,5
 209 616 209 616 202.5 620.5 c 128,-1,6
 196 625 196 625 195 626 c 0,7,8
 172 644 172 644 153 644 c 2,9,-1
 146 644 l 2,10,11
 106 644 106 644 56 595 c 1,12,-1
 34 595 l 1,13,14
 65 668 65 668 107 701 c 0,15,16
 134 722 134 722 164 722 c 0,17,18
 207 722 207 722 253 674 c 0,19,20
 276 649 276 649 283 644 c 128,-1,21
 290 639 290 639 290 638 c 0,22,23
 314 620 314 620 332 620 c 2,24,-1
 339 620 l 2,25,26
 380 620 380 620 430 669 c 1,27,-1
 451 669 l 1,0,1
EndSplineSet
Validated: 1
EndChar

StartChar: cent
Encoding: 162 162 100
Width: 491
GlyphClass: 2
Flags: W
LayerCount: 2
Fore
SplineSet
279 58 m 1,0,-1
 279 434 l 1,1,2
 237 421 237 421 201 385 c 0,3,4
 144 328 144 328 144 248 c 128,-1,5
 144 168 144 168 200 111 c 0,6,7
 237 74 237 74 279 58 c 1,0,-1
445 69 m 1,8,-1
 445 17 l 1,9,10
 386 -11 386 -11 333 -11 c 1,11,-1
 333 -130 l 1,12,-1
 279 -130 l 1,13,-1
 279 -6 l 1,14,15
 183 9 183 9 124 64 c 1,16,17
 45 140 45 140 45 250 c 128,-1,18
 45 360 45 360 130 433 c 1,19,20
 198 490 198 490 279 503 c 1,21,-1
 279 669 l 1,22,-1
 333 669 l 1,23,-1
 333 506 l 1,24,25
 408 504 408 504 451 475 c 1,26,-1
 425 403 l 1,27,28
 380 442 380 442 333 442 c 1,29,-1
 333 46 l 1,30,31
 342 45 342 45 350 45 c 0,32,33
 402 45 402 45 445 69 c 1,8,-1
EndSplineSet
Validated: 1
EndChar
StartChar: sterling
Encoding: 163 163 101
Width: 544
GlyphClass: 2
Flags: W
LayerCount: 2
Fore
SplineSet
446 182 m 1,0,-1
 495 178 l 1,1,2
 491 92 491 92 474.5 61.5 c 128,-1,3
 458 31 458 31 421 10 c 128,-1,4
 384 -11 384 -11 338 -11 c 2,5,-1
 328 -11 l 2,6,7
 299 -11 299 -11 240 30 c 0,8,9
 211 50 211 50 183.5 50 c 128,-1,10
 156 50 156 50 138 43 c 0,11,12
 107 30 107 30 90 -11 c 1,13,-1
 57 -11 l 1,14,-1
 57 80 l 1,15,16
 62 79 62 79 66.5 79 c 128,-1,17
 71 79 71 79 76 80 c 1,18,19
 150 145 150 145 153 214 c 0,20,21
 154 241 154 241 154 282 c 128,-1,22
 154 323 154 323 148 347 c 1,23,-1
 40 347 l 1,24,-1
 40 393 l 1,25,-1
 136 393 l 1,26,27
 114 454 114 454 103.5 504 c 128,-1,28
 93 554 93 554 93 573 c 0,29,30
 93 638 93 638 136 681 c 0,31,32
 155 700 155 700 192 710.5 c 128,-1,33
 229 721 229 721 242 721 c 128,-1,34
 255 721 255 721 259 720 c 0,35,36
 390 704 390 704 434 626 c 1,37,-1
 410 599 l 1,38,39
 342 658 342 658 277 658 c 0,40,41
 268 658 268 658 259 656 c 0,42,43
 186 647 186 647 185 585 c 1,44,-1
 185 579 l 2,45,46
 185 500 185 500 215 393 c 1,47,-1
 380 393 l 1,48,-1
 380 347 l 1,49,-1
 228 347 l 1,50,51
 233 323 233 323 233 279.5 c 128,-1,52
 233 236 233 236 210 186.5 c 128,-1,53
 187 137 187 137 166 108 c 1,54,55
 192 136 192 136 210.5 136 c 128,-1,56
 229 136 229 136 242 124 c 1,57,58
 338 47 338 47 345 42.5 c 128,-1,59
 352 38 352 38 372 41 c 1,60,61
 446 69 446 69 446 168 c 0,62,63
 446 175 446 175 446 182 c 1,0,-1
EndSplineSet
EndChar
StartChar: currency
Encoding: 164 164 102
Width: 637
GlyphClass: 2
Flags: W
LayerCount: 2
Fore
SplineSet
136 225 m 1,0,1
 96 282 96 282 96 352.5 c 128,-1,2
 96 423 96 423 134 477 c 1,3,-1
 52 559 l 1,4,-1
 110 617 l 1,5,-1
 191 536 l 1,6,7
 248 578 248 578 321 578 c 128,-1,8
 394 578 394 578 450 538 c 1,9,-1
 528 617 l 1,10,-1
 586 559 l 1,11,-1
 507 481 l 1,12,13
 547 425 547 425 547 352 c 128,-1,14
 547 279 547 279 505 222 c 1,15,-1
 586 141 l 1,16,-1
 528 83 l 1,17,-1
 446 165 l 1,18,19
 392 127 392 127 321.5 127 c 128,-1,20
 251 127 251 127 194 167 c 1,21,-1
 110 83 l 1,22,-1
 52 141 l 1,23,-1
 136 225 l 1,0,1
321.5 508 m 128,-1,25
 257 508 257 508 211.5 462.5 c 128,-1,26
 166 417 166 417 166 352.5 c 128,-1,27
 166 288 166 288 211.5 242.5 c 128,-1,28
 257 197 257 197 321.5 197 c 128,-1,29
 386 197 386 197 432 242.5 c 128,-1,30
 478 288 478 288 478 352 c 128,-1,31
 478 416 478 416 432 462 c 128,-1,24
 386 508 386 508 321.5 508 c 128,-1,25
EndSplineSet
Validated: 1
EndChar
StartChar: yen
Encoding: 165 165 103
Width: 866
GlyphClass: 2
Flags: W
LayerCount: 2
Fore
SplineSet
489 75 m 1,0,1
 496 45 496 45 535 45 c 2,2,-1
 600 45 l 1,3,-1
 600 0 l 1,4,-1
 282 0 l 1,5,-1
 282 45 l 1,6,-1
 353 46 l 1,7,8
 381 50 381 50 394 75 c 1,9,-1
 394 201 l 1,10,-1
 193 201 l 1,11,-1
 193 246 l 1,12,-1
 394 246 l 1,13,-1
 394 322 l 1,14,-1
 385 336 l 1,15,-1
 193 336 l 1,16,-1
 193 381 l 1,17,-1
 356 381 l 1,18,-1
 179 652 l 1,19,20
 165 677 165 677 117 681 c 1,21,-1
 40 682 l 1,22,-1
 40 727 l 1,23,-1
 395 727 l 1,24,-1
 395 682 l 1,25,-1
 343 682 l 1,26,27
 304 675 304 675 299 652 c 1,28,-1
 457 396 l 1,29,-1
 619 652 l 1,30,31
 614 675 614 675 574 682 c 1,32,-1
 520 682 l 1,33,-1
 520 727 l 1,34,-1
 826 727 l 1,35,-1
 826 680 l 1,36,-1
 733 680 l 1,37,-1
 733 679 l 1,38,39
 700 675 700 675 686 652 c 2,40,-1
 508 381 l 1,41,-1
 689 381 l 1,42,-1
 689 336 l 1,43,-1
 489 336 l 1,44,-1
 489 246 l 1,45,-1
 689 246 l 1,46,-1
 689 201 l 1,47,-1
 489 201 l 1,48,-1
 489 75 l 1,0,1
EndSplineSet
Validated: 1
EndChar
StartChar: brokenbar
Encoding: 166 166 104
Width: 193
GlyphClass: 2
Flags: W
LayerCount: 2
Fore
SplineSet
65 800 m 1,0,-1
 129 800 l 1,1,-1
 129 405 l 1,2,-1
 65 405 l 1,3,-1
 65 800 l 1,0,-1
65 265 m 1,4,-1
 129 265 l 1,5,-1
 129 -130 l 1,6,-1
 65 -130 l 1,7,-1
 65 265 l 1,4,-1
EndSplineSet
Validated: 1
EndChar

StartChar: section
Encoding: 167 167 105
Width: 534
GlyphClass: 2
Flags: W
LayerCount: 2
Fore
SplineSet
309 379 m 0,0,1
 286 389 286 389 246.5 389 c 128,-1,2
 207 389 207 389 175 349 c 128,-1,3
 143 309 143 309 143 256.5 c 128,-1,4
 143 204 143 204 226 168 c 0,5,6
 249 158 249 158 288.5 158 c 128,-1,7
 328 158 328 158 360.5 198.5 c 128,-1,8
 393 239 393 239 393 284 c 0,9,10
 393 342 393 342 309 379 c 0,0,1
237 -109 m 2,11,12
 403 -109 403 -109 403 -10 c 2,13,-1
 403 -5 l 2,14,15
 403 25 403 25 327 60 c 0,16,17
 287 78 287 78 272.5 82.5 c 128,-1,18
 258 87 258 87 216 105 c 128,-1,19
 174 123 174 123 150 141 c 2,20,-1
 114 168 l 2,21,22
 45 220 45 220 45 268.5 c 0,23,24
 45 317 45 317 83 363 c 0,25,26
 121 409 121 409 182 425 c 1,27,28
 40 472 40 472 40 570 c 0,29,30
 40 624 40 624 76 660 c 0,31,32
 139 724 139 724 254 724 c 2,33,34
 259 724 l 1,35,36
 378 722 378 722 470 656 c 1,37,-1
 429 608 l 1,38,39
 360 668 360 668 283 668 c 0,40,41
 132 668 132 668 132 566 c 0,42,43
 132 522 132 522 206 488 c 1,44,-1
 350 426 l 1,45,46
 490 360 490 360 490 286 c 0,47,48
 490 234 490 234 455.5 188 c 0,49,50
 421 142 421 142 355 123 c 1,51,52
 495 78 495 78 495 -8 c 2,53,-1
 495 -10 l 2,54,55
 495 -66 495 -66 460 -102 c 0,56,57
 396 -168 396 -168 266.5 -168 c 128,-1,58
 137 -168 137 -168 42 -106 c 1,59,-1
 70 -54 l 1,60,61
 130 -109 130 -109 234 -109 c 2,62,-1
 237 -109 l 2,11,12
EndSplineSet
Validated: 1
EndChar
StartChar: dieresis
Encoding: 168 168 106
Width: 401
GlyphClass: 2
Flags: W
LayerCount: 2
Fore
SplineSet
246 673 m 128,-1,1
 246 695 246 695 261 710.5 c 128,-1,2
 276 726 276 726 297 726 c 128,-1,3
 318 726 318 726 332 710.5 c 128,-1,4
 346 695 346 695 346 673 c 128,-1,5
 346 651 346 651 332 635.5 c 128,-1,6
 318 620 318 620 297 620 c 128,-1,7
 276 620 276 620 261 635.5 c 128,-1,0
 246 651 246 651 246 673 c 128,-1,1
56 673 m 128,-1,9
 56 695 56 695 70.5 710.5 c 128,-1,10
 85 726 85 726 106 726 c 128,-1,11
 127 726 127 726 141.5 710.5 c 128,-1,12
 156 695 156 695 156 673 c 128,-1,13
 156 651 156 651 141.5 635.5 c 128,-1,14
 127 620 127 620 106 620 c 128,-1,15
 85 620 85 620 70.5 635.5 c 128,-1,8
 56 651 56 651 56 673 c 128,-1,9
EndSplineSet
Validated: 1
EndChar
StartChar: copyright
Encoding: 169 169 107
Width: 747
GlyphClass: 2
Flags: W
LayerCount: 2
Fore
SplineSet
427 223 m 0,0,1
 463 223 463 223 501 244 c 1,2,-1
 501 196 l 1,3,4
 451 173 451 173 412 173 c 0,5,6
 408 173 408 173 405 173 c 0,7,8
 312 178 312 178 255.5 232 c 128,-1,9
 199 286 199 286 199 367 c 0,10,11
 199 368 199 368 199.5 409.5 c 128,-1,12
 200 451 200 451 264 505.5 c 128,-1,13
 328 560 328 560 408 560 c 0,14,15
 468 560 468 560 507 535 c 1,16,-1
 484 470 l 1,17,18
 448 503 448 503 414 503 c 0,19,20
 362 503 362 503 322 463 c 128,-1,21
 282 423 282 423 282 366.5 c 128,-1,22
 282 310 282 310 321.5 270 c 128,-1,23
 361 230 361 230 389 226.5 c 128,-1,24
 417 223 417 223 427 223 c 0,0,1
35 362.5 m 128,-1,26
 35 455 35 455 80.5 533 c 128,-1,27
 126 611 126 611 204 656.5 c 128,-1,28
 282 702 282 702 374 702 c 128,-1,29
 466 702 466 702 544 656.5 c 128,-1,30
 622 611 622 611 667.5 533 c 128,-1,31
 713 455 713 455 713 362.5 c 128,-1,32
 713 270 713 270 667.5 192 c 128,-1,33
 622 114 622 114 544 68.5 c 128,-1,34
 466 23 466 23 374 23 c 128,-1,35
 282 23 282 23 204 68.5 c 128,-1,36
 126 114 126 114 80.5 192 c 128,-1,25
 35 270 35 270 35 362.5 c 128,-1,26
85 362 m 128,-1,38
 85 242 85 242 169.5 157.5 c 128,-1,39
 254 73 254 73 374 73 c 128,-1,40
 494 73 494 73 578.5 158 c 128,-1,41
 663 243 663 243 663 362 c 1,42,-1
 664 362 l 1,43,44
 663 482 663 482 578.5 567 c 128,-1,45
 494 652 494 652 374 652 c 128,-1,46
 254 652 254 652 169.5 567 c 128,-1,37
 85 482 85 482 85 362 c 128,-1,38
EndSplineSet
Validated: 1
EndChar
StartChar: ordfeminine
Encoding: 170 170 108
Width: 379
GlyphClass: 2
Flags: W
LayerCount: 2
Fore
SplineSet
173.567901235 676.777777778 m 0,0,1
 113.722222222 676.777777778 113.722222222 676.777777778 62 624 c 1,2,-1
 60 681 l 1,3,4
 122 711 122 711 172.5 711 c 128,-1,5
 223 711 223 711 263 696 c 128,-1,6
 303 681 303 681 303 621 c 2,7,-1
 303 449 l 1,8,9
 305 448 305 448 306 448 c 0,10,11
 318.909090909 448 318.909090909 448 328 468 c 2,12,-1
 333 479 l 1,13,-1
 333 439 l 1,14,15
 323 397 323 397 290.5 397 c 128,-1,16
 258 397 258 397 242 432 c 1,17,18
 210 396 210 396 159.5 396 c 0,19,20
 36 396 36 396 36 468 c 0,21,22
 36 535 36 535 112 574 c 0,23,24
 164 601 164 601 240 609 c 1,25,26
 240.444444444 619 240.444444444 619 240.444444444 637.055555556 c 128,-1,27
 240.444444444 655.111111111 240.444444444 655.111111111 235 659 c 0,28,29
 216.333333333 676.777777778 216.333333333 676.777777778 173.567901235 676.777777778 c 0,0,1
239 565 m 1,30,31
 110 547 110 547 110 480 c 0,32,33
 111 446 111 446 167 446 c 128,-1,34
 223 446 223 446 234 485 c 0,35,36
 239 502 239 502 239 527 c 2,37,-1
 239 565 l 1,30,31
38 315 m 1,38,-1
 324 315 l 1,39,-1
 324 260 l 1,40,-1
 38 260 l 1,41,-1
 38 315 l 1,38,-1
EndSplineSet
EndChar

StartChar: guillemotleft
Encoding: 171 171 109
Width: 584
GlyphClass: 2
Flags: W
LayerCount: 2
Fore
SplineSet
55 294 m 1,0,-1
 265 478 l 1,1,-1
 312 478 l 1,2,-1
 163 295 l 1,3,-1
 312 112 l 1,4,-1
 265 112 l 1,5,-1
 55 294 l 1,0,-1
263 294 m 1,6,-1
 473 478 l 1,7,-1
 520 478 l 1,8,-1
 371 295 l 1,9,-1
 520 112 l 1,10,-1
 473 112 l 1,11,-1
 263 294 l 1,6,-1
EndSplineSet
Validated: 1
EndChar
StartChar: logicalnot
Encoding: 172 172 110
Width: 529
GlyphClass: 2
Flags: W
LayerCount: 2
Fore
SplineSet
490 139 m 1,0,-1
 428 139 l 1,1,-1
 428 333 l 1,2,-1
 40 333 l 1,3,-1
 40 395 l 1,4,-1
 490 395 l 1,5,-1
 490 139 l 1,0,-1
EndSplineSet
Validated: 1
EndChar

StartChar: uni00AD
Encoding: 173 173 111
Width: 379
GlyphClass: 2
Flags: W
LayerCount: 2
Fore
SplineSet
340 327 m 1,0,-1
 340 270 l 1,1,-1
 40 270 l 1,2,-1
 40 327 l 1,3,-1
 340 327 l 1,0,-1
EndSplineSet
EndChar

StartChar: registered
Encoding: 174 174 112
Width: 747
GlyphClass: 2
Flags: W
LayerCount: 2
Fore
SplineSet
335 521 m 1,0,-1
 335 382 l 1,1,-1
 395 382 l 2,2,3
 465 382 465 382 465 453.5 c 128,-1,4
 465 525 465 525 423 530 c 0,5,6
 402 533 402 533 375 533 c 128,-1,7
 348 533 348 533 342 530.5 c 128,-1,8
 336 528 336 528 335 521 c 1,0,-1
35 362.5 m 128,-1,10
 35 455 35 455 80.5 533 c 128,-1,11
 126 611 126 611 204 656.5 c 128,-1,12
 282 702 282 702 374 702 c 128,-1,13
 466 702 466 702 544 656.5 c 128,-1,14
 622 611 622 611 667.5 533 c 128,-1,15
 713 455 713 455 713 362.5 c 128,-1,16
 713 270 713 270 667.5 192 c 128,-1,17
 622 114 622 114 544 68.5 c 128,-1,18
 466 23 466 23 374 23 c 128,-1,19
 282 23 282 23 204 68.5 c 128,-1,20
 126 114 126 114 80.5 192 c 128,-1,9
 35 270 35 270 35 362.5 c 128,-1,10
85 362 m 128,-1,22
 85 242 85 242 169.5 157.5 c 128,-1,23
 254 73 254 73 374 73 c 128,-1,24
 494 73 494 73 579 159 c 1,25,-1
 429 159 l 1,26,-1
 429 203 l 1,27,-1
 475 203 l 1,28,-1
 368 337 l 1,29,-1
 335 337 l 1,30,-1
 335 210 l 2,31,32
 335 204 335 204 350 203 c 1,33,-1
 396 203 l 1,34,-1
 396 159 l 1,35,-1
 200 159 l 1,36,-1
 200 203 l 1,37,-1
 249 203 l 2,38,39
 262 203 262 203 262 210 c 2,40,-1
 262 518 l 2,41,42
 262 523 262 523 257.5 528 c 128,-1,43
 253 533 253 533 246 533 c 2,44,-1
 200 533 l 1,45,-1
 200 577 l 1,46,-1
 406 577 l 2,47,48
 468 577 468 577 505 541 c 128,-1,49
 542 505 542 505 542 452 c 0,50,51
 542 359 542 359 448 341 c 1,52,-1
 549 214 l 2,53,54
 558 203 558 203 580 203 c 2,55,-1
 616 203 l 1,56,57
 663 273 663 273 663 362 c 1,58,-1
 664 362 l 1,59,60
 663 482 663 482 578.5 567 c 128,-1,61
 494 652 494 652 374 652 c 128,-1,62
 254 652 254 652 169.5 567 c 128,-1,21
 85 482 85 482 85 362 c 128,-1,22
EndSplineSet
Validated: 1
EndChar
StartChar: macron
Encoding: 175 175 113
Width: 483
GlyphClass: 2
Flags: W
LayerCount: 2
Fore
SplineSet
387 760 m 1,0,-1
 387 708 l 1,1,-1
 97 708 l 1,2,-1
 97 760 l 1,3,-1
 387 760 l 1,0,-1
EndSplineSet
Validated: 1
EndChar
StartChar: degree
Encoding: 176 176 114
Width: 361
GlyphClass: 2
Flags: W
LayerCount: 2
Fore
SplineSet
122 671 m 128,-1,1
 122 647 122 647 139 629.5 c 128,-1,2
 156 612 156 612 180 612 c 128,-1,3
 204 612 204 612 221 629.5 c 128,-1,4
 238 647 238 647 238 671 c 128,-1,5
 238 695 238 695 221 712 c 128,-1,6
 204 729 204 729 180 729 c 128,-1,7
 156 729 156 729 139 712 c 128,-1,0
 122 695 122 695 122 671 c 128,-1,1
80 669.5 m 128,-1,9
 80 712 80 712 109 741 c 128,-1,10
 138 770 138 770 181 770 c 128,-1,11
 224 770 224 770 253 741 c 128,-1,12
 282 712 282 712 282 669.5 c 128,-1,13
 282 627 282 627 253 597.5 c 128,-1,14
 224 568 224 568 181 568 c 128,-1,15
 138 568 138 568 109 597.5 c 128,-1,8
 80 627 80 627 80 669.5 c 128,-1,9
EndSplineSet
EndChar

StartChar: plusminus
Encoding: 177 177 115
Width: 540
GlyphClass: 2
Flags: W
LayerCount: 2
Fore
SplineSet
495 477 m 1,0,-1
 495 416 l 1,1,-1
 301 416 l 1,2,-1
 301 237 l 1,3,-1
 240 237 l 1,4,-1
 240 416 l 1,5,-1
 45 416 l 1,6,-1
 45 477 l 1,7,-1
 240 477 l 1,8,-1
 240 658 l 1,9,-1
 301 658 l 1,10,-1
 301 477 l 1,11,-1
 495 477 l 1,0,-1
495 151 m 1,12,-1
 495 89 l 1,13,-1
 45 89 l 1,14,-1
 45 151 l 1,15,-1
 495 151 l 1,12,-1
EndSplineSet
Validated: 1
EndChar
StartChar: uni00B2
Encoding: 178 178 116
Width: 349
GlyphClass: 2
Flags: W
LayerCount: 2
Fore
SplineSet
156 715 m 0,0,1
 262 715 262 715 262 614 c 0,2,3
 262 576 262 576 246 553.5 c 128,-1,4
 230 531 230 531 187.5 499.5 c 128,-1,5
 145 468 145 468 127.5 444.5 c 128,-1,6
 110 421 110 421 106 396 c 1,7,-1
 203 396 l 2,8,9
 225 396 225 396 247 421 c 2,10,-1
 279 457 l 1,11,-1
 254 334 l 1,12,-1
 42 334 l 1,13,-1
 42 386 l 2,14,15
 42 429 42 429 85 477 c 0,16,17
 100 494 100 494 139.5 529 c 128,-1,18
 179 564 179 564 188.5 579.5 c 128,-1,19
 198 595 198 595 198 615 c 128,-1,20
 198 635 198 635 182 647.5 c 128,-1,21
 166 660 166 660 146 660 c 0,22,23
 114 660 114 660 67 632 c 2,24,-1
 50 622 l 1,25,-1
 40 666 l 1,26,27
 53 682 53 682 89 698.5 c 128,-1,28
 125 715 125 715 156 715 c 0,0,1
EndSplineSet
EndChar

StartChar: uni00B3
Encoding: 179 179 117
Width: 357
GlyphClass: 2
Flags: W
LayerCount: 2
Fore
SplineSet
151 664 m 128,-1,1
 126 664 126 664 82 629 c 1,2,-1
 55 662 l 1,3,-1
 78 678 l 2,4,5
 132 716 132 716 165 714 c 2,6,-1
 182 713 l 2,7,8
 201 712 201 712 223 701 c 0,9,10
 247 689 247 689 256.5 667 c 128,-1,11
 266 645 266 645 266 619.5 c 128,-1,12
 266 594 266 594 249 574 c 128,-1,13
 232 554 232 554 211 542 c 1,14,15
 256 531 256 531 275 499 c 0,16,17
 287 478 287 478 287 449 c 0,18,19
 287 403 287 403 256 374 c 0,20,21
 221 341 221 341 176 328 c 0,22,23
 149 320 149 320 119 320 c 128,-1,24
 89 320 89 320 55 325 c 1,25,-1
 40 372 l 1,26,27
 96 366 96 366 98 365 c 1,28,29
 102 365 102 365 114 365.5 c 128,-1,30
 126 366 126 366 140 369 c 0,31,32
 167 374 167 374 193.5 397 c 128,-1,33
 220 420 220 420 220 449 c 0,34,35
 220 506 220 506 150 506 c 0,36,37
 134 506 134 506 123 503 c 2,38,-1
 88 493 l 1,39,-1
 81 537 l 1,40,-1
 111 542 l 2,41,42
 117 543 117 543 134 549 c 1,43,44
 201 583 201 583 201 625 c 0,45,46
 201 646 201 646 184 658 c 0,47,0
 176 664 176 664 151 664 c 128,-1,1
EndSplineSet
EndChar
StartChar: acute
Encoding: 180 180 118
Width: 270
GlyphClass: 2
Flags: W
LayerCount: 2
Fore
SplineSet
151 746 m 1,0,1
 180 763 180 763 199.5 763 c 128,-1,2
 219 763 219 763 229.5 749 c 128,-1,3
 240 735 240 735 240 720 c 128,-1,4
 240 705 240 705 227 688 c 1,5,-1
 68 584 l 1,6,-1
 30 584 l 1,7,-1
 151 746 l 1,0,1
EndSplineSet
EndChar

StartChar: uni00B5
Encoding: 181 181 119
Width: 538
GlyphClass: 2
Flags: W
LayerCount: 2
Fore
SplineSet
133 -170 m 1,0,-1
 50 -170 l 1,1,-1
 50 499 l 1,2,-1
 139 499 l 1,3,-1
 139 257 l 2,4,5
 139 153 139 153 161 98 c 1,6,7
 188 51 188 51 240 51 c 0,8,9
 386 51 386 51 386 264 c 2,10,-1
 386 499 l 1,11,-1
 471 499 l 1,12,-1
 471 78 l 2,13,14
 471 59 471 59 486 59 c 0,15,16
 492 59 492 59 523 98 c 1,17,-1
 523 53 l 1,18,19
 507 -13 507 -13 458 -13 c 128,-1,20
 409 -13 409 -13 387 58 c 1,21,-1
 386 79 l 1,22,23
 348 -15 348 -15 232 -15 c 0,24,25
 178 -15 178 -15 133 35 c 1,26,-1
 133 -170 l 1,0,-1
EndSplineSet
Validated: 1
EndChar

StartChar: paragraph
Encoding: 182 182 120
Width: 550
GlyphClass: 2
Flags: W
LayerCount: 2
Fore
SplineSet
530 730 m 1,0,-1
 530 704 l 1,1,2
 485 678 485 678 485 618 c 2,3,-1
 485 -130 l 1,4,-1
 430 -130 l 1,5,-1
 430 681 l 1,6,-1
 345 681 l 1,7,-1
 345 -130 l 1,8,-1
 290 -130 l 1,9,-1
 290 393 l 1,10,11
 129 399 129 399 84 468 c 0,12,13
 69 491 69 491 64.5 512 c 128,-1,14
 60 533 60 533 60 561.5 c 128,-1,15
 60 590 60 590 65 612 c 0,16,17
 77 665 77 665 130 696 c 0,18,19
 190 730 190 730 290 730 c 2,20,-1
 530 730 l 1,0,-1
EndSplineSet
Validated: 1
EndChar
StartChar: periodcentered
Encoding: 183 183 121
Width: 550
GlyphClass: 2
Flags: W
LayerCount: 2
Fore
SplineSet
194 318 m 128,-1,1
 194 352 194 352 217.5 375.5 c 128,-1,2
 241 399 241 399 275 399 c 128,-1,3
 309 399 309 399 332.5 375.5 c 128,-1,4
 356 352 356 352 356 318 c 128,-1,5
 356 284 356 284 332.5 260.5 c 128,-1,6
 309 237 309 237 275 237 c 128,-1,7
 241 237 241 237 217.5 260.5 c 128,-1,0
 194 284 194 284 194 318 c 128,-1,1
EndSplineSet
Validated: 1
EndChar

StartChar: cedilla
Encoding: 184 184 122
Width: 302
GlyphClass: 2
Flags: W
LayerCount: 2
Fore
SplineSet
38 -180 m 1,0,1
 60 -184 60 -184 91.5 -184 c 128,-1,2
 123 -184 123 -184 165 -169 c 0,3,4
 200 -156 200 -156 200 -115 c 128,-1,5
 200 -74 200 -74 151 -74 c 1,6,-1
 76 -79 l 1,7,-1
 119 14 l 1,8,-1
 157 14 l 1,9,-1
 133 -48 l 1,10,11
 157 -45 157 -45 182 -45 c 0,12,13
 273 -45 273 -45 273 -125 c 0,14,15
 273 -149 273 -149 251 -170 c 0,16,17
 207 -212 207 -212 90 -212 c 2,18,-1
 30 -212 l 1,19,-1
 38 -180 l 1,0,1
EndSplineSet
Validated: 1
EndChar

StartChar: uni00B9
Encoding: 185 185 123
Width: 377
GlyphClass: 2
Flags: W
LayerCount: 2
Fore
SplineSet
154 689 m 2,0,-1
 154 704 l 1,1,-1
 217 704 l 1,2,-1
 217 386 l 1,3,4
 221 375 221 375 231 372 c 1,5,-1
 277 372 l 1,6,-1
 277 325 l 1,7,-1
 91 325 l 1,8,-1
 91 372 l 1,9,-1
 130 372 l 1,10,-1
 139 373 l 2,11,12
 152 374 152 374 153 384.5 c 128,-1,13
 154 395 154 395 154 475 c 2,14,-1
 154 592 l 1,15,16
 142 590 142 590 125 590 c 2,17,-1
 90 590 l 1,18,-1
 90 640 l 1,19,-1
 107 640 l 2,20,21
 142 640 142 640 150 671 c 0,22,23
 154 686 154 686 154 689 c 2,0,-1
EndSplineSet
Validated: 1
EndChar

StartChar: ordmasculine
Encoding: 186 186 124
Width: 379
GlyphClass: 2
Flags: W
LayerCount: 2
Fore
SplineSet
38 315 m 1,0,-1
 335 315 l 1,1,-1
 335 260 l 1,2,-1
 38 260 l 1,3,-1
 38 315 l 1,0,-1
181 675 m 128,-1,5
 149 675 149 675 128 638 c 128,-1,6
 107 601 107 601 107 552.5 c 128,-1,7
 107 504 107 504 132 468 c 128,-1,8
 157 432 157 432 189 432 c 128,-1,9
 221 432 221 432 242 468 c 128,-1,10
 263 504 263 504 263 553 c 128,-1,11
 263 602 263 602 238 638.5 c 128,-1,4
 213 675 213 675 181 675 c 128,-1,5
83 440 m 128,-1,13
 39 489 39 489 39 552.5 c 128,-1,14
 39 616 39 616 83 666.5 c 128,-1,15
 127 717 127 717 185 717 c 128,-1,16
 243 717 243 717 289 666.5 c 128,-1,17
 335 616 335 616 335 552.5 c 128,-1,18
 335 489 335 489 289 440 c 128,-1,19
 243 391 243 391 185 391 c 128,-1,12
 127 391 127 391 83 440 c 128,-1,13
EndSplineSet
Validated: 1
EndChar

StartChar: guillemotright
Encoding: 187 187 125
Width: 584
GlyphClass: 2
Flags: W
LayerCount: 2
Fore
SplineSet
321 294 m 1,0,-1
 111 112 l 1,1,-1
 64 112 l 1,2,-1
 213 295 l 1,3,-1
 64 478 l 1,4,-1
 111 478 l 1,5,-1
 321 294 l 1,0,-1
529 294 m 1,6,-1
 319 112 l 1,7,-1
 272 112 l 1,8,-1
 421 295 l 1,9,-1
 272 478 l 1,10,-1
 319 478 l 1,11,-1
 529 294 l 1,6,-1
EndSplineSet
EndChar

StartChar: onequarter
Encoding: 188 188 126
Width: 748
GlyphClass: 2
Flags: W
LayerCount: 2
Fore
SplineSet
674 735 m 1,0,-1
 148 0 l 1,1,-1
 74 0 l 1,2,-1
 600 735 l 1,3,-1
 674 735 l 1,0,-1
142 719 m 2,4,-1
 142 734 l 1,5,-1
 205 734 l 1,6,-1
 205 416 l 1,7,8
 209 405 209 405 219 402 c 1,9,-1
 265 402 l 1,10,-1
 265 355 l 1,11,-1
 79 355 l 1,12,-1
 79 402 l 1,13,-1
 118 402 l 1,14,-1
 127 403 l 2,15,16
 140 404 140 404 141 414.5 c 128,-1,17
 142 425 142 425 142 505 c 2,18,-1
 142 622 l 1,19,20
 130 620 130 620 113 620 c 2,21,-1
 78 620 l 1,22,-1
 78 670 l 1,23,-1
 95 670 l 2,24,25
 130 670 130 670 138 701 c 0,26,27
 142 716 142 716 142 719 c 2,4,-1
460 143 m 1,28,-1
 539 143 l 1,29,-1
 539 291 l 1,30,-1
 460 143 l 1,28,-1
600 59 m 1,31,32
 604 44 604 44 614 41 c 1,33,-1
 656 41 l 1,34,-1
 656 -1 l 1,35,-1
 480 -1 l 1,36,-1
 480 41 l 1,37,-1
 515 41 l 1,38,-1
 524 42 l 2,39,40
 536 43 536 43 539 55 c 1,41,-1
 539 88 l 1,42,-1
 376 88 l 1,43,-1
 539 380 l 1,44,-1
 600 380 l 1,45,-1
 600 143 l 1,46,-1
 661 143 l 1,47,-1
 661 88 l 1,48,-1
 600 88 l 1,49,-1
 600 59 l 1,31,32
EndSplineSet
Validated: 1
EndChar

StartChar: onehalf
Encoding: 189 189 127
Width: 748
GlyphClass: 2
Flags: W
LayerCount: 2
Fore
SplineSet
674 735 m 1,0,-1
 148 0 l 1,1,-1
 74 0 l 1,2,-1
 600 735 l 1,3,-1
 674 735 l 1,0,-1
555 382 m 0,4,5
 661 382 661 382 661 281 c 0,6,7
 661 243 661 243 645 220.5 c 128,-1,8
 629 198 629 198 586.5 166.5 c 128,-1,9
 544 135 544 135 526.5 111.5 c 128,-1,10
 509 88 509 88 505 63 c 1,11,-1
 602 63 l 2,12,13
 624 63 624 63 646 88 c 2,14,-1
 678 124 l 1,15,-1
 653 1 l 1,16,-1
 441 1 l 1,17,-1
 441 53 l 2,18,19
 441 96 441 96 484 144 c 0,20,21
 499 161 499 161 538.5 196 c 128,-1,22
 578 231 578 231 587.5 246.5 c 128,-1,23
 597 262 597 262 597 282 c 128,-1,24
 597 302 597 302 581 314.5 c 128,-1,25
 565 327 565 327 539 327 c 0,26,27
 513 327 513 327 466 299 c 2,28,-1
 449 289 l 1,29,-1
 439 333 l 1,30,31
 452 349 452 349 488 365.5 c 128,-1,32
 524 382 524 382 555 382 c 0,4,5
142 719 m 2,33,-1
 142 734 l 1,34,-1
 205 734 l 1,35,-1
 205 416 l 1,36,37
 209 405 209 405 219 402 c 1,38,-1
 265 402 l 1,39,-1
 265 355 l 1,40,-1
 79 355 l 1,41,-1
 79 402 l 1,42,-1
 118 402 l 1,43,-1
 127 403 l 2,44,45
 140 404 140 404 141 414.5 c 128,-1,46
 142 425 142 425 142 505 c 2,47,-1
 142 622 l 1,48,49
 130 620 130 620 113 620 c 2,50,-1
 78 620 l 1,51,-1
 78 670 l 1,52,-1
 95 670 l 2,53,54
 130 670 130 670 138 701 c 0,55,56
 142 716 142 716 142 719 c 2,33,-1
EndSplineSet
Validated: 1
EndChar

StartChar: threequarters
Encoding: 190 190 128
Width: 748
GlyphClass: 2
Flags: W
LayerCount: 2
Fore
SplineSet
460 143 m 1,0,-1
 539 143 l 1,1,-1
 539 291 l 1,2,-1
 460 143 l 1,0,-1
600 59 m 1,3,4
 604 44 604 44 614 41 c 1,5,-1
 656 41 l 1,6,-1
 656 -1 l 1,7,-1
 480 -1 l 1,8,-1
 480 41 l 1,9,-1
 515 41 l 1,10,-1
 524 42 l 2,11,12
 536 43 536 43 539 55 c 1,13,-1
 539 88 l 1,14,-1
 376 88 l 1,15,-1
 539 380 l 1,16,-1
 600 380 l 1,17,-1
 600 143 l 1,18,-1
 661 143 l 1,19,-1
 661 88 l 1,20,-1
 600 88 l 1,21,-1
 600 59 l 1,3,4
674 735 m 1,22,-1
 148 0 l 1,23,-1
 74 0 l 1,24,-1
 600 735 l 1,25,-1
 674 735 l 1,22,-1
40 372 m 1,26,27
 107 365 107 365 114 365 c 128,-1,28
 121 365 121 365 144 369.5 c 128,-1,29
 167 374 167 374 193.5 397 c 128,-1,30
 220 420 220 420 220 449 c 0,31,32
 220 506 220 506 150 506 c 0,33,34
 134 506 134 506 123 503 c 2,35,-1
 88 493 l 1,36,-1
 81 537 l 1,37,-1
 111 542 l 2,38,39
 117 543 117 543 134 549 c 1,40,41
 201 583 201 583 201 625 c 0,42,43
 201 646 201 646 184 658 c 0,44,45
 176 664 176 664 151 664 c 128,-1,46
 126 664 126 664 82 629 c 1,47,-1
 55 662 l 1,48,-1
 78 678 l 2,49,50
 130 714 130 714 162 714 c 2,51,52
 165 714 l 1,53,-1
 182 713 l 2,54,55
 201 712 201 712 224 700.5 c 128,-1,56
 247 689 247 689 256.5 667 c 128,-1,57
 266 645 266 645 266 619.5 c 128,-1,58
 266 594 266 594 249 574 c 128,-1,59
 232 554 232 554 211 542 c 1,60,61
 287 524 287 524 287 449 c 0,62,63
 287 403 287 403 254 372 c 128,-1,64
 221 341 221 341 185 330.5 c 128,-1,65
 149 320 149 320 119 320 c 128,-1,66
 89 320 89 320 55 325 c 1,67,-1
 40 372 l 1,26,27
EndSplineSet
Validated: 1
EndChar
StartChar: questiondown
Encoding: 191 191 129
Width: 463
GlyphClass: 2
Flags: W
LayerCount: 2
Fore
SplineSet
352 507 m 128,-1,1
 352 480 352 480 333 461 c 128,-1,2
 314 442 314 442 287 442 c 128,-1,3
 260 442 260 442 241 461 c 128,-1,4
 222 480 222 480 222 507 c 128,-1,5
 222 534 222 534 241 553 c 128,-1,6
 260 572 260 572 287 572 c 128,-1,7
 314 572 314 572 333 553 c 128,-1,0
 352 534 352 534 352 507 c 128,-1,1
423 -166 m 1,8,9
 365 -193 365 -193 276 -190.5 c 128,-1,10
 187 -188 187 -188 134.5 -157 c 128,-1,11
 82 -126 82 -126 57.5 -74 c 128,-1,12
 33 -22 33 -22 45 32 c 1,13,14
 61 114 61 114 146 158 c 0,15,16
 173 173 173 173 195.5 183.5 c 128,-1,17
 218 194 218 194 234 216 c 0,18,19
 266 258 266 258 266 362 c 1,20,-1
 315 362 l 1,21,22
 315 344 315 344 316.5 313 c 128,-1,23
 318 282 318 282 318 270 c 0,24,25
 317 183 317 183 290 166.5 c 128,-1,26
 263 150 263 150 228 128 c 128,-1,27
 193 106 193 106 173 74 c 128,-1,28
 153 42 153 42 144 8 c 128,-1,29
 135 -26 135 -26 148 -60 c 128,-1,30
 161 -94 161 -94 197 -115 c 128,-1,31
 233 -136 233 -136 276 -138 c 0,32,33
 359 -142 359 -142 421 -86 c 1,34,-1
 423 -166 l 1,8,9
EndSplineSet
EndChar
StartChar: AE
Encoding: 198 198 136
Width: 945
GlyphClass: 2
Flags: W
LayerCount: 2
Fore
SplineSet
706 416 m 1,0,1
 756 432 756 432 756 482 c 2,2,-1
 756 527 l 1,3,-1
 801 527 l 1,4,-1
 801 259 l 1,5,-1
 756 259 l 1,6,-1
 756 310 l 2,7,8
 756 349 756 349 706 370 c 1,9,-1
 590 370 l 1,10,-1
 590 91 l 1,11,12
 594 70 594 70 609 57 c 0,13,14
 617 51 617 51 630 48 c 1,15,-1
 808 47 l 1,16,17
 860 54 860 54 860 103 c 2,18,-1
 860 158 l 1,19,-1
 905 158 l 1,20,-1
 905 0 l 1,21,-1
 393 0 l 1,22,-1
 393 47 l 1,23,-1
 464 47 l 1,24,25
 505 53 505 53 505 92 c 2,26,-1
 505 268 l 1,27,-1
 295 268 l 1,28,-1
 207 91 l 1,29,30
 207 49 207 49 235 46 c 0,31,32
 249 45 249 45 261 45 c 128,-1,33
 273 45 273 45 281 45 c 1,34,-1
 281 0 l 1,35,-1
 20 0 l 1,36,-1
 20 45 l 1,37,-1
 84 45 l 1,38,39
 118 51 118 51 139 91 c 2,40,-1
 453 690 l 1,41,-1
 393 690 l 1,42,-1
 393 735 l 1,43,44
 393 735 393 735 883 735 c 1,45,-1
 883 576 l 1,46,-1
 838 576 l 1,47,-1
 838 637 l 1,48,49
 834 665 834 665 788 688 c 1,50,-1
 626 688 l 1,51,52
 609 685 609 685 590 650 c 1,53,-1
 590 416 l 1,54,-1
 706 416 l 1,0,1
502 654 m 1,55,-1
 316 315 l 1,56,-1
 505 315 l 1,57,-1
 505 645 l 1,58,-1
 504 645 l 1,59,60
 503 649 503 649 502 654 c 1,55,-1
EndSplineSet
EndChar

StartChar: Eth
Encoding: 208 208 146
Width: 785
GlyphClass: 2
Flags: W
LayerCount: 2
Fore
SplineSet
407 50 m 2,0,1
 470 50 470 50 521 97 c 128,-1,2
 572 144 572 144 598.5 215.5 c 128,-1,3
 625 287 625 287 625 372.5 c 128,-1,4
 625 458 625 458 598 530.5 c 128,-1,5
 571 603 571 603 519.5 646 c 128,-1,6
 468 689 468 689 401 689 c 2,7,-1
 288 689 l 1,8,-1
 288 688 l 1,9,10
 260 684 260 684 247 659 c 1,11,-1
 247 389 l 1,12,-1
 419 389 l 1,13,-1
 419 346 l 1,14,-1
 247 346 l 1,15,-1
 247 91 l 1,16,17
 252 62 252 62 278 50 c 1,18,-1
 407 50 l 2,0,1
467 735 m 2,19,20
 533 735 533 735 596 680.5 c 128,-1,21
 659 626 659 626 697 540 c 128,-1,22
 735 454 735 454 735 368.5 c 128,-1,23
 735 283 735 283 697.5 198.5 c 128,-1,24
 660 114 660 114 592.5 57 c 128,-1,25
 525 0 525 0 448 0 c 2,26,-1
 40 0 l 1,27,-1
 40 45 l 1,28,-1
 111 45 l 1,29,-1
 111 46 l 1,30,31
 139 50 139 50 152 75 c 1,32,-1
 152 346 l 1,33,-1
 40 346 l 1,34,-1
 40 389 l 1,35,-1
 152 389 l 1,36,-1
 152 645 l 1,37,-1
 151 645 l 1,38,39
 148 662 148 662 135.5 674.5 c 128,-1,40
 123 687 123 687 105 690 c 1,41,-1
 40 690 l 1,42,-1
 40 735 l 1,43,-1
 467 735 l 2,19,20
EndSplineSet
EndChar

StartChar: multiply
Encoding: 215 215 153
Width: 475
GlyphClass: 2
Flags: W
LayerCount: 2
Fore
SplineSet
282 352 m 1,0,-1
 438 197 l 1,1,-1
 393 152 l 1,2,-1
 238 308 l 1,3,-1
 82 152 l 1,4,-1
 37 197 l 1,5,-1
 192 352 l 1,6,-1
 37 508 l 1,7,-1
 82 553 l 1,8,-1
 238 398 l 1,9,-1
 393 553 l 1,10,-1
 438 508 l 1,11,-1
 282 352 l 1,0,-1
EndSplineSet
EndChar

StartChar: Oslash
Encoding: 216 216 154
Width: 814
GlyphClass: 2
Flags: W
LayerCount: 2
Fore
SplineSet
618 557 m 1,0,-1
 222 132 l 1,1,-1
 231 120 l 1,2,3
 306 34 306 34 414 34 c 128,-1,4
 522 34 522 34 593.5 126.5 c 128,-1,5
 665 219 665 219 665 345.5 c 128,-1,6
 665 472 665 472 618 557 c 1,0,-1
132 104 m 1,7,8
 30 214 30 214 30 360 c 0,9,10
 30 464 30 464 82 551.5 c 128,-1,11
 134 639 134 639 219 692 c 128,-1,12
 304 745 304 745 407 745 c 0,13,14
 544 745 544 745 648 657 c 1,15,-1
 708 722 l 1,16,-1
 772 722 l 1,17,-1
 681 625 l 1,18,19
 784 513 784 513 784 362 c 0,20,21
 784 253 784 253 731.5 167 c 128,-1,22
 679 81 679 81 594.5 30.5 c 128,-1,23
 510 -20 510 -20 407 -20 c 0,24,25
 271 -20 271 -20 165 71 c 1,26,-1
 99 0 l 1,27,-1
 35 0 l 1,28,-1
 132 104 l 1,7,8
405 692 m 2,29,-1
 389 692 l 2,30,31
 294 692 294 692 221.5 594 c 128,-1,32
 149 496 149 496 149 375 c 128,-1,33
 149 254 149 254 195 172 c 1,34,-1
 591 596 l 1,35,-1
 583 606 l 1,36,37
 509 692 509 692 405 692 c 2,29,-1
EndSplineSet
Validated: 1
EndChar

StartChar: Thorn
Encoding: 222 222 160
Width: 585
GlyphClass: 2
Flags: W
LayerCount: 2
Fore
SplineSet
173 547 m 1,0,-1
 173 223 l 1,1,-1
 283 223 l 2,2,3
 363 223 363 223 425 305 c 0,4,5
 442 328 442 328 442 383 c 128,-1,6
 442 438 442 438 424 467 c 0,7,8
 377 547 377 547 296 547 c 2,9,-1
 173 547 l 1,0,-1
546 392 m 2,10,-1
 546 382 l 2,11,12
 546 325 546 325 509 264 c 0,13,14
 458 180 458 180 316 172 c 0,15,16
 281 170 281 170 173 170 c 1,17,-1
 173 69 l 1,18,19
 180 39 180 39 199 39 c 2,20,-1
 252 39 l 1,21,-1
 252 -6 l 1,22,-1
 11 -6 l 1,23,-1
 11 39 l 1,24,-1
 69 40 l 1,25,-1
 90 69 l 1,26,-1
 90 657 l 1,27,-1
 69 686 l 1,28,-1
 11 687 l 1,29,-1
 11 732 l 1,30,-1
 252 732 l 1,31,-1
 252 687 l 1,32,-1
 199 687 l 2,33,34
 180 687 180 687 173 657 c 1,35,-1
 173 599 l 1,36,-1
 267 599 l 2,37,38
 299 599 299 599 321 598 c 0,39,40
 433 593 433 593 508 510 c 0,41,42
 546 468 546 468 546 392 c 2,10,-1
EndSplineSet
Validated: 1
EndChar

StartChar: germandbls
Encoding: 223 223 161
Width: 619
GlyphClass: 2
Flags: W
LayerCount: 2
Fore
SplineSet
55 520 m 2,0,1
 55 659 55 659 126 731 c 128,-1,2
 197 803 197 803 286.5 803 c 128,-1,3
 376 803 376 803 439 753 c 128,-1,4
 502 703 502 703 502 619 c 2,5,-1
 502 547 l 1,6,7
 488 548 488 548 476 548 c 0,8,9
 351 548 351 548 351 430 c 2,10,-1
 351 428 l 2,11,12
 351 408 351 408 437 367 c 0,13,14
 479 347 479 347 497.5 335 c 128,-1,15
 516 323 516 323 539 302 c 0,16,17
 589 258 589 258 589 185 c 0,18,19
 589 134 589 134 569 96 c 0,20,21
 519 -3 519 -3 369 -3 c 2,22,-1
 367 -3 l 2,23,24
 275 -3 275 -3 195 50 c 1,25,-1
 244 93 l 1,26,27
 246 83 246 83 304 60 c 0,28,29
 326 51 326 51 373 51 c 0,30,31
 495 51 495 51 495 180 c 0,32,33
 495 211 495 211 480 228 c 1,34,35
 443 266 443 266 397 290 c 0,36,37
 266 356 266 356 266 427 c 2,38,-1
 266 431 l 2,39,40
 266 491 266 491 303 538 c 128,-1,41
 340 585 340 585 409 611 c 1,42,-1
 409 649 l 2,43,44
 409 691 409 691 383 722 c 128,-1,45
 357 753 357 753 292.5 753 c 128,-1,46
 228 753 228 753 188 701 c 128,-1,47
 148 649 148 649 148 520 c 2,48,-1
 148 1 l 1,49,-1
 5 0 l 1,50,-1
 5 35 l 1,51,52
 55 40 55 40 55 78 c 2,53,-1
 55 520 l 2,0,1
EndSplineSet
Validated: 1
EndChar
StartChar: ae
Encoding: 230 230 168
Width: 797
GlyphClass: 2
Flags: W
LayerCount: 2
Fore
SplineSet
577 -15 m 0,0,1
 459 -15 459 -15 398 80 c 1,2,3
 343 -14 343 -14 227 -14 c 2,4,-1
 226 -14 l 2,5,6
 140 -14 140 -14 85 28.5 c 128,-1,7
 30 71 30 71 30 135 c 2,8,-1
 30 138 l 2,9,10
 30 223 30 223 126 279 c 0,11,12
 175 308 175 308 256.5 308 c 128,-1,13
 338 308 338 308 344 305 c 1,14,-1
 345 352 l 2,15,16
 346 393 346 393 334 406 c 0,17,18
 299 442 299 442 229.5 442 c 128,-1,19
 160 442 160 442 71 380 c 1,20,-1
 69 457 l 1,21,22
 155 505 155 505 245 505 c 2,23,-1
 250 505 l 2,24,25
 313 505 313 505 369 461 c 0,26,27
 388 446 388 446 402 420 c 1,28,29
 484 510 484 510 572.5 510 c 128,-1,30
 661 510 661 510 709 442.5 c 128,-1,31
 757 375 757 375 757 265 c 2,32,-1
 757 241 l 1,33,-1
 438 241 l 1,34,-1
 438 223 l 1,35,36
 449 155 449 155 478 97 c 1,37,38
 522 39 522 39 600.5 39 c 128,-1,39
 679 39 679 39 749 98 c 1,40,-1
 746 34 l 1,41,42
 669 -15 669 -15 581 -15 c 0,43,44
 579 -15 579 -15 577 -15 c 0,0,1
660 293 m 1,45,46
 658 448 658 448 573 448 c 2,47,-1
 572 448 l 2,48,49
 462 448 462 448 438 306 c 1,50,-1
 438 293 l 1,51,-1
 660 293 l 1,45,46
344 219 m 1,52,53
 343 230 343 230 343 242 c 1,54,55
 335 254 335 254 274 254 c 2,56,-1
 269 254 l 2,57,58
 215 254 215 254 173 224 c 128,-1,59
 131 194 131 194 131 143 c 0,60,61
 131 136 131 136 132 129 c 0,62,63
 141 47 141 47 229 47 c 0,64,65
 276 47 276 47 300.5 72 c 128,-1,66
 325 97 325 97 334.5 122 c 128,-1,67
 344 147 344 147 344 191 c 2,68,-1
 344 219 l 1,52,53
EndSplineSet
Validated: 33
EndChar

StartChar: eth
Encoding: 240 240 178
Width: 535
GlyphClass: 2
Flags: W
LayerCount: 2
Fore
SplineSet
382 200 m 0,0,1
 384 216 384 216 384 231 c 0,2,3
 384 293 384 293 363.5 349.5 c 128,-1,4
 343 406 343 406 253 406 c 0,5,6
 209 406 209 406 180 356.5 c 128,-1,7
 151 307 151 307 151 237 c 2,8,-1
 151 235 l 2,9,10
 151 156 151 156 178.5 100 c 128,-1,11
 206 44 206 44 273 44 c 0,12,13
 362 44 362 44 382 200 c 0,0,1
479 323 m 0,14,15
 482 293 482 293 482 263 c 0,16,17
 482 67 482 67 357 12 c 0,18,19
 314 -7 314 -7 274 -7 c 2,20,-1
 273 -7 l 2,21,22
 160 -7 160 -7 107 64 c 128,-1,23
 54 135 54 135 54 231.5 c 128,-1,24
 54 328 54 328 116.5 394.5 c 128,-1,25
 179 461 179 461 249 462 c 1,26,27
 338 462 338 462 377 420 c 1,28,29
 334 542 334 542 234 618 c 1,30,-1
 122 517 l 1,31,-1
 97 548 l 1,32,-1
 198 639 l 1,33,34
 166 672 166 672 70 702 c 1,35,-1
 66 740 l 1,36,37
 163 724 163 724 243 680 c 1,38,-1
 321 754 l 1,39,-1
 348 719 l 1,40,-1
 282 656 l 1,41,42
 363 593 363 593 417 498 c 128,-1,43
 471 403 471 403 479 323 c 0,14,15
EndSplineSet
Validated: 1
EndChar

StartChar: divide
Encoding: 247 247 185
Width: 540
GlyphClass: 2
Flags: W
LayerCount: 2
Fore
SplineSet
490 317 m 1,0,-1
 490 255 l 1,1,-1
 50 255 l 1,2,-1
 50 317 l 1,3,-1
 490 317 l 1,0,-1
211 459 m 128,-1,5
 211 483 211 483 228.5 500.5 c 128,-1,6
 246 518 246 518 270 518 c 128,-1,7
 294 518 294 518 311.5 500.5 c 128,-1,8
 329 483 329 483 329 459 c 128,-1,9
 329 435 329 435 311.5 417.5 c 128,-1,10
 294 400 294 400 270 400 c 128,-1,11
 246 400 246 400 228.5 417.5 c 128,-1,4
 211 435 211 435 211 459 c 128,-1,5
211 110.5 m 128,-1,13
 211 135 211 135 228.5 152.5 c 128,-1,14
 246 170 246 170 270 170 c 128,-1,15
 294 170 294 170 311.5 152.5 c 128,-1,16
 329 135 329 135 329 110.5 c 128,-1,17
 329 86 329 86 311.5 68.5 c 128,-1,18
 294 51 294 51 270 51 c 128,-1,19
 246 51 246 51 228.5 68.5 c 128,-1,12
 211 86 211 86 211 110.5 c 128,-1,13
EndSplineSet
Validated: 1
EndChar
StartChar: oslash
Encoding: 248 248 186
Width: 550
GlyphClass: 2
Flags: W
LayerCount: 2
Fore
SplineSet
372 398 m 1,0,1
 326 458 326 458 266 458 c 128,-1,2
 206 458 206 458 164.5 394.5 c 128,-1,3
 123 331 123 331 123 259 c 128,-1,4
 123 187 123 187 147 136 c 1,5,-1
 372 398 l 1,0,1
423 458 m 1,6,-1
 456 496 l 1,7,-1
 520 496 l 1,8,-1
 457 423 l 1,9,10
 520 347 520 347 520 242 c 128,-1,11
 520 137 520 137 446.5 59 c 128,-1,12
 373 -19 373 -19 272 -19 c 0,13,14
 187 -19 187 -19 124 35 c 1,15,-1
 94 0 l 1,16,-1
 30 0 l 1,17,-1
 90 70 l 1,18,19
 30 145 30 145 30 250 c 128,-1,20
 30 355 30 355 100 435 c 128,-1,21
 170 515 170 515 272 515 c 0,22,23
 357 515 357 515 423 458 c 1,6,-1
398 354 m 1,24,-1
 174 93 l 1,25,26
 218 37 218 37 277.5 37 c 128,-1,27
 337 37 337 37 379 99 c 128,-1,28
 421 161 421 161 421 232 c 128,-1,29
 421 303 421 303 398 354 c 1,24,-1
EndSplineSet
EndChar
StartChar: thorn
Encoding: 254 254 192
Width: 585
GlyphClass: 2
Flags: W
LayerCount: 2
Fore
SplineSet
186 447 m 1,0,1
 241 514 241 514 329 515 c 1,2,-1
 332 515 l 2,3,4
 436 515 436 515 500.5 440.5 c 128,-1,5
 565 366 565 366 565 245.5 c 128,-1,6
 565 125 565 125 499.5 55 c 128,-1,7
 434 -15 434 -15 332 -15 c 2,8,-1
 329 -15 l 1,9,10
 242 -14 242 -14 185 51 c 1,11,-1
 185 -95 l 1,12,13
 192 -125 192 -125 221 -125 c 2,14,-1
 269 -125 l 1,15,-1
 269 -170 l 1,16,-1
 18 -170 l 1,17,-1
 18 -125 l 1,18,-1
 71 -124 l 1,19,20
 91 -120 91 -120 102 -95 c 1,21,-1
 102 630 l 1,22,-1
 27 630 l 1,23,-1
 27 650 l 1,24,-1
 146 730 l 1,25,26
 146 730 146 730 186 730 c 1,27,-1
 186 447 l 1,0,1
422 395 m 128,-1,29
 386 450 386 450 321 450 c 0,30,31
 202 450 202 450 188 272 c 1,32,-1
 188 218 l 1,33,34
 197 52 197 52 321 51 c 0,35,36
 381 51 381 51 419 103 c 128,-1,37
 457 155 457 155 459 249 c 1,38,28
 458 340 458 340 422 395 c 128,-1,29
EndSplineSet
Validated: 1
EndChar

StartChar: dcroat
Encoding: 273 273 211
Width: 568
GlyphClass: 2
Flags: W
LayerCount: 2
Fore
SplineSet
40 254.5 m 128,-1,1
 40 375 40 375 104.5 444 c 128,-1,2
 169 513 169 513 267 513 c 128,-1,3
 365 513 365 513 424 439 c 1,4,-1
 424 557 l 1,5,-1
 258 557 l 1,6,-1
 258 609 l 1,7,-1
 424 609 l 1,8,-1
 424 640 l 1,9,-1
 349 640 l 1,10,-1
 349 660 l 1,11,-1
 468 740 l 1,12,-1
 508 740 l 1,13,-1
 508 609 l 1,14,-1
 568 609 l 1,15,-1
 568 557 l 1,16,-1
 508 557 l 1,17,-1
 508 66 l 1,18,19
 514 59 514 59 523 59 c 0,20,21
 529 59 529 59 560 98 c 1,22,-1
 560 53 l 1,23,24
 544 -13 544 -13 495 -13 c 128,-1,25
 446 -13 446 -13 424 58 c 1,26,-1
 425 61 l 1,27,-1
 424 63 l 1,28,29
 364 -15 364 -15 266.5 -15 c 128,-1,30
 169 -15 169 -15 104.5 59.5 c 128,-1,0
 40 134 40 134 40 254.5 c 128,-1,1
178 105 m 128,-1,32
 216 50 216 50 284 50 c 0,33,34
 409 50 409 50 424 228 c 1,35,-1
 424 282 l 1,36,37
 415 448 415 448 284 449 c 0,38,39
 221 449 221 449 181 397 c 128,-1,40
 141 345 141 345 139 251 c 1,41,31
 140 160 140 160 178 105 c 128,-1,32
EndSplineSet
Validated: 1
EndChar

StartChar: Hbar
Encoding: 294 294 232
Width: 900
GlyphClass: 2
Flags: W
LayerCount: 2
Fore
SplineSet
634 542 m 1,0,-1
 257 542 l 1,1,-1
 257 393 l 1,2,-1
 634 393 l 1,3,-1
 634 542 l 1,0,-1
257 75 m 1,4,5
 264 45 264 45 303 45 c 2,6,-1
 368 45 l 1,7,-1
 368 0 l 1,8,-1
 50 0 l 1,9,-1
 50 45 l 1,10,-1
 121 45 l 1,11,-1
 121 46 l 1,12,13
 149 50 149 50 162 75 c 1,14,-1
 162 542 l 1,15,-1
 50 542 l 1,16,-1
 50 580 l 1,17,-1
 162 580 l 1,18,-1
 162 652 l 1,19,20
 158 675 158 675 115 682 c 1,21,-1
 50 682 l 1,22,-1
 50 727 l 1,23,-1
 368 727 l 1,24,-1
 368 682 l 1,25,-1
 298 682 l 1,26,-1
 298 681 l 1,27,28
 270 677 270 677 257 652 c 1,29,-1
 257 580 l 1,30,-1
 634 580 l 1,31,-1
 634 652 l 1,32,33
 630 675 630 675 587 682 c 1,34,-1
 522 682 l 1,35,-1
 522 727 l 1,36,-1
 840 727 l 1,37,-1
 840 682 l 1,38,-1
 770 682 l 1,39,-1
 770 681 l 1,40,41
 742 677 742 677 729 652 c 1,42,-1
 729 580 l 1,43,-1
 840 580 l 1,44,-1
 840 542 l 1,45,-1
 729 542 l 1,46,-1
 729 75 l 1,47,48
 736 45 736 45 775 45 c 2,49,-1
 840 45 l 1,50,-1
 840 0 l 1,51,-1
 522 0 l 1,52,-1
 522 45 l 1,53,-1
 593 45 l 1,54,-1
 593 46 l 1,55,56
 621 50 621 50 634 75 c 1,57,-1
 634 346 l 1,58,-1
 257 346 l 1,59,-1
 257 75 l 1,4,5
EndSplineSet
Validated: 1
EndChar

StartChar: hbar
Encoding: 295 295 233
Width: 603
GlyphClass: 2
Flags: W
LayerCount: 2
Fore
SplineSet
168 406 m 1,0,1
 215 503 215 503 322 503 c 0,2,3
 410 503 410 503 462 446.5 c 128,-1,4
 514 390 514 390 514 291 c 2,5,-1
 514 75 l 1,6,7
 521 45 521 45 540 45 c 2,8,-1
 583 45 l 1,9,-1
 583 0 l 1,10,-1
 357 0 l 1,11,-1
 357 45 l 1,12,-1
 405 46 l 1,13,-1
 426 75 l 1,14,-1
 426 274 l 2,15,16
 426 332 426 332 403.5 392 c 128,-1,17
 381 452 381 452 322.5 452 c 128,-1,18
 264 452 264 452 216 406.5 c 128,-1,19
 168 361 168 361 168 297 c 2,20,-1
 168 75 l 1,21,22
 175 45 175 45 194 45 c 2,23,-1
 237 45 l 1,24,-1
 237 0 l 1,25,-1
 16 0 l 1,26,-1
 16 45 l 1,27,-1
 64 46 l 1,28,-1
 85 75 l 1,29,-1
 85 539 l 1,30,-1
 10 539 l 1,31,-1
 10 580 l 1,32,-1
 85 580 l 1,33,-1
 85 640 l 1,34,-1
 10 640 l 1,35,-1
 10 660 l 1,36,-1
 129 740 l 1,37,-1
 168 740 l 1,38,-1
 168 580 l 1,39,-1
 322 580 l 1,40,-1
 322 539 l 1,41,-1
 168 539 l 1,42,-1
 168 406 l 1,0,1
EndSplineSet
Validated: 1
EndChar
StartChar: dotlessi
Encoding: 305 305 243
Width: 285
GlyphClass: 2
Flags: W
LayerCount: 2
Fore
SplineSet
185 75 m 1,0,1
 192 45 192 45 221 45 c 2,2,-1
 269 45 l 1,3,-1
 269 0 l 1,4,-1
 18 0 l 1,5,-1
 18 45 l 1,6,-1
 71 46 l 1,7,8
 91 50 91 50 102 75 c 1,9,-1
 102 440 l 1,10,-1
 27 440 l 1,11,-1
 27 460 l 1,12,-1
 146 520 l 1,13,-1
 185 520 l 1,14,-1
 185 75 l 1,0,1
EndSplineSet
EndChar

StartChar: Lslash
Encoding: 321 321 259
Width: 700
GlyphClass: 2
Flags: W
LayerCount: 2
Fore
SplineSet
247 91 m 1,0,1
 252 62 252 62 278 48 c 1,2,-1
 505 47 l 2,3,4
 615 47 615 47 615 145 c 2,5,-1
 615 179 l 1,6,-1
 660 179 l 1,7,-1
 660 0 l 1,8,-1
 40 0 l 1,9,-1
 40 45 l 1,10,-1
 111 45 l 1,11,-1
 111 46 l 1,12,13
 139 50 139 50 152 75 c 1,14,-1
 152 364 l 1,15,-1
 40 332 l 1,16,-1
 40 375 l 1,17,-1
 152 407 l 1,18,-1
 152 645 l 1,19,-1
 151 645 l 1,20,21
 148 662 148 662 135.5 674.5 c 128,-1,22
 123 687 123 687 105 690 c 1,23,-1
 40 690 l 1,24,-1
 40 735 l 1,25,-1
 365 735 l 1,26,-1
 365 688 l 1,27,-1
 283 688 l 1,28,29
 266 685 266 685 247 650 c 1,30,-1
 247 434 l 1,31,-1
 390 475 l 1,32,-1
 390 432 l 1,33,-1
 247 391 l 1,34,-1
 247 91 l 1,0,1
EndSplineSet
EndChar

StartChar: lslash
Encoding: 322 322 260
Width: 382
GlyphClass: 2
Flags: W
LayerCount: 2
Fore
SplineSet
366 475 m 1,0,-1
 366 432 l 1,1,-1
 228 393 l 1,2,-1
 228 75 l 1,3,4
 235 45 235 45 254 45 c 2,5,-1
 307 45 l 1,6,-1
 307 0 l 1,7,-1
 66 0 l 1,8,-1
 66 45 l 1,9,-1
 124 46 l 1,10,-1
 145 75 l 1,11,-1
 145 369 l 1,12,-1
 16 332 l 1,13,-1
 16 375 l 1,14,-1
 145 412 l 1,15,-1
 145 640 l 1,16,-1
 70 640 l 1,17,-1
 70 660 l 1,18,-1
 189 740 l 1,19,-1
 228 740 l 1,20,-1
 228 436 l 1,21,-1
 366 475 l 1,0,-1
EndSplineSet
Validated: 1
EndChar

StartChar: Eng
Encoding: 330 330 268
Width: 680
GlyphClass: 2
Flags: W
LayerCount: 2
Fore
SplineSet
184 623 m 1,0,1
 221 718 221 718 378 718 c 0,2,3
 610 717 610 717 610 485 c 2,4,-1
 610 -31 l 2,5,6
 610 -105 610 -105 567 -151 c 128,-1,7
 524 -197 524 -197 411 -197 c 0,8,9
 387 -197 387 -197 359 -195 c 1,10,-1
 359 -176 l 2,11,12
 359 -162 359 -162 348 -144 c 1,13,14
 467 -144 467 -144 492 -120.5 c 128,-1,15
 517 -97 517 -97 517 -59 c 2,16,-1
 517 465 l 2,17,18
 517 659 517 659 371 659 c 0,19,20
 184 659 184 659 184 460 c 2,21,-1
 184 75 l 1,22,23
 191 45 191 45 220 45 c 2,24,-1
 258 45 l 1,25,-1
 258 0 l 1,26,-1
 27 0 l 1,27,-1
 27 45 l 1,28,-1
 70 46 l 1,29,30
 90 50 90 50 101 75 c 1,31,-1
 101 627 l 1,32,-1
 26 627 l 1,33,-1
 26 647 l 1,34,-1
 145 727 l 1,35,-1
 184 727 l 1,36,-1
 184 623 l 1,0,1
EndSplineSet
Validated: 1
EndChar

StartChar: eng
Encoding: 331 331 269
Width: 529
GlyphClass: 2
Flags: W
LayerCount: 2
Fore
SplineSet
184 416 m 1,0,1
 221 511 221 511 310 511 c 0,2,3
 469 510 469 510 469 320 c 2,4,-1
 469 -31 l 2,5,6
 469 -104 469 -104 422 -155 c 0,7,8
 382 -197 382 -197 270 -197 c 0,9,10
 246 -197 246 -197 218 -195 c 1,11,12
 218 -190 218 -190 218 -176 c 128,-1,13
 218 -162 218 -162 207 -144 c 1,14,15
 336 -144 336 -144 362 -119 c 0,16,17
 386 -97 386 -97 386 -59 c 2,18,-1
 386 300 l 2,19,20
 386 456 386 456 303 456 c 0,21,22
 184 456 184 456 184 253 c 2,23,-1
 184 75 l 1,24,25
 191 45 191 45 220 45 c 2,26,-1
 258 45 l 1,27,-1
 258 0 l 1,28,-1
 27 0 l 1,29,-1
 27 45 l 1,30,-1
 70 46 l 1,31,32
 90 50 90 50 101 75 c 1,33,-1
 101 420 l 1,34,-1
 26 420 l 1,35,-1
 26 440 l 1,36,-1
 145 520 l 1,37,-1
 184 520 l 1,38,-1
 184 416 l 1,0,1
EndSplineSet
EndChar
StartChar: OE
Encoding: 338 338 276
Width: 880
GlyphClass: 2
Flags: W
LayerCount: 2
Fore
SplineSet
377 681 m 0,0,1
 296 681 296 681 215.5 599 c 128,-1,2
 135 517 135 517 135 355 c 128,-1,3
 135 193 135 193 225 119 c 0,4,5
 304 54 304 54 391 54 c 0,6,7
 433 54 433 54 445 55 c 1,8,-1
 445 680 l 1,9,10
 436 681 436 681 377 681 c 0,0,1
76.5 170 m 128,-1,12
 30 256 30 256 30 360 c 128,-1,13
 30 464 30 464 76 551.5 c 128,-1,14
 122 639 122 639 206.5 687 c 128,-1,15
 291 735 291 735 385 735 c 2,16,17
 385 735 385 735 834 735 c 1,18,-1
 834 576 l 1,19,-1
 789 576 l 1,20,-1
 789 637 l 1,21,22
 785 665 785 665 739 688 c 1,23,-1
 577 688 l 1,24,25
 560 685 560 685 541 650 c 1,26,-1
 541 416 l 1,27,-1
 651 416 l 1,28,29
 701 432 701 432 701 482 c 2,30,-1
 701 527 l 1,31,-1
 746 527 l 1,32,-1
 746 259 l 1,33,-1
 701 259 l 1,34,-1
 701 310 l 2,35,36
 701 349 701 349 651 370 c 1,37,-1
 541 370 l 1,38,-1
 541 91 l 1,39,40
 546 62 546 62 572 48 c 1,41,-1
 753 47 l 1,42,43
 805 54 805 54 805 103 c 2,44,-1
 805 158 l 1,45,-1
 850 158 l 1,46,-1
 850 0 l 1,47,48
 618 0 618 0 385 0 c 0,49,50
 292 0 292 0 207.5 42 c 128,-1,11
 123 84 123 84 76.5 170 c 128,-1,12
EndSplineSet
Validated: 1
EndChar
StartChar: oe
Encoding: 339 339 277
Width: 839
GlyphClass: 2
Flags: W
LayerCount: 2
Fore
SplineSet
368 267 m 0,0,1
 363 343 363 343 327.5 400.5 c 128,-1,2
 292 458 292 458 243.5 458 c 128,-1,3
 195 458 195 458 161 394.5 c 128,-1,4
 127 331 127 331 127 245 c 128,-1,5
 127 159 127 159 165.5 98 c 128,-1,6
 204 37 204 37 252.5 37 c 128,-1,7
 301 37 301 37 333 96 c 128,-1,8
 365 155 365 155 369 224 c 1,9,10
 368 236 368 236 368 247 c 128,-1,11
 368 258 368 258 368 267 c 0,0,1
468 197 m 1,12,13
 495 39 495 39 626 39 c 0,14,15
 708 39 708 39 780 98 c 1,16,-1
 777 34 l 1,17,18
 698 -15 698 -15 606 -15 c 0,19,20
 604 -15 604 -15 602 -15 c 0,21,22
 478 -15 478 -15 417 73 c 1,23,24
 347 -19 347 -19 251.5 -19 c 128,-1,25
 156 -19 156 -19 93 59 c 128,-1,26
 30 137 30 137 30 246 c 128,-1,27
 30 355 30 355 93 435 c 128,-1,28
 156 515 156 515 251 515 c 128,-1,29
 346 515 346 515 415 422 c 1,30,31
 422 431 422 431 429 439 c 0,32,33
 497 510 497 510 600 510 c 128,-1,34
 703 510 703 510 751 438 c 128,-1,35
 799 366 799 366 799 256 c 2,36,-1
 799 232 l 1,37,-1
 472 232 l 1,38,39
 471 214 471 214 468 197 c 1,12,13
712 284 m 1,40,41
 710 448 710 448 603 448 c 2,42,-1
 602 448 l 2,43,44
 490 448 490 448 468 295 c 1,45,46
 469 290 469 290 470 284 c 1,47,-1
 712 284 l 1,40,41
EndSplineSet
Validated: 1
EndChar
StartChar: Tbar
Encoding: 358 358 296
Width: 773
GlyphClass: 2
Flags: W
LayerCount: 2
Fore
SplineSet
569 317 m 1,0,-1
 569 275 l 1,1,-1
 431 275 l 1,2,-1
 431 86 l 1,3,4
 449 50 449 50 467 48 c 1,5,-1
 578 48 l 1,6,-1
 578 0 l 1,7,-1
 194 0 l 1,8,-1
 194 46 l 1,9,-1
 289 46 l 1,10,11
 307 48 307 48 319 61 c 128,-1,12
 331 74 331 74 335 90 c 1,13,-1
 335 275 l 1,14,-1
 195 275 l 1,15,-1
 195 317 l 1,16,-1
 335 317 l 1,17,-1
 335 660 l 1,18,19
 325 682 325 682 304 688 c 1,20,21
 84 688 84 688 84 590 c 2,22,-1
 84 556 l 1,23,-1
 40 556 l 1,24,-1
 40 736 l 1,25,-1
 733 736 l 1,26,-1
 733 556 l 1,27,-1
 689 556 l 1,28,-1
 689 590 l 2,29,30
 689 688 689 688 579 688 c 2,31,-1
 461 688 l 1,32,33
 435 674 435 674 431 644 c 1,34,-1
 431 317 l 1,35,-1
 569 317 l 1,0,-1
EndSplineSet
EndChar

StartChar: tbar
Encoding: 359 359 297
Width: 369
GlyphClass: 2
Flags: W
LayerCount: 2
Fore
SplineSet
354 60 m 1,0,-1
 354 -3 l 1,1,2
 339 -9 339 -9 293 -9 c 2,3,-1
 284 -9 l 2,4,5
 209 -9 209 -9 165 33 c 1,6,7
 111 87 111 87 111 206 c 2,8,-1
 111 275 l 1,9,-1
 20 275 l 1,10,-1
 20 317 l 1,11,-1
 111 317 l 1,12,-1
 111 424 l 1,13,-1
 20 424 l 1,14,-1
 20 472 l 1,15,-1
 58 472 l 1,16,17
 132 476 132 476 142 596 c 1,18,-1
 196 658 l 1,19,-1
 196 472 l 1,20,-1
 314 472 l 1,21,-1
 314 424 l 1,22,-1
 196 424 l 1,23,-1
 196 317 l 1,24,-1
 318 317 l 1,25,-1
 318 275 l 1,26,-1
 196 275 l 1,27,-1
 196 165 l 2,28,29
 196 87 196 87 221 64 c 0,30,31
 242 44 242 44 286 43 c 128,-1,32
 330 42 330 42 354 60 c 1,0,-1
EndSplineSet
EndChar
StartChar: longs
Encoding: 383 383 321
Width: 420
GlyphClass: 2
Flags: W
LayerCount: 2
Fore
SplineSet
450 723 m 5,0,-1
 432 728 l 6,1,2
 414 733 414 733 368.5 733 c 132,-1,3
 323 733 323 733 289 704 c 132,-1,4
 255 675 255 675 255 622 c 6,5,-1
 255 75 l 1,6,7
 262 45 262 45 301 45 c 2,8,-1
 363 45 l 1,9,-1
 363 0 l 1,10,-1
 57 0 l 1,11,-1
 57 45 l 1,12,-1
 125 46 l 1,13,14
 153 50 153 50 166 75 c 1,15,-1
 166 585 l 6,16,17
 166 670 166 670 222 725 c 132,-1,18
 278 780 278 780 351.5 780 c 132,-1,19
 425 780 425 780 450 773 c 5,20,-1
 450 723 l 5,0,-1
EndSplineSet
EndChar
StartChar: uni0186
Encoding: 390 390 322
Width: 741
GlyphClass: 2
Flags: W
LayerCount: 2
Fore
SplineSet
167 692.85546875 m 1,0,1
 223 749 223 749 369.131836735 749.128571429 c 0,2,3
 459.814285714 749.128571429 459.814285714 749.128571429 545 685 c 0,4,5
 701 566 701 566 701 382 c 0,6,7
 701 309 701 309 673 231 c 128,-1,8
 645 153 645 153 600 100 c 128,-1,9
 555 47 555 47 492.5 18 c 128,-1,10
 430 -11 430 -11 351 -11 c 128,-1,11
 272 -11 272 -11 200 16 c 1,12,-1
 185 22 l 1,13,14
 178 26 178 26 161.5 34 c 128,-1,15
 145 42 145 42 127.5 55 c 128,-1,16
 110 68 110 68 94.5 81.5 c 128,-1,17
 79 95 79 95 40 146 c 1,18,-1
 69 170 l 1,19,-1
 89 143 l 1,20,21
 165 50 165 50 335 50 c 0,22,23
 445 50 445 50 520 150.5 c 128,-1,24
 595 251 595 251 595 394 c 0,25,26
 595 506.8 595 506.8 534 580 c 0,27,28
 438.166666667 695 438.166666667 695 317 695 c 0,29,30
 315.853932584 695.011235955 315.853932584 695.011235955 314.710516349 695.011235955 c 0,31,32
 214.08988764 695.011235955 214.08988764 695.011235955 134 608 c 0,33,34
 96 567 96 567 73 512 c 1,35,-1
 73 780 l 1,36,-1
 113 780 l 1,37,38
 125 736 125 736 167 692.85546875 c 1,0,1
EndSplineSet
EndChar
StartChar: uni0187
Encoding: 391 391 323
Width: 750
GlyphClass: 2
Flags: W
LayerCount: 2
Fore
SplineSet
571 725 m 0,0,1
 576 723 576 723 578 723 c 0,2,3
 593 723 593 723 596 740 c 1,4,5
 606 880 606 880 741 880 c 2,6,-1
 742 880 l 2,7,8
 793 880 793 880 826 847 c 0,9,10
 840 833 840 833 840 813 c 128,-1,11
 840 793 840 793 826 779 c 128,-1,12
 812 765 812 765 790 765 c 128,-1,13
 768 765 768 765 758 779 c 1,14,15
 742 817 742 817 734 819 c 0,16,17
 714 823 714 823 695 823 c 0,18,19
 648 823 648 823 648 758 c 2,20,-1
 648 658 l 1,21,-1
 691 592 l 1,22,-1
 663 569 l 1,23,-1
 642 596 l 1,24,-1
 602 634 l 2,25,26
 557 677 557 677 510.5 686 c 128,-1,27
 464 695 464 695 424 695 c 128,-1,28
 384 695 384 695 347 682.5 c 128,-1,29
 310 670 310 670 273.5 643 c 128,-1,30
 237 616 237 616 207 580 c 128,-1,31
 177 544 177 544 159 495 c 128,-1,32
 141 446 141 446 141 394 c 0,33,34
 141 251 141 251 219 150.5 c 128,-1,35
 297 50 297 50 402.5 50 c 128,-1,36
 508 50 508 50 567.5 79.5 c 128,-1,37
 627 109 627 109 655 149 c 1,38,-1
 652 143 l 1,39,-1
 672 170 l 1,40,-1
 701 146 l 1,41,42
 662 95 662 95 646.5 81.5 c 128,-1,43
 631 68 631 68 613.5 55 c 128,-1,44
 596 42 596 42 579.5 34 c 128,-1,45
 563 26 563 26 556 22 c 1,46,-1
 541 16 l 1,47,48
 469 -11 469 -11 390 -11 c 128,-1,49
 311 -11 311 -11 248.5 18 c 128,-1,50
 186 47 186 47 141 100 c 128,-1,51
 96 153 96 153 68 231 c 128,-1,52
 40 309 40 309 40 382 c 0,53,54
 40 566 40 566 196 685 c 1,55,56
 282 749 282 749 395.5 749 c 128,-1,57
 509 749 509 749 571 725 c 0,0,1
EndSplineSet
EndChar

StartChar: uni0188
Encoding: 392 392 324
Width: 510
GlyphClass: 2
Flags: W
LayerCount: 2
Fore
SplineSet
445 69 m 1,0,-1
 445 17 l 1,1,2
 385 -11 385 -11 333 -11 c 2,3,-1
 320 -11 l 1,4,5
 195 -3 195 -3 124 64 c 0,6,7
 45 140 45 140 45 250 c 128,-1,8
 45 360 45 360 130.5 433 c 128,-1,9
 216 506 216 506 324 506 c 0,10,11
 337 506 337 506 387 500 c 1,12,-1
 387 548 l 2,13,14
 387 620 387 620 429 657.5 c 128,-1,15
 471 695 471 695 531 695 c 2,16,-1
 532 695 l 2,17,18
 583 695 583 695 616 662 c 0,19,20
 630 648 630 648 630 628 c 128,-1,21
 630 608 630 608 616 594 c 128,-1,22
 602 580 602 580 580 580 c 128,-1,23
 558 580 558 580 548 594 c 1,24,25
 532 632 532 632 524 634 c 0,26,27
 504 638 504 638 485 638 c 0,28,29
 439 638 439 638 439 576 c 2,30,31
 440 403 l 1,32,33
 428 390 428 390 415.5 390 c 128,-1,34
 403 390 403 390 390 405 c 1,35,36
 377 441 377 441 332 442 c 1,37,38
 258 442 258 442 201 385 c 128,-1,39
 144 328 144 328 144 248 c 128,-1,40
 144 168 144 168 205 106.5 c 128,-1,41
 266 45 266 45 350 45 c 0,42,43
 402 45 402 45 445 69 c 1,0,-1
EndSplineSet
Validated: 1
EndChar
StartChar: uni018E
Encoding: 398 398 326
Width: 710
GlyphClass: 2
Flags: W
LayerCount: 2
Fore
SplineSet
239 416 m 1,0,1
 239 416 239 416 453 416 c 1,2,-1
 453 650 l 1,3,4
 434 685 434 685 417 688 c 1,5,-1
 151 688 l 1,6,7
 105 665 105 665 101 637 c 1,8,-1
 101 576 l 1,9,-1
 56 576 l 1,10,-1
 56 735 l 1,11,-1
 660 735 l 1,12,-1
 660 690 l 1,13,-1
 595 690 l 1,14,15
 577 687 577 687 564.5 674.5 c 128,-1,16
 552 662 552 662 549 645 c 1,17,-1
 548 645 l 1,18,-1
 548 75 l 1,19,20
 561 50 561 50 589 46 c 1,21,-1
 589 45 l 1,22,-1
 660 45 l 1,23,-1
 660 0 l 1,24,-1
 40 0 l 1,25,-1
 40 158 l 1,26,-1
 85 158 l 1,27,-1
 85 103 l 2,28,29
 85 54 85 54 137 47 c 1,30,-1
 422 48 l 1,31,32
 448 62 448 62 453 91 c 1,33,-1
 453 370 l 1,34,-1
 239 370 l 1,35,36
 189 349 189 349 189 310 c 2,37,-1
 189 259 l 1,38,-1
 144 259 l 1,39,-1
 144 527 l 1,40,-1
 189 527 l 1,41,-1
 189 482 l 2,42,43
 189 432 189 432 239 416 c 1,0,1
EndSplineSet
Validated: 1
EndChar
StartChar: uni0191
Encoding: 401 401 327
Width: 710
GlyphClass: 2
Flags: W
LayerCount: 2
Fore
SplineSet
431 416 m 1,0,1
 481 432 481 432 481 482 c 2,2,-1
 481 527 l 1,3,-1
 526 527 l 1,4,-1
 526 259 l 1,5,-1
 481 259 l 1,6,-1
 481 310 l 2,7,8
 481 349 481 349 431 370 c 1,9,-1
 247 370 l 1,10,-1
 247 0 l 2,11,12
 247 -177 247 -177 61 -178 c 0,13,14
 60 -178 60 -178 60 -178 c 2,15,16
 9 -178 9 -178 -24 -145 c 0,17,18
 -38 -131 -38 -131 -38 -111 c 128,-1,19
 -38 -91 -38 -91 -24 -77 c 128,-1,20
 -10 -63 -10 -63 12 -63 c 128,-1,21
 34 -63 34 -63 44 -77 c 1,22,23
 60 -115 60 -115 68 -117 c 0,24,25
 154 -136 154 -136 154 -74 c 2,26,-1
 152 645 l 1,27,-1
 151 645 l 1,28,29
 148 662 148 662 135.5 674.5 c 128,-1,30
 123 687 123 687 105 690 c 1,31,-1
 40 690 l 1,32,-1
 40 735 l 1,33,-1
 644 735 l 1,34,-1
 644 576 l 1,35,-1
 599 576 l 1,36,-1
 599 637 l 1,37,38
 595 665 595 665 549 688 c 1,39,-1
 283 688 l 1,40,41
 266 685 266 685 247 650 c 1,42,-1
 247 416 l 1,43,-1
 431 416 l 1,0,1
EndSplineSet
EndChar
StartChar: uni0193
Encoding: 403 403 328
Width: 802
GlyphClass: 2
Flags: W
LayerCount: 2
Fore
SplineSet
571 725 m 0,0,1
 576 723 576 723 578.5 723 c 128,-1,2
 581 723 581 723 586 722.5 c 128,-1,3
 591 722 591 722 596 729 c 1,4,5
 611 880 611 880 763 880 c 2,6,-1
 764 880 l 2,7,8
 815 880 815 880 848 847 c 0,9,10
 862 833 862 833 862 813 c 128,-1,11
 862 793 862 793 848 779 c 128,-1,12
 834 765 834 765 812 765 c 128,-1,13
 790 765 790 765 780 779 c 1,14,15
 764 817 764 817 756 819 c 0,16,17
 736 823 736 823 720 823 c 0,18,19
 667 825 667 825 670 758 c 2,20,-1
 674 673 l 1,21,-1
 730 592 l 1,22,-1
 700 569 l 1,23,-1
 678 596 l 1,24,-1
 636 634 l 2,25,26
 589 677 589 677 540 686 c 256,27,28
 491 695 491 695 449 695 c 128,-1,29
 407 695 407 695 368 682.5 c 128,-1,30
 329 670 329 670 290.5 643 c 128,-1,31
 252 616 252 616 220.5 580 c 128,-1,32
 189 544 189 544 170 495 c 128,-1,33
 151 446 151 446 151 394 c 0,34,35
 151 246 151 246 227.5 148.5 c 128,-1,36
 304 51 304 51 424 51 c 128,-1,37
 544 51 544 51 595 93 c 1,38,-1
 595 258 l 1,39,40
 586 309 586 309 548 309 c 2,41,-1
 484 309 l 1,42,-1
 484 355 l 1,43,-1
 774 355 l 1,44,-1
 774 309 l 1,45,-1
 716 309 l 1,46,47
 675 310 675 310 675 258 c 2,48,-1
 675 79 l 1,49,50
 647 48 647 48 620 33 c 128,-1,51
 593 18 593 18 549 4 c 128,-1,52
 505 -10 505 -10 417 -10 c 128,-1,53
 329 -10 329 -10 263.5 18.5 c 128,-1,54
 198 47 198 47 151 100 c 128,-1,55
 104 153 104 153 74.5 231 c 128,-1,56
 45 309 45 309 45 382 c 0,57,58
 45 568 45 568 209 685 c 0,59,60
 299 749 299 749 405 749 c 128,-1,61
 511 749 511 749 571 725 c 0,0,1
EndSplineSet
Validated: 33
EndChar
StartChar: uni0197
Encoding: 407 407 329
Width: 398
GlyphClass: 2
Flags: W
LayerCount: 2
Fore
SplineSet
247 75 m 1,0,1
 254 45 254 45 293 45 c 2,2,-1
 358 45 l 1,3,-1
 358 0 l 1,4,-1
 40 0 l 1,5,-1
 40 45 l 1,6,-1
 111 46 l 1,7,8
 139 50 139 50 152 75 c 1,9,-1
 152 364 l 1,10,-1
 40 364 l 1,11,-1
 40 406 l 1,12,-1
 152 406 l 1,13,-1
 152 652 l 1,14,15
 148 675 148 675 105 682 c 1,16,-1
 40 682 l 1,17,-1
 40 727 l 1,18,-1
 358 727 l 1,19,-1
 358 682 l 1,20,-1
 288 682 l 1,21,-1
 288 681 l 1,22,23
 260 677 260 677 247 652 c 1,24,-1
 247 406 l 1,25,-1
 358 406 l 1,26,-1
 358 364 l 1,27,-1
 247 364 l 1,28,-1
 247 75 l 1,0,1
EndSplineSet
EndChar

StartChar: uni0198
Encoding: 408 408 330
Width: 880
GlyphClass: 2
Flags: W
LayerCount: 2
Fore
SplineSet
247 75 m 1,0,1
 254 45 254 45 293 45 c 2,2,-1
 358 45 l 1,3,-1
 358 0 l 1,4,-1
 40 0 l 1,5,-1
 40 45 l 1,6,-1
 111 45 l 1,7,-1
 111 46 l 1,8,9
 139 50 139 50 152 75 c 1,10,-1
 152 652 l 1,11,12
 148 675 148 675 105 682 c 1,13,-1
 40 682 l 1,14,-1
 40 727 l 1,15,-1
 358 727 l 1,16,-1
 358 682 l 1,17,-1
 288 682 l 1,18,-1
 288 681 l 1,19,20
 260 677 260 677 247 652 c 1,21,-1
 247 360 l 1,22,-1
 568 632 l 1,23,24
 650 707 650 707 705 707 c 0,25,26
 805 707 805 707 834 620 c 0,27,28
 836 614 836 614 836 605.5 c 128,-1,29
 836 597 836 597 825.5 579 c 128,-1,30
 815 561 815 561 794.5 561 c 128,-1,31
 774 561 774 561 757.5 571.5 c 128,-1,32
 741 582 741 582 741 597 c 2,33,-1
 743 643 l 2,34,35
 743 661 743 661 691 661 c 0,36,37
 668 661 668 661 634 632 c 2,38,-1
 387 418 l 1,39,-1
 723 77 l 2,40,41
 754 46 754 46 807 46 c 2,42,-1
 840 46 l 1,43,-1
 840 0 l 1,44,-1
 519 0 l 1,45,-1
 519 45 l 1,46,-1
 565 46 l 1,47,48
 600 57 600 57 600 65 c 128,-1,49
 600 73 600 73 585 100 c 1,50,-1
 326 365 l 1,51,-1
 247 297 l 1,52,-1
 247 75 l 1,0,1
EndSplineSet
EndChar

StartChar: uni0199
Encoding: 409 409 331
Width: 595
GlyphClass: 2
Flags: W
LayerCount: 2
Fore
SplineSet
178 75 m 1,0,1
 185 45 185 45 204 45 c 2,2,-1
 247 45 l 1,3,-1
 247 0 l 1,4,-1
 26 0 l 1,5,-1
 26 45 l 1,6,-1
 74 46 l 1,7,-1
 95 75 l 1,8,-1
 95 665 l 1,9,10
 114 785 114 785 270 785 c 2,11,-1
 271 785 l 2,12,13
 322 785 322 785 355 752 c 0,14,15
 369 738 369 738 369 718 c 128,-1,16
 369 698 369 698 355 684 c 128,-1,17
 341 670 341 670 319 670 c 128,-1,18
 297 670 297 670 287 684 c 1,19,20
 271 722 271 722 263 724 c 0,21,22
 242 729 242 729 225 729 c 0,23,24
 185 729 185 729 178 684 c 1,25,-1
 178 267 l 1,26,-1
 383 457 l 1,27,-1
 317 457 l 1,28,-1
 317 500 l 1,29,-1
 524 500 l 1,30,-1
 524 457 l 1,31,-1
 453 457 l 1,32,-1
 315 329 l 1,33,-1
 492 75 l 1,34,35
 509 45 509 45 532 45 c 2,36,-1
 578 45 l 1,37,-1
 578 0 l 1,38,-1
 340 0 l 1,39,-1
 340 45 l 1,40,-1
 384 46 l 1,41,42
 395 56 395 56 390 70 c 1,43,-1
 251 269 l 1,44,-1
 178 201 l 1,45,-1
 178 75 l 1,0,1
EndSplineSet
EndChar

StartChar: uni019A
Encoding: 410 410 332
Width: 267
GlyphClass: 2
Flags: W
LayerCount: 2
Fore
SplineSet
95 406 m 1,0,-1
 95 640 l 1,1,-1
 20 640 l 1,2,-1
 20 660 l 1,3,-1
 139 740 l 1,4,-1
 178 740 l 1,5,-1
 178 406 l 1,6,-1
 257 406 l 1,7,-1
 257 364 l 1,8,-1
 178 364 l 1,9,-1
 178 75 l 1,10,11
 185 45 185 45 204 45 c 2,12,-1
 257 45 l 1,13,-1
 257 0 l 1,14,-1
 16 0 l 1,15,-1
 16 45 l 1,16,-1
 74 46 l 1,17,-1
 95 75 l 1,18,-1
 95 364 l 1,19,-1
 16 364 l 1,20,-1
 16 406 l 1,21,-1
 95 406 l 1,0,-1
EndSplineSet
EndChar

StartChar: uni019C
Encoding: 412 412 333
Width: 1127
GlyphClass: 2
Flags: W
LayerCount: 2
Fore
SplineSet
209 246 m 2,0,1
 209 57 209 57 345 57 c 0,2,3
 415 57 415 57 460 101.5 c 128,-1,4
 505 146 505 146 505 218 c 2,5,-1
 505 656 l 1,6,7
 495 698 495 698 455 698 c 2,8,-1
 416 698 l 1,9,-1
 416 740 l 1,10,-1
 697 740 l 1,11,-1
 697 698 l 1,12,-1
 650 697 l 1,13,-1
 648 697 l 2,14,15
 631 697 631 697 606 656 c 1,16,-1
 606 271 l 2,17,18
 606 180 606 180 640.5 118.5 c 128,-1,19
 675 57 675 57 745.5 57 c 128,-1,20
 816 57 816 57 864.5 97 c 128,-1,21
 913 137 913 137 913 209 c 2,22,-1
 913 656 l 1,23,24
 903 698 903 698 863 698 c 2,25,-1
 825 698 l 1,26,-1
 825 740 l 1,27,-1
 1097 740 l 1,28,-1
 1097 698 l 1,29,-1
 1053 697 l 1,30,31
 1025 691 1025 691 1009 656 c 1,32,-1
 1009 101 l 1,33,-1
 1093 101 l 1,34,-1
 1093 73 l 1,35,-1
 969 -23 l 1,36,-1
 913 -23 l 1,37,-1
 913 81 l 1,38,39
 850 -10 850 -10 752 -10 c 0,40,41
 602 -10 602 -10 535 116 c 1,42,43
 471 -10 471 -10 355.5 -10 c 128,-1,44
 240 -10 240 -10 174 58.5 c 128,-1,45
 108 127 108 127 108 246 c 2,46,-1
 108 656 l 1,47,48
 98 698 98 698 58 698 c 2,49,-1
 20 698 l 1,50,-1
 20 740 l 1,51,-1
 297 740 l 1,52,-1
 297 698 l 1,53,-1
 252 697 l 1,54,-1
 251 697 l 2,55,56
 234 697 234 697 209 656 c 1,57,-1
 209 246 l 2,0,1
EndSplineSet
Validated: 1
EndChar

StartChar: uni019D
Encoding: 413 413 334
Width: 941
GlyphClass: 2
Flags: W
LayerCount: 2
Fore
SplineSet
253 571 m 1,0,-1
 253 -54 l 1,1,2
 244 -194 244 -194 85 -194 c 2,3,-1
 84 -194 l 2,4,5
 33 -194 33 -194 0 -161 c 0,6,7
 -14 -147 -14 -147 -14 -127 c 128,-1,8
 -14 -107 -14 -107 0 -93 c 128,-1,9
 14 -79 14 -79 36 -79 c 128,-1,10
 58 -79 58 -79 68 -93 c 1,11,12
 84 -131 84 -131 92 -133 c 0,13,14
 116 -137 116 -137 131 -137 c 0,15,16
 182 -137 182 -137 182 -74 c 2,17,18
 182 652 l 1,19,20
 178 675 178 675 135 682 c 1,21,-1
 70 682 l 1,22,-1
 70 727 l 1,23,-1
 255 727 l 1,24,-1
 689 214 l 1,25,-1
 689 612 l 2,26,27
 689 682 689 682 605 682 c 2,28,-1
 577 682 l 1,29,-1
 577 727 l 1,30,-1
 871 727 l 1,31,-1
 871 681 l 1,32,-1
 845 681 l 2,33,34
 760 681 760 681 760 612 c 2,35,-1
 760 -30 l 1,36,-1
 253 571 l 1,0,-1
EndSplineSet
Validated: 1
EndChar
StartChar: uni019E
Encoding: 414 414 335
Width: 644
GlyphClass: 2
Flags: W
LayerCount: 2
Fore
SplineSet
194 416 m 1,0,1
 231 511 231 511 347 511 c 0,2,3
 540 510 540 510 540 264 c 2,4,-1
 540 -126 l 1,5,6
 547 -156 547 -156 576 -156 c 2,7,-1
 614 -156 l 1,8,-1
 614 -201 l 1,9,-1
 373 -201 l 1,10,-1
 373 -156 l 1,11,-1
 416 -155 l 1,12,13
 436 -151 436 -151 447 -126 c 1,14,-1
 447 244 l 2,15,16
 447 456 447 456 340 456 c 0,17,18
 194 456 194 456 194 253 c 2,19,-1
 194 75 l 1,20,21
 201 45 201 45 230 45 c 2,22,-1
 268 45 l 1,23,-1
 268 0 l 1,24,-1
 27 0 l 1,25,-1
 27 45 l 1,26,-1
 70 46 l 1,27,28
 90 50 90 50 101 75 c 1,29,-1
 101 440 l 5,30,-1
 26 440 l 5,31,-1
 26 460 l 5,32,-1
 145 520 l 1,33,-1
 194 520 l 1,34,-1
 194 416 l 1,0,1
EndSplineSet
EndChar
StartChar: uni019F
Encoding: 415 415 336
Width: 814
GlyphClass: 2
Flags: W
LayerCount: 2
Fore
SplineSet
400 692 m 2,0,-1
 398 692 l 2,1,2
 393 692 393 692 389 692 c 0,3,4
 294 692 294 692 224.5 598.5 c 128,-1,5
 155 505 155 505 149 389 c 1,6,-1
 664 389 l 1,7,8
 655 523 655 523 582.5 607.5 c 128,-1,9
 510 692 510 692 407 692 c 0,10,11
 404 692 404 692 400 692 c 2,0,-1
82 170 m 128,-1,13
 30 256 30 256 30 360 c 128,-1,14
 30 464 30 464 82 551.5 c 128,-1,15
 134 639 134 639 219 692 c 128,-1,16
 304 745 304 745 407 745 c 128,-1,17
 510 745 510 745 594.5 695 c 128,-1,18
 679 645 679 645 731.5 557.5 c 128,-1,19
 784 470 784 470 784 361.5 c 128,-1,20
 784 253 784 253 731.5 167 c 128,-1,21
 679 81 679 81 594.5 30.5 c 128,-1,22
 510 -20 510 -20 407 -20 c 128,-1,23
 304 -20 304 -20 219 32 c 128,-1,12
 134 84 134 84 82 170 c 128,-1,13
665 337 m 1,24,-1
 150 337 l 1,25,26
 158 206 158 206 232 120 c 128,-1,27
 306 34 306 34 409 34 c 0,28,29
 522 34 522 34 597 131 c 0,30,31
 661 214 661 214 665 337 c 1,24,-1
EndSplineSet
Validated: 1
EndChar

StartChar: uni01A5
Encoding: 421 421 339
Width: 585
GlyphClass: 2
Flags: W
LayerCount: 2
Fore
SplineSet
422 395 m 128,-1,1
 386 450 386 450 321 450 c 0,2,3
 202 450 202 450 188 272 c 1,4,-1
 188 218 l 1,5,6
 197 52 197 52 321 51 c 0,7,8
 381 51 381 51 419 103 c 128,-1,9
 457 155 457 155 459 249 c 1,10,0
 458 340 458 340 422 395 c 128,-1,1
186 447 m 1,11,12
 241 514 241 514 329 515 c 1,13,-1
 332 515 l 2,14,15
 436 515 436 515 500.5 440.5 c 128,-1,16
 565 366 565 366 565 245.5 c 128,-1,17
 565 125 565 125 499.5 55 c 128,-1,18
 434 -15 434 -15 332 -15 c 2,19,-1
 329 -15 l 2,20,21
 244 -15 244 -15 187 49 c 1,22,-1
 185 -95 l 1,23,24
 192 -125 192 -125 221 -125 c 2,25,-1
 269 -125 l 1,26,-1
 269 -170 l 1,27,-1
 18 -170 l 1,28,-1
 18 -125 l 1,29,-1
 71 -124 l 1,30,31
 91 -120 91 -120 102 -95 c 1,32,-1
 102 588 l 2,33,34
 102 745 102 745 278 745 c 2,35,-1
 279 745 l 2,36,37
 330 745 330 745 363 712 c 0,38,39
 377 698 377 698 377 678 c 128,-1,40
 377 658 377 658 363 644 c 128,-1,41
 349 630 349 630 327 630 c 128,-1,42
 305 630 305 630 295 644 c 1,43,44
 279 682 279 682 271 684 c 0,45,46
 251 688 251 688 232 688 c 0,47,48
 185 688 185 688 185 623 c 2,49,-1
 185 507 l 1,50,-1
 186 508 l 1,51,-1
 186 447 l 1,11,12
EndSplineSet
Validated: 1
EndChar
StartChar: uni01A7
Encoding: 423 423 340
Width: 600
GlyphClass: 2
Flags: W
LayerCount: 2
Fore
SplineSet
219 706 m 1,0,1
 281.979634831 738.505617978 281.979634831 738.505617978 344.899929775 738.505617978 c 128,-1,2
 407.820224719 738.505617978 407.820224719 738.505617978 480 695 c 0,3,4
 516 673 516 673 538.5 633 c 128,-1,5
 561 593 561 593 561 544 c 2,6,-1
 561 540 l 2,7,8
 561 436 561 436 465 394 c 0,9,10
 357 347 357 347 250 302 c 0,11,12
 167 267 167 267 167 187.5 c 0,13,14
 167 137 167 137 218.5 91 c 128,-1,15
 270 45 270 45 351 42 c 0,16,17
 354 42 354 42 357 42 c 0,18,19
 416 42 416 42 508 137 c 1,20,-1
 567 222 l 1,21,-1
 557 -9 l 1,22,-1
 512 -9 l 1,23,24
 509.046875 53.015625 509.046875 53.015625 490.58984375 53.015625 c 0,25,26
 490.296875 53.015625 490.296875 53.015625 490 53 c 2,27,-1
 443 19 l 1,28,29
 384 -15 384 -15 323 -15 c 0,30,31
 215 -15 215 -15 145 31 c 0,32,33
 117 49 117 49 88.5 91.5 c 128,-1,34
 60 134 60 134 60 189 c 0,35,36
 60 302 60 302 156 366 c 0,37,38
 197 394 197 394 308 433 c 0,39,40
 459 485 459 485 459 556 c 0,41,42
 459 602 459 602 421.725903614 642.753012048 c 128,-1,43
 384.451807229 683.506024096 384.451807229 683.506024096 327.394614603 683.506024096 c 0,44,45
 269.138554217 683.506024096 269.138554217 683.506024096 237.069277108 669.253012048 c 128,-1,46
 205 655 205 655 172 622 c 1,47,-1
 112 537 l 1,48,-1
 122 768 l 1,49,-1
 172 768 l 1,50,51
 178 707 178 707 196 690 c 1,52,-1
 219 706 l 1,0,1
EndSplineSet
EndChar
StartChar: uni01A8
Encoding: 424 424 341
Width: 460
GlyphClass: 2
Flags: W
LayerCount: 2
Fore
SplineSet
230 46 m 0,0,1
 295 46 295 46 435 203 c 1,2,-1
 415 -1 l 1,3,-1
 365 -1 l 1,4,5
 362 39 362 39 358 64 c 1,6,7
 285 -9 285 -9 228 -9 c 0,8,9
 138 -9 138 -9 85.5 36 c 128,-1,10
 33 81 33 81 33 143 c 2,11,-1
 33 146 l 2,12,13
 33 228 33 228 112 268 c 0,14,15
 149 286 149 286 224 305 c 0,16,17
 344 335 344 335 344 390.5 c 0,18,19
 344 450 344 450 252 450 c 128,-1,20
 160 450 160 450 66 328 c 1,21,-1
 86 522 l 1,22,-1
 136 522 l 1,23,-1
 141 471 l 2,24,25
 141.686523438 464 141.686523438 464 148.349609375 464.006835938 c 257,26,27
 203.3125 503.505859375 203.3125 503.505859375 253.740234375 503.505859375 c 0,28,29
 254.370117188 503.505859375 254.370117188 503.505859375 255 503.5 c 256,30,31
 256.826171875 503.52734375 256.826171875 503.52734375 258.637695312 503.52734375 c 0,32,33
 353.08203125 503.52734375 353.08203125 503.52734375 406 430.5 c 0,34,35
 427 401 427 401 427 366.5 c 128,-1,36
 427 332 427 332 404.5 301.5 c 128,-1,37
 382 271 382 271 344 253.5 c 128,-1,38
 306 236 306 236 250.5 219.5 c 0,39,40
 128 183 128 183 128 119 c 0,41,42
 128 46 128 46 230 46 c 0,0,1
EndSplineSet
EndChar

StartChar: uni01A9
Encoding: 425 425 342
Width: 759
GlyphClass: 2
Flags: W
LayerCount: 2
Fore
SplineSet
615 694 m 2,0,1
 232 694 l 1,2,-1
 481 413 l 1,3,-1
 203 96 l 1,4,-1
 615 96 l 2,5,6
 647 96 647 96 666 172 c 2,7,-1
 675 208 l 1,8,-1
 719 208 l 1,9,-1
 678 0 l 1,10,-1
 35 0 l 1,11,-1
 373 378 l 1,12,-1
 35 756 l 1,13,-1
 678 756 l 1,14,-1
 719 584 l 1,15,-1
 675 584 l 1,16,-1
 668 610 l 2,17,18
 645 694 645 694 615 694 c 2,0,1
EndSplineSet
Validated: 1
EndChar

StartChar: uni01B5
Encoding: 437 437 345
Width: 700
GlyphClass: 2
Flags: W
LayerCount: 2
Fore
SplineSet
201 91 m 1,0,1
 194 78 194 78 194 69 c 0,2,3
 194 48 194 48 232 48 c 2,4,-1
 506 48 l 2,5,6
 615 48 615 48 615 145 c 2,7,-1
 615 179 l 1,8,-1
 660 179 l 1,9,-1
 660 0 l 1,10,-1
 40 0 l 1,11,-1
 40 48 l 1,12,13
 69 52 69 52 81 75 c 1,14,-1
 284 354 l 1,15,-1
 120 354 l 1,16,-1
 120 396 l 1,17,-1
 314 396 l 1,18,-1
 489 637 l 1,19,-1
 488 637 l 1,20,21
 485 654 485 654 474 665 c 128,-1,22
 463 676 463 676 450 680 c 1,23,-1
 230 680 l 2,24,25
 130 680 130 680 130 582 c 2,26,-1
 130 548 l 1,27,-1
 85 548 l 1,28,-1
 85 727 l 1,29,-1
 647 727 l 1,30,-1
 647 680 l 1,31,-1
 643 680 l 1,32,33
 626 677 626 677 607 642 c 1,34,-1
 426 396 l 1,35,-1
 602 396 l 1,36,-1
 602 354 l 1,37,-1
 395 354 l 1,38,-1
 201 91 l 1,0,1
EndSplineSet
EndChar
StartChar: uni01B6
Encoding: 438 438 346
Width: 549
GlyphClass: 2
Flags: W
LayerCount: 2
Fore
SplineSet
201 91 m 1,0,1
 194 78 194 78 194 69 c 0,2,3
 194 48 194 48 232 48 c 2,4,-1
 375 48 l 2,5,6
 464 48 464 48 464 145 c 2,7,-1
 464 179 l 1,8,-1
 509 179 l 1,9,-1
 509 0 l 1,10,-1
 40 0 l 1,11,-1
 40 48 l 1,12,13
 69 52 69 52 81 75 c 1,14,-1
 209 234 l 1,15,-1
 101 234 l 1,16,-1
 101 276 l 1,17,-1
 243 276 l 1,18,-1
 351 410 l 1,19,-1
 350 410 l 1,20,21
 347 427 347 427 336 438 c 128,-1,22
 325 449 325 449 312 453 c 1,23,-1
 230 453 l 2,24,25
 130 453 130 453 130 355 c 2,26,-1
 130 321 l 1,27,-1
 85 321 l 1,28,-1
 85 500 l 1,29,-1
 509 500 l 1,30,-1
 509 453 l 1,31,-1
 505 453 l 1,32,33
 488 450 488 450 469 415 c 1,34,-1
 354 276 l 1,35,-1
 484 276 l 1,36,-1
 484 234 l 1,37,-1
 319 234 l 1,38,-1
 201 91 l 1,0,1
EndSplineSet
Validated: 1
EndChar

StartChar: uni01BB
Encoding: 443 443 347
Width: 550
GlyphClass: 2
Flags: W
LayerCount: 2
Fore
SplineSet
500 363 m 5,0,-1
 500 321 l 5,1,-1
 324 321 l 5,2,3
 243 261 243 261 207 213 c 4,4,5
 158 147 158 147 157 83 c 5,6,-1
 373 83 l 6,7,8
 397 83 397 83 426.5 101 c 132,-1,9
 456 119 456 119 474 138 c 6,10,-1
 491 156 l 5,11,-1
 458 -1 l 5,12,-1
 71 -1 l 5,13,-1
 71 83 l 6,14,15
 71 161 71 161 151 250 c 4,16,17
 185 287 185 287 222 321 c 5,18,-1
 79 321 l 5,19,-1
 79 363 l 5,20,-1
 278 363 l 5,21,22
 362 443 362 443 375.5 467 c 132,-1,23
 389 491 389 491 389 509.5 c 132,-1,24
 389 528 389 528 388 538 c 4,25,26
 384 579 384 579 344.5 609.5 c 132,-1,27
 305 640 305 640 260 640 c 132,-1,28
 215 640 215 640 168 626 c 132,-1,29
 121 612 121 612 90 593 c 6,30,-1
 80 587 l 5,31,-1
 68 638 l 5,32,33
 85 658 85 658 153 689 c 132,-1,34
 221 720 221 720 279 720 c 4,35,36
 471 720 471 720 471 532 c 4,37,38
 471 493 471 493 423 427 c 4,39,40
 403 400 403 400 359 363 c 5,41,-1
 500 363 l 5,0,-1
EndSplineSet
Validated: 1
EndChar
StartChar: uni01E5
Encoding: 485 485 381
Width: 531
GlyphClass: 2
Flags: W
LayerCount: 2
Fore
SplineSet
233.5 474 m 128,-1,1
 189 474 189 474 158.5 434.5 c 128,-1,2
 128 395 128 395 128 339.5 c 128,-1,3
 128 284 128 284 158.5 244.5 c 128,-1,4
 189 205 189 205 233.5 205 c 128,-1,5
 278 205 278 205 308.5 244.5 c 128,-1,6
 339 284 339 284 339 339.5 c 128,-1,7
 339 395 339 395 308.5 434.5 c 128,-1,0
 278 474 278 474 233.5 474 c 128,-1,1
39 -39 m 1,8,9
 56 2 56 2 107 30 c 1,10,11
 84 41 84 41 70 64 c 128,-1,12
 56 87 56 87 56 103.5 c 128,-1,13
 56 120 56 120 62 135 c 0,14,15
 75 171 75 171 102 184 c 1,16,-1
 123 192 l 1,17,18
 40 251 40 251 40 340 c 0,19,20
 40 413 40 413 96.5 465.5 c 128,-1,21
 153 518 153 518 234 518 c 0,22,23
 279 518 279 518 318 501 c 1,24,-1
 479 501 l 1,25,-1
 479 458 l 1,26,-1
 379 458 l 1,27,28
 428 408 428 408 428 337 c 128,-1,29
 428 266 428 266 371 213.5 c 128,-1,30
 314 161 314 161 234 161 c 0,31,32
 193 161 193 161 159 174 c 1,33,34
 147 169 147 169 135.5 158 c 128,-1,35
 124 147 124 147 124 134 c 128,-1,36
 124 121 124 121 135 108 c 1,37,38
 151 92 151 92 267 92 c 1,39,-1
 338 93 l 1,40,41
 434 93 434 93 475 27 c 0,42,43
 491 2 491 2 491 -14 c 128,-1,44
 491 -30 491 -30 489 -39 c 1,45,-1
 521 -39 l 1,46,-1
 521 -81 l 1,47,-1
 474 -81 l 1,48,49
 438 -155 438 -155 347 -169 c 0,50,51
 300 -176 300 -176 229 -176 c 128,-1,52
 158 -176 158 -176 113 -160 c 1,53,54
 52 -140 52 -140 37 -81 c 1,55,-1
 10 -81 l 1,56,-1
 10 -39 l 1,57,-1
 39 -39 l 1,8,9
423 -39 m 1,58,59
 418 -9 418 -9 376 2 c 1,60,61
 345 14 345 14 308.5 14 c 128,-1,62
 272 14 272 14 246 10.5 c 128,-1,63
 220 7 220 7 195.5 7 c 128,-1,64
 171 7 171 7 147 11 c 1,65,66
 121 1 121 1 115 -39 c 1,67,-1
 423 -39 l 1,58,59
413 -81 m 1,68,-1
 118 -81 l 1,69,70
 123 -91 123 -91 132 -104 c 0,71,72
 151 -130 151 -130 276 -130 c 0,73,74
 320 -130 320 -130 357.5 -117 c 128,-1,75
 395 -104 395 -104 413 -81 c 1,68,-1
EndSplineSet
Validated: 1
EndChar
StartChar: uni0237
Encoding: 567 567 444
Width: 242
GlyphClass: 2
Flags: W
LayerCount: 2
Fore
SplineSet
162 520 m 1,0,-1
 162 -12 l 2,1,2
 162 -85 162 -85 112 -138 c 0,3,4
 67 -187 67 -187 -89 -176 c 1,5,6
 -88 -165 -88 -165 -88 -163 c 0,7,8
 -91 -139 -91 -139 -100 -125 c 1,9,10
 32 -125 32 -125 55.5 -100 c 128,-1,11
 79 -75 79 -75 79 -40 c 2,12,-1
 79 420 l 1,13,-1
 4 420 l 1,14,-1
 4 440 l 1,15,-1
 123 520 l 1,16,-1
 162 520 l 1,0,-1
EndSplineSet
Validated: 33
EndChar

StartChar: uni0243
Encoding: 579 579 445
Width: 726
GlyphClass: 2
Flags: W
LayerCount: 2
Fore
SplineSet
672 218 m 0,0,1
 672 0 672 0 378 0 c 2,2,-1
 40 0 l 1,3,-1
 40 45 l 1,4,-1
 111 45 l 1,5,-1
 111 46 l 1,6,7
 139 50 139 50 152 75 c 1,8,-1
 152 223 l 1,9,-1
 40 223 l 1,10,-1
 40 267 l 1,11,-1
 152 267 l 1,12,-1
 152 645 l 1,13,-1
 151 645 l 1,14,15
 148 662 148 662 135.5 674.5 c 128,-1,16
 123 687 123 687 105 690 c 1,17,-1
 40 690 l 1,18,-1
 40 735 l 1,19,-1
 378 735 l 2,20,21
 488 735 488 735 549.5 691 c 128,-1,22
 611 647 611 647 611 554 c 0,23,24
 611 428 611 428 503 395 c 1,25,26
 582 383 582 383 627 340 c 128,-1,27
 672 297 672 297 672 218 c 0,0,1
437 429 m 0,28,29
 505 446 505 446 505 553 c 0,30,31
 505 674 505 674 412 686 c 0,32,33
 379 690 379 690 343 690 c 128,-1,34
 307 690 307 690 283 688 c 1,35,36
 266 685 266 685 247 650 c 1,37,-1
 247 416 l 1,38,-1
 336 416 l 2,39,40
 386 416 386 416 437 429 c 0,28,29
401 370 m 2,41,-1
 247 370 l 1,42,-1
 247 267 l 1,43,-1
 410 267 l 1,44,-1
 410 223 l 1,45,-1
 247 223 l 1,46,-1
 247 91 l 1,47,48
 252 62 252 62 278 48 c 1,49,-1
 337 48 l 2,50,51
 441 48 441 48 486 67 c 0,52,53
 562 99 562 99 562 201.5 c 128,-1,54
 562 304 562 304 513 344 c 1,55,56
 479 370 479 370 401 370 c 2,41,-1
EndSplineSet
Validated: 1
EndChar

StartChar: uni0244
Encoding: 580 580 446
Width: 859
GlyphClass: 2
Flags: W
LayerCount: 2
Fore
SplineSet
656 478 m 1,0,-1
 250 478 l 1,1,-1
 250 280 l 2,2,3
 250 59 250 59 450 59 c 0,4,5
 647 59 647 59 656 280 c 1,6,-1
 656 478 l 1,0,-1
819 520 m 1,7,-1
 819 478 l 1,8,-1
 714 478 l 1,9,-1
 714 280 l 2,10,11
 714 0 714 0 447 0 c 0,12,13
 150 0 150 0 150 280 c 2,14,-1
 150 478 l 1,15,-1
 40 478 l 1,16,-1
 40 520 l 1,17,-1
 150 520 l 1,18,-1
 150 649 l 2,19,20
 150 687 150 687 95 695 c 1,21,-1
 40 695 l 1,22,-1
 40 740 l 1,23,-1
 348 740 l 1,24,-1
 348 695 l 1,25,-1
 288 695 l 1,26,-1
 288 694 l 1,27,28
 267 694 267 694 258.5 682.5 c 128,-1,29
 250 671 250 671 250 662 c 2,30,-1
 250 520 l 1,31,-1
 656 520 l 1,32,-1
 656 649 l 1,33,-1
 655 649 l 1,34,-1
 655 661 l 2,35,36
 655 670 655 670 645.5 680.5 c 128,-1,37
 636 691 636 691 618 694 c 1,38,-1
 618 695 l 1,39,-1
 558 695 l 1,40,-1
 558 740 l 1,41,-1
 819 740 l 1,42,-1
 819 695 l 1,43,-1
 769 695 l 1,44,45
 755 693 755 693 734.5 678.5 c 128,-1,46
 714 664 714 664 714 649 c 2,47,-1
 714 520 l 1,48,-1
 819 520 l 1,7,-1
EndSplineSet
Validated: 1
EndChar

StartChar: afii57929
Encoding: 700 700 448
Width: 233
GlyphClass: 2
Flags: W
LayerCount: 2
Fore
SplineSet
203 636 m 0,0,1
 203 562 203 562 77 457 c 1,2,-1
 30 457 l 1,3,4
 121 519 121 519 139 594 c 1,5,6
 136 594 136 594 133 594 c 0,7,8
 112 594 112 594 89.5 611.5 c 128,-1,9
 67 629 67 629 67 658.5 c 128,-1,10
 67 688 67 688 84.5 709 c 128,-1,11
 102 730 102 730 130 730 c 128,-1,12
 158 730 158 730 178 713 c 128,-1,13
 198 696 198 696 200.5 671.5 c 128,-1,14
 203 647 203 647 203 636 c 0,0,1
EndSplineSet
Validated: 1
EndChar

StartChar: uni02CB
Encoding: 715 715 449
Width: 1000
GlyphClass: 2
Flags: W
LayerCount: 2
Fore
SplineSet
454 848 m 1,0,-1
 608 666 l 1,1,-1
 570 666 l 1,2,-1
 378 790 l 1,3,4
 365 807 365 807 365 822 c 128,-1,5
 365 837 365 837 375.5 851 c 128,-1,6
 386 865 386 865 405.5 865 c 128,-1,7
 425 865 425 865 454 848 c 1,0,-1
EndSplineSet
Validated: 1
EndChar

StartChar: gravecomb
Encoding: 768 768 450
Width: 270
GlyphClass: 2
Flags: W
LayerCount: 2
Fore
SplineSet
119 948 m 1,0,-1
 240 786 l 1,1,-1
 202 786 l 1,2,-1
 43 890 l 1,3,4
 30 907 30 907 30 922 c 128,-1,5
 30 937 30 937 40.5 951 c 128,-1,6
 51 965 51 965 70.5 965 c 128,-1,7
 90 965 90 965 119 948 c 1,0,-1
EndSplineSet
Validated: 1
EndChar

StartChar: acutecomb
Encoding: 769 769 451
Width: 270
GlyphClass: 2
Flags: W
LayerCount: 2
Fore
SplineSet
151 948 m 1,0,1
 180 965 180 965 199.5 965 c 128,-1,2
 219 965 219 965 229.5 951 c 128,-1,3
 240 937 240 937 240 922 c 128,-1,4
 240 907 240 907 227 890 c 1,5,-1
 68 786 l 1,6,-1
 30 786 l 1,7,-1
 151 948 l 1,0,1
EndSplineSet
EndChar

StartChar: uni0302
Encoding: 770 770 452
Width: 366
GlyphClass: 2
Flags: W
LayerCount: 2
Fore
SplineSet
183 890 m 1,0,-1
 62 793 l 1,1,-1
 30 793 l 1,2,-1
 153 970 l 1,3,-1
 214 970 l 1,4,-1
 336 793 l 1,5,-1
 306 790 l 1,6,-1
 183 890 l 1,0,-1
EndSplineSet
Validated: 1
EndChar

StartChar: tildecomb
Encoding: 771 771 453
Width: 405
GlyphClass: 2
Flags: W
LayerCount: 2
Fore
SplineSet
375 934 m 1,0,1
 345 784 345 784 268 784 c 1,2,-1
 202 818 l 1,3,4
 147 873 147 873 132 873 c 0,5,6
 131 873 131 873 124 871 c 0,7,8
 92 862 92 862 50 796 c 1,9,-1
 30 796 l 1,10,11
 45 874 45 874 75 911 c 128,-1,12
 105 948 105 948 132 948 c 128,-1,13
 159 948 159 948 204 908 c 1,14,15
 272 857 272 857 273.5 857 c 128,-1,16
 275 857 275 857 281 859 c 0,17,18
 316 871 316 871 356 935 c 1,19,-1
 375 934 l 1,0,1
EndSplineSet
Validated: 1
EndChar

StartChar: uni0304
Encoding: 772 772 454
Width: 350
GlyphClass: 2
Flags: W
LayerCount: 2
Fore
SplineSet
320 883 m 1,0,-1
 320 831 l 1,1,-1
 30 831 l 1,2,-1
 30 883 l 1,3,-1
 320 883 l 1,0,-1
EndSplineSet
EndChar

StartChar: uni0306
Encoding: 774 774 455
Width: 500
GlyphClass: 2
Flags: W
LayerCount: 2
Fore
SplineSet
91 955 m 1,0,-1
 135 955 l 1,1,-1
 135 948 l 2,2,3
 135 915 135 915 173.5 897.5 c 128,-1,4
 212 880 212 880 248.5 880 c 128,-1,5
 285 880 285 880 323 897.5 c 128,-1,6
 361 915 361 915 361 948 c 2,7,-1
 361 955 l 1,8,-1
 409 955 l 1,9,-1
 409 950 l 2,10,11
 409 889 409 889 363.5 848.5 c 128,-1,12
 318 808 318 808 250 808 c 128,-1,13
 182 808 182 808 136.5 848.5 c 128,-1,14
 91 889 91 889 91 950 c 2,15,-1
 91 955 l 1,0,-1
EndSplineSet
Validated: 1
EndChar

StartChar: uni0307
Encoding: 775 775 456
Width: 170
GlyphClass: 2
Flags: W
LayerCount: 2
Fore
SplineSet
30 854 m 128,-1,1
 30 878 30 878 46 895 c 128,-1,2
 62 912 62 912 85 912 c 128,-1,3
 108 912 108 912 124 895 c 128,-1,4
 140 878 140 878 140 854 c 128,-1,5
 140 830 140 830 124 813 c 128,-1,6
 108 796 108 796 85 796 c 128,-1,7
 62 796 62 796 46 813 c 128,-1,0
 30 830 30 830 30 854 c 128,-1,1
EndSplineSet
EndChar

StartChar: uni0308
Encoding: 776 776 457
Width: 350
GlyphClass: 2
Flags: W
LayerCount: 2
Fore
SplineSet
220 854 m 128,-1,1
 220 876 220 876 235 891.5 c 128,-1,2
 250 907 250 907 271 907 c 128,-1,3
 292 907 292 907 306 891.5 c 128,-1,4
 320 876 320 876 320 854 c 128,-1,5
 320 832 320 832 306 816.5 c 128,-1,6
 292 801 292 801 271 801 c 128,-1,7
 250 801 250 801 235 816.5 c 128,-1,0
 220 832 220 832 220 854 c 128,-1,1
30 854 m 128,-1,9
 30 876 30 876 44.5 891.5 c 128,-1,10
 59 907 59 907 80 907 c 128,-1,11
 101 907 101 907 115.5 891.5 c 128,-1,12
 130 876 130 876 130 854 c 128,-1,13
 130 832 130 832 115.5 816.5 c 128,-1,14
 101 801 101 801 80 801 c 128,-1,15
 59 801 59 801 44.5 816.5 c 128,-1,8
 30 832 30 832 30 854 c 128,-1,9
EndSplineSet
EndChar
StartChar: uni030A
Encoding: 778 778 458
Width: 282
GlyphClass: 2
Flags: W
LayerCount: 2
Fore
SplineSet
82 863 m 128,-1,1
 82 839 82 839 99 821.5 c 128,-1,2
 116 804 116 804 140 804 c 128,-1,3
 164 804 164 804 181 821.5 c 128,-1,4
 198 839 198 839 198 863 c 128,-1,5
 198 887 198 887 181 904 c 128,-1,6
 164 921 164 921 140 921 c 128,-1,7
 116 921 116 921 99 904 c 128,-1,0
 82 887 82 887 82 863 c 128,-1,1
40 861.5 m 128,-1,9
 40 904 40 904 69 933 c 128,-1,10
 98 962 98 962 141 962 c 128,-1,11
 184 962 184 962 213 933 c 128,-1,12
 242 904 242 904 242 861.5 c 128,-1,13
 242 819 242 819 213 789.5 c 128,-1,14
 184 760 184 760 141 760 c 128,-1,15
 98 760 98 760 69 789.5 c 128,-1,8
 40 819 40 819 40 861.5 c 128,-1,9
EndSplineSet
Validated: 1
EndChar
StartChar: uni030B
Encoding: 779 779 459
Width: 416
GlyphClass: 2
Flags: W
LayerCount: 2
Fore
SplineSet
295 952 m 1,0,1
 321 972 321 972 340.5 974.5 c 128,-1,2
 360 977 360 977 372 964.5 c 128,-1,3
 384 952 384 952 386 937 c 128,-1,4
 388 922 388 922 377 904 c 1,5,-1
 232 782 l 1,6,-1
 194 776 l 1,7,-1
 295 952 l 1,0,1
131 953 m 1,8,9
 157 973 157 973 177 976 c 128,-1,10
 197 979 197 979 208.5 966.5 c 128,-1,11
 220 954 220 954 222.5 939 c 128,-1,12
 225 924 225 924 213 905 c 1,13,-1
 68 783 l 1,14,-1
 30 778 l 1,15,-1
 131 953 l 1,8,9
EndSplineSet
Validated: 33
EndChar
StartChar: uni030C
Encoding: 780 780 460
Width: 366
GlyphClass: 2
Flags: W
LayerCount: 2
Fore
SplineSet
183 870 m 1,0,-1
 306 970 l 1,1,-1
 336 967 l 1,2,-1
 214 790 l 1,3,-1
 153 790 l 1,4,-1
 30 967 l 1,5,-1
 62 967 l 1,6,-1
 183 870 l 1,0,-1
EndSplineSet
Validated: 1
EndChar

StartChar: uni030F
Encoding: 783 783 461
Width: 416
GlyphClass: 2
Flags: W
LayerCount: 2
Fore
SplineSet
285 953 m 1,0,-1
 386 778 l 1,1,-1
 348 783 l 1,2,-1
 203 905 l 1,3,4
 193 920 193 920 193 935.5 c 128,-1,5
 193 951 193 951 205 964 c 128,-1,6
 217 977 217 977 235 977 c 128,-1,7
 253 977 253 977 285 953 c 1,0,-1
121 952 m 1,8,-1
 222 776 l 1,9,-1
 184 782 l 1,10,-1
 39 904 l 1,11,12
 30 919 30 919 30 934.5 c 128,-1,13
 30 950 30 950 42 962.5 c 128,-1,14
 54 975 54 975 72.5 975 c 128,-1,15
 91 975 91 975 121 952 c 1,8,-1
EndSplineSet
Validated: 1
EndChar
StartChar: uni0311
Encoding: 785 785 462
Width: 500
GlyphClass: 2
Flags: W
LayerCount: 2
Fore
SplineSet
91 799 m 1,0,-1
 91 804 l 2,1,2
 91 865 91 865 136.5 905.5 c 128,-1,3
 182 946 182 946 250 946 c 128,-1,4
 318 946 318 946 363.5 905.5 c 128,-1,5
 409 865 409 865 409 804 c 2,6,-1
 409 799 l 1,7,-1
 361 799 l 1,8,-1
 361 806 l 2,9,10
 361 839 361 839 323 856.5 c 128,-1,11
 285 874 285 874 248.5 874 c 128,-1,12
 212 874 212 874 173.5 856.5 c 128,-1,13
 135 839 135 839 135 806 c 2,14,-1
 135 799 l 1,15,-1
 91 799 l 1,0,-1
EndSplineSet
EndChar

StartChar: uni0312
Encoding: 786 786 463
Width: 234
GlyphClass: 2
Flags: W
LayerCount: 2
Fore
SplineSet
30 880 m 0,0,1
 30 958 30 958 157 1064 c 1,2,-1
 204 1064 l 1,3,4
 113 1002 113 1002 95 927 c 1,5,6
 98 927 98 927 101 927 c 0,7,8
 122 927 122 927 144.5 909.5 c 128,-1,9
 167 892 167 892 167 862.5 c 128,-1,10
 167 833 167 833 149.5 812 c 128,-1,11
 132 791 132 791 104 791 c 128,-1,12
 76 791 76 791 55.5 808 c 128,-1,13
 35 825 35 825 32.5 847 c 128,-1,14
 30 869 30 869 30 880 c 0,0,1
EndSplineSet
Validated: 1
EndChar

StartChar: uni0315
Encoding: 789 789 464
Width: 233
GlyphClass: 2
Flags: W
LayerCount: 2
Fore
SplineSet
203 641 m 0,0,1
 203 567 203 567 77 462 c 1,2,-1
 30 462 l 1,3,4
 121 524 121 524 139 599 c 1,5,6
 136 599 136 599 133 599 c 0,7,8
 112 599 112 599 89.5 616.5 c 128,-1,9
 67 634 67 634 67 663.5 c 128,-1,10
 67 693 67 693 84.5 714 c 128,-1,11
 102 735 102 735 130 735 c 128,-1,12
 158 735 158 735 178 718 c 128,-1,13
 198 701 198 701 200.5 676.5 c 128,-1,14
 203 652 203 652 203 641 c 0,0,1
EndSplineSet
Validated: 1
EndChar

StartChar: uni031B
Encoding: 795 795 465
Width: 216
GlyphClass: 2
Flags: W
LayerCount: 2
Fore
SplineSet
82 572 m 1,0,1
 79 601 79 601 64.5 619 c 128,-1,2
 50 637 50 637 50 650 c 0,3,4
 50 689 50 689 71.5 709 c 128,-1,5
 93 729 93 729 120.5 729 c 128,-1,6
 148 729 148 729 167 706.5 c 128,-1,7
 186 684 186 684 186 654.5 c 128,-1,8
 186 625 186 625 180 615 c 1,9,10
 140 517 140 517 50 517 c 0,11,12
 40 517 40 517 30 518 c 1,13,-1
 30 545 l 1,14,15
 60 546 60 546 82 572 c 1,0,1
EndSplineSet
Validated: 1
EndChar

StartChar: uni0326
Encoding: 806 806 466
Width: 233
GlyphClass: 2
Flags: W
LayerCount: 2
Fore
SplineSet
203 -141 m 0,0,1
 203 -215 203 -215 77 -320 c 1,2,-1
 30 -320 l 1,3,4
 121 -258 121 -258 139 -183 c 1,5,6
 136 -183 136 -183 133 -183 c 0,7,8
 112 -183 112 -183 89.5 -165.5 c 128,-1,9
 67 -148 67 -148 67 -118.5 c 128,-1,10
 67 -89 67 -89 84.5 -68 c 128,-1,11
 102 -47 102 -47 130 -47 c 128,-1,12
 158 -47 158 -47 178 -64 c 128,-1,13
 198 -81 198 -81 200.5 -105.5 c 128,-1,14
 203 -130 203 -130 203 -141 c 0,0,1
EndSplineSet
Validated: 1
EndChar

StartChar: uni0328
Encoding: 808 808 468
Width: 287
GlyphClass: 2
Flags: W
LayerCount: 2
Fore
SplineSet
82 -194.5 m 128,-1,1
 50 -183 50 -183 40 -165.5 c 128,-1,2
 30 -148 30 -148 30 -136 c 2,3,-1
 30 -116 l 2,4,5
 30 -73 30 -73 96 15 c 1,6,-1
 151 14 l 1,7,-1
 131 -14 l 2,8,9
 107 -48 107 -48 107 -106 c 0,10,11
 107 -122 107 -122 124 -136 c 128,-1,12
 141 -150 141 -150 159.5 -150 c 128,-1,13
 178 -150 178 -150 207.5 -141.5 c 128,-1,14
 237 -133 237 -133 239 -131 c 1,15,-1
 257 -163 l 1,16,17
 211 -206 211 -206 156 -206 c 2,18,-1
 152 -206 l 2,19,0
 114 -206 114 -206 82 -194.5 c 128,-1,1
EndSplineSet
Validated: 1
EndChar
StartChar: afii00208
Encoding: 8213 8213 4601
Width: 1000
VWidth: 0
LayerCount: 2
Fore
SplineSet
-2 385 m 1,0,-1
 997 385 l 1,1,-1
 997 349 l 1,2,-1
 -2 349 l 1,3,-1
 -2 385 l 1,0,-1
EndSplineSet
Substitution2: "'vert' lookup 0-1" uniFE33
EndChar
StartChar: quotedblleft
Encoding: 8220 8220 469
Width: 1000
GlyphClass: 2
Flags: W
LayerCount: 2
Fore
SplineSet
721 599 m 2,0,-1
 721 601 l 1,1,2
 722 650 722 650 741 681 c 0,3,4
 787 753 787 753 819 783 c 0,5,6
 828 792 828 792 838 792 c 2,7,-1
 839 792 l 2,8,9
 848 792 848 792 854.5 785.5 c 128,-1,10
 861 779 861 779 861 776 c 128,-1,11
 861 773 861 773 859 771 c 0,12,13
 824 715 824 715 814 678 c 1,14,15
 846 678 846 678 863 654.5 c 128,-1,16
 880 631 880 631 880 598.5 c 128,-1,17
 880 566 880 566 856.5 543 c 128,-1,18
 833 520 833 520 800 520 c 128,-1,19
 767 520 767 520 744 543 c 128,-1,20
 721 566 721 566 721 599 c 2,0,-1
527 601 m 2,21,-1
 527 603 l 1,22,23
 528 652 528 652 547 683 c 0,24,25
 593 755 593 755 625 785 c 0,26,27
 634 794 634 794 644 794 c 2,28,-1
 645 794 l 2,29,30
 654 794 654 794 660.5 787.5 c 128,-1,31
 667 781 667 781 667 778 c 128,-1,32
 667 775 667 775 665 773 c 0,33,34
 630 717 630 717 620 680 c 1,35,36
 652 680 652 680 669 656.5 c 128,-1,37
 686 633 686 633 686 600.5 c 128,-1,38
 686 568 686 568 662.5 545 c 128,-1,39
 639 522 639 522 606 522 c 128,-1,40
 573 522 573 522 550 545 c 128,-1,41
 527 568 527 568 527 601 c 2,21,-1
EndSplineSet
EndChar

StartChar: quotedblright
Encoding: 8221 8221 470
Width: 1000
GlyphClass: 2
Flags: W
LayerCount: 2
Fore
SplineSet
473 713 m 2,0,-1
 473 711 l 1,1,2
 472 662 472 662 453 631 c 0,3,4
 407 559 407 559 375 529 c 0,5,6
 366 520 366 520 356 520 c 2,7,-1
 355 520 l 2,8,9
 346 520 346 520 339.5 526.5 c 128,-1,10
 333 533 333 533 333 536 c 128,-1,11
 333 539 333 539 335 541 c 0,12,13
 370 597 370 597 380 634 c 1,14,15
 348 634 348 634 331 657.5 c 128,-1,16
 314 681 314 681 314 713.5 c 128,-1,17
 314 746 314 746 337.5 769 c 128,-1,18
 361 792 361 792 394 792 c 128,-1,19
 427 792 427 792 450 769 c 128,-1,20
 473 746 473 746 473 713 c 2,0,-1
279 715 m 2,21,-1
 279 713 l 1,22,23
 278 664 278 664 259 633 c 0,24,25
 213 561 213 561 181 531 c 0,26,27
 172 522 172 522 162 522 c 2,28,-1
 161 522 l 2,29,30
 152 522 152 522 145.5 528.5 c 128,-1,31
 139 535 139 535 139 538 c 128,-1,32
 139 541 139 541 141 543 c 0,33,34
 176 599 176 599 186 636 c 1,35,36
 154 636 154 636 137 659.5 c 128,-1,37
 120 683 120 683 120 715.5 c 128,-1,38
 120 748 120 748 143.5 771 c 128,-1,39
 167 794 167 794 200 794 c 128,-1,40
 233 794 233 794 256 771 c 128,-1,41
 279 748 279 748 279 715 c 2,21,-1
EndSplineSet
Validated: 1
EndChar
StartChar: quotedblbase
Encoding: 8222 8222 471
Width: 592
GlyphClass: 2
Flags: W
LayerCount: 2
Fore
SplineSet
279 81 m 2,0,-1
 279 79 l 1,1,2
 278 30 278 30 259 -1 c 0,3,4
 213 -73 213 -73 181 -103 c 0,5,6
 172 -112 172 -112 162 -112 c 2,7,-1
 161 -112 l 2,8,9
 152 -112 152 -112 145.5 -105.5 c 128,-1,10
 139 -99 139 -99 139 -96 c 128,-1,11
 139 -93 139 -93 141 -91 c 0,12,13
 176 -35 176 -35 186 2 c 1,14,15
 154 2 154 2 137 25.5 c 128,-1,16
 120 49 120 49 120 81.5 c 128,-1,17
 120 114 120 114 143.5 137 c 128,-1,18
 167 160 167 160 200 160 c 128,-1,19
 233 160 233 160 256 137 c 128,-1,20
 279 114 279 114 279 81 c 2,0,-1
473 79 m 2,21,-1
 473 77 l 1,22,23
 472 28 472 28 453 -3 c 0,24,25
 407 -75 407 -75 375 -105 c 0,26,27
 366 -114 366 -114 356 -114 c 2,28,-1
 355 -114 l 2,29,30
 346 -114 346 -114 339.5 -107.5 c 128,-1,31
 333 -101 333 -101 333 -98 c 128,-1,32
 333 -95 333 -95 335 -93 c 0,33,34
 370 -37 370 -37 380 0 c 1,35,36
 348 0 348 0 331 23.5 c 128,-1,37
 314 47 314 47 314 79.5 c 128,-1,38
 314 112 314 112 337.5 135 c 128,-1,39
 361 158 361 158 394 158 c 128,-1,40
 427 158 427 158 450 135 c 128,-1,41
 473 112 473 112 473 79 c 2,21,-1
EndSplineSet
Validated: 1
EndChar

StartChar: uni201F
Encoding: 8223 8223 472
Width: 592
GlyphClass: 2
Flags: W
LayerCount: 2
Fore
SplineSet
314 715 m 2,0,1
 314 748 314 748 337 771 c 128,-1,2
 360 794 360 794 393 794 c 128,-1,3
 426 794 426 794 449.5 771 c 128,-1,4
 473 748 473 748 473 715.5 c 128,-1,5
 473 683 473 683 456 659.5 c 128,-1,6
 439 636 439 636 407 636 c 1,7,8
 417 599 417 599 452 543 c 0,9,10
 454 541 454 541 454 538 c 128,-1,11
 454 535 454 535 447.5 528.5 c 128,-1,12
 441 522 441 522 432 522 c 2,13,-1
 431 522 l 2,14,15
 421 522 421 522 412 531 c 0,16,17
 380 561 380 561 334 633 c 0,18,19
 315 664 315 664 314 713 c 1,20,-1
 314 715 l 2,0,1
120 713 m 2,21,22
 120 746 120 746 143 769 c 128,-1,23
 166 792 166 792 199 792 c 128,-1,24
 232 792 232 792 255.5 769 c 128,-1,25
 279 746 279 746 279 713.5 c 128,-1,26
 279 681 279 681 262 657.5 c 128,-1,27
 245 634 245 634 213 634 c 1,28,29
 223 597 223 597 258 541 c 0,30,31
 260 539 260 539 260 536 c 128,-1,32
 260 533 260 533 253.5 526.5 c 128,-1,33
 247 520 247 520 238 520 c 2,34,-1
 237 520 l 2,35,36
 227 520 227 520 218 529 c 0,37,38
 186 559 186 559 140 631 c 0,39,40
 121 662 121 662 120 711 c 1,41,-1
 120 713 l 2,21,22
EndSplineSet
EndChar
StartChar: twodotenleader
Encoding: 8229 8229 4785
Width: 668
Flags: W
LayerCount: 2
Fore
SplineSet
101 67.5 m 128,-1,1
 101 95 101 95 121 114.5 c 128,-1,2
 141 134 141 134 168.5 134 c 128,-1,3
 196 134 196 134 215.5 114.5 c 128,-1,4
 235 95 235 95 235 67.5 c 128,-1,5
 235 40 235 40 215.5 20 c 128,-1,6
 196 0 196 0 168.5 0 c 128,-1,7
 141 0 141 0 121 20 c 128,-1,0
 101 40 101 40 101 67.5 c 128,-1,1
433 67.5 m 128,-1,9
 433 95 433 95 453 114.5 c 128,-1,10
 473 134 473 134 500.5 134 c 128,-1,11
 528 134 528 134 547.5 114.5 c 128,-1,12
 567 95 567 95 567 67.5 c 128,-1,13
 567 40 567 40 547.5 20 c 128,-1,14
 528 0 528 0 500.5 0 c 128,-1,15
 473 0 473 0 453 20 c 128,-1,8
 433 40 433 40 433 67.5 c 128,-1,9
EndSplineSet
EndChar

StartChar: ellipsis
Encoding: 8230 8230 473
Width: 1000
GlyphClass: 2
Flags: W
LayerCount: 2
Fore
SplineSet
433 67.5 m 128,-1,1
 433 95 433 95 453 114.5 c 128,-1,2
 473 134 473 134 500.5 134 c 128,-1,3
 528 134 528 134 547.5 114.5 c 128,-1,4
 567 95 567 95 567 67.5 c 128,-1,5
 567 40 567 40 547.5 20 c 128,-1,6
 528 0 528 0 500.5 0 c 128,-1,7
 473 0 473 0 453 20 c 128,-1,0
 433 40 433 40 433 67.5 c 128,-1,1
101 67.5 m 128,-1,9
 101 95 101 95 121 114.5 c 128,-1,10
 141 134 141 134 168.5 134 c 128,-1,11
 196 134 196 134 215.5 114.5 c 128,-1,12
 235 95 235 95 235 67.5 c 128,-1,13
 235 40 235 40 215.5 20 c 128,-1,14
 196 0 196 0 168.5 0 c 128,-1,15
 141 0 141 0 121 20 c 128,-1,8
 101 40 101 40 101 67.5 c 128,-1,9
765 67.5 m 128,-1,17
 765 95 765 95 785 114.5 c 128,-1,18
 805 134 805 134 832.5 134 c 128,-1,19
 860 134 860 134 879.5 114.5 c 128,-1,20
 899 95 899 95 899 67.5 c 128,-1,21
 899 40 899 40 879.5 20 c 128,-1,22
 860 0 860 0 832.5 0 c 128,-1,23
 805 0 805 0 785 20 c 128,-1,16
 765 40 765 40 765 67.5 c 128,-1,17
EndSplineSet
Validated: 1
EndChar
StartChar: minute
Encoding: 8242 8242 4788
Width: 290
Flags: W
LayerCount: 2
Fore
SplineSet
213.481445312 712.2265625 m 5,0,1
 186.120117188 637.051757812 186.120117188 637.051757812 100.552734375 480.900390625 c 5,2,-1
 67.6640625 492.87109375 l 5,3,4
 103.426757812 667.149414062 103.426757812 667.149414062 130.7890625 742.32421875 c 5,5,6
 155.231445312 768.545898438 155.231445312 768.545898438 183.421875 758.28515625 c 132,-1,7
 211.612304688 748.025390625 211.612304688 748.025390625 213.481445312 712.2265625 c 5,0,1
EndSplineSet
EndChar
StartChar: guilsinglleft
Encoding: 8249 8249 4790
Width: 525
Flags: W
LayerCount: 2
Fore
SplineSet
169 319 m 1,0,-1
 415 530 l 1,1,-1
 415 472 l 1,2,-1
 271 320 l 1,3,-1
 415 167 l 1,4,-1
 415 108 l 1,5,-1
 169 319 l 1,0,-1
EndSplineSet
EndChar
StartChar: guilsinglright
Encoding: 8250 8250 4791
Width: 525
Flags: W
LayerCount: 2
Fore
SplineSet
356 319 m 1,0,-1
 110 108 l 1,1,-1
 110 167 l 1,2,-1
 254 320 l 1,3,-1
 110 472 l 1,4,-1
 110 530 l 1,5,-1
 356 319 l 1,0,-1
EndSplineSet
EndChar

StartChar: uni203B
Encoding: 8251 8251 474
Width: 1000
GlyphClass: 2
Flags: W
LayerCount: 2
Fore
SplineSet
444.5 165 m 128,-1,1
 468 188 468 188 500.5 188 c 128,-1,2
 533 188 533 188 556 165 c 128,-1,3
 579 142 579 142 579 109.5 c 128,-1,4
 579 77 579 77 556 54 c 128,-1,5
 533 31 533 31 500.5 31 c 128,-1,6
 468 31 468 31 444.5 54 c 128,-1,7
 421 77 421 77 421 109.5 c 128,-1,0
 421 142 421 142 444.5 165 c 128,-1,1
303 306 m 128,-1,9
 280 283 280 283 247.5 283 c 128,-1,10
 215 283 215 283 192 306 c 128,-1,11
 169 329 169 329 169 361.5 c 128,-1,12
 169 394 169 394 192 417 c 128,-1,13
 215 440 215 440 247.5 440 c 128,-1,14
 280 440 280 440 303 417 c 128,-1,15
 326 394 326 394 326 361.5 c 128,-1,8
 326 329 326 329 303 306 c 128,-1,9
697 417 m 128,-1,17
 720 440 720 440 752.5 440 c 128,-1,18
 785 440 785 440 808 417 c 128,-1,19
 831 394 831 394 831 361.5 c 128,-1,20
 831 329 831 329 808 306 c 128,-1,21
 785 283 785 283 752.5 283 c 128,-1,22
 720 283 720 283 697 306 c 128,-1,23
 674 329 674 329 674 361.5 c 128,-1,16
 674 394 674 394 697 417 c 128,-1,17
556 558 m 128,-1,25
 533 535 533 535 500.5 535 c 128,-1,26
 468 535 468 535 444.5 558 c 128,-1,27
 421 581 421 581 421 613.5 c 128,-1,28
 421 646 421 646 444.5 669 c 128,-1,29
 468 692 468 692 500.5 692 c 128,-1,30
 533 692 533 692 556 669 c 128,-1,31
 579 646 579 646 579 613.5 c 128,-1,24
 579 581 579 581 556 558 c 128,-1,25
834 648 m 1,32,-1
 547 361 l 1,33,-1
 834 75 l 1,34,-1
 787 28 l 1,35,-1
 500 315 l 1,36,-1
 213 28 l 1,37,-1
 166 75 l 1,38,-1
 453 361 l 1,39,-1
 166 648 l 1,40,-1
 213 695 l 1,41,-1
 500 408 l 1,42,-1
 787 695 l 1,43,-1
 834 648 l 1,32,-1
EndSplineSet
Validated: 1
EndChar
StartChar: uni20A9
Encoding: 8361 8361 4730
Width: 1120
Flags: W
LayerCount: 2
Fore
SplineSet
69 471 m 5,0,-1
 69 516 l 5,1,-1
 1051 516 l 5,2,-1
 1051 471 l 5,3,-1
 69 471 l 5,0,-1
95 695 m 1,4,-1
 40 695 l 1,5,-1
 40 740 l 1,6,-1
 348 740 l 1,7,-1
 348 695 l 1,8,-1
 288 695 l 2,9,10
 267 695 267 695 258.5 683.5 c 128,-1,11
 250 672 250 672 250 662 c 2,12,-1
 250 649 l 1,13,-1
 442 199 l 1,14,-1
 574 514 l 1,15,-1
 603 444 l 1,16,-1
 416 0 l 1,17,-1
 150 649 l 2,18,19
 134 689 134 689 95 695 c 1,4,-1
504 649 m 2,20,21
 490 690 490 690 459 695 c 1,22,-1
 416 695 l 1,23,-1
 416 740 l 1,24,-1
 690 740 l 1,25,-1
 690 695 l 1,26,-1
 642 695 l 2,27,28
 621 695 621 695 612.5 683.5 c 128,-1,29
 604 672 604 672 604 662 c 2,30,-1
 604 649 l 1,31,-1
 745 221 l 1,32,-1
 910 649 l 1,33,-1
 910 661 l 2,34,35
 910 671 910 671 898.5 683 c 128,-1,36
 887 695 887 695 872 695 c 2,37,-1
 812 695 l 1,38,-1
 812 740 l 1,39,-1
 1075 740 l 1,40,-1
 1075 695 l 1,41,-1
 1025 695 l 2,42,43
 1011 695 1011 695 994 680 c 0,44,45
 976 664 976 664 970 649 c 2,46,-1
 724 0 l 1,47,-1
 504 649 l 2,20,21
69 328 m 1,48,-1
 69 373 l 1,49,-1
 1051 373 l 1,50,-1
 1051 328 l 1,51,-1
 69 328 l 1,48,-1
EndSplineSet
EndChar
StartChar: uni2161
Encoding: 8545 8545 4370
Width: 1000
Flags: W
LayerCount: 2
Fore
SplineSet
660 75 m 1,0,1
 667 45 667 45 706 45 c 2,2,-1
 771 45 l 1,3,-1
 771 0 l 1,4,-1
 229 0 l 1,5,-1
 229 45 l 1,6,-1
 300 46 l 1,7,8
 328 50 328 50 341 75 c 1,9,-1
 341 652 l 1,10,11
 337 675 337 675 294 682 c 1,12,-1
 229 682 l 1,13,-1
 229 727 l 1,14,-1
 771 727 l 1,15,-1
 771 682 l 1,16,-1
 701 682 l 1,17,18
 674 678 674 678 660 652 c 1,19,-1
 660 75 l 1,0,1
477 682 m 1,20,21
 450 678 450 678 436 652 c 1,22,-1
 436 75 l 1,23,24
 442.296875 48.013671875 442.296875 48.013671875 474.48828125 45.302734375 c 1,25,-1
 524 46 l 1,26,27
 552 50 552 50 565 75 c 1,28,-1
 565 652 l 1,29,30
 561 675 561 675 518 682 c 1,31,-1
 477 682 l 1,20,21
EndSplineSet
EndChar
StartChar: uni2162
Encoding: 8546 8546 4371
Width: 1000
Flags: W
LayerCount: 2
Fore
SplineSet
748 75 m 1,0,1
 755 45 755 45 794 45 c 2,2,-1
 859 45 l 1,3,-1
 859 0 l 1,4,-1
 141 0 l 1,5,-1
 141 45 l 1,6,-1
 212 46 l 1,7,8
 240 50 240 50 253 75 c 1,9,-1
 253 652 l 1,10,11
 249 675 249 675 206 682 c 1,12,-1
 141 682 l 1,13,-1
 141 727 l 1,14,-1
 859 727 l 1,15,-1
 859 682 l 1,16,-1
 789 682 l 1,17,18
 762 678 762 678 748 652 c 1,19,-1
 748 75 l 1,0,1
389 682 m 1,20,21
 362 678 362 678 348 652 c 1,22,-1
 348 75 l 1,23,24
 354.009955278 49.2430488091 354.009955278 49.2430488091 383.608196232 45.6001154399 c 1,25,-1
 412 46 l 1,26,27
 440 50 440 50 453 75 c 1,28,-1
 453 652 l 1,29,30
 449 675 449 675 406 682 c 1,31,-1
 389 682 l 1,20,21
589 682 m 1,32,33
 562 678 562 678 548 652 c 1,34,-1
 548 75 l 1,35,36
 554.009955278 49.2430488091 554.009955278 49.2430488091 583.608196232 45.6001154399 c 1,37,-1
 612 46 l 1,38,39
 640 50 640 50 653 75 c 1,40,-1
 653 652 l 1,41,42
 649 675 649 675 606 682 c 1,43,-1
 589 682 l 1,32,33
EndSplineSet
EndChar

StartChar: uni2318
Encoding: 8984 8984 479
Width: 1000
GlyphClass: 2
Flags: W
LayerCount: 2
Fore
SplineSet
299 663 m 0,0,1
 269 663 269 663 247.5 641.5 c 128,-1,2
 226 620 226 620 226 595 c 0,3,4
 226 549 226 549 264 532 c 0,5,6
 279 526 279 526 299 526 c 2,7,-1
 364 526 l 1,8,-1
 364 591 l 1,9,10
 362 643 362 643 324 659 c 0,11,12
 312 663 312 663 299 663 c 0,0,1
701 526 m 2,13,14
 754 526 754 526 770 566 c 0,15,16
 774 577 774 577 774 590 c 0,17,18
 774 620 774 620 752.5 641.5 c 128,-1,19
 731 663 731 663 706 663 c 0,20,21
 659 663 659 663 642 625 c 0,22,23
 636 610 636 610 636 591 c 2,24,-1
 636 526 l 1,25,-1
 701 526 l 2,13,14
435 325 m 1,26,-1
 565 325 l 1,27,-1
 565 455 l 1,28,-1
 435 455 l 1,29,-1
 435 325 l 1,26,-1
636 188 m 1,30,31
 638 137 638 137 676 121 c 0,32,33
 688 116 688 116 701 116 c 0,34,35
 731 116 731 116 752.5 137.5 c 128,-1,36
 774 159 774 159 774 184 c 0,37,38
 774 253 774 253 701 253 c 2,39,-1
 636 253 l 1,40,-1
 636 188 l 1,30,31
299 254 m 1,41,42
 247 252 247 252 231 214 c 0,43,44
 227 202 227 202 227 189 c 0,45,46
 227 159 227 159 248.5 137.5 c 128,-1,47
 270 116 270 116 295 116 c 0,48,49
 341 116 341 116 358 154 c 0,50,51
 364 169 364 169 364 189 c 2,52,-1
 364 254 l 1,53,-1
 299 254 l 1,41,42
197 87 m 1,54,55
 155 130 155 130 155 189 c 0,56,57
 155 229 155 229 176.5 263.5 c 128,-1,58
 198 298 198 298 232 311.5 c 128,-1,59
 266 325 266 325 299 325 c 2,60,-1
 364 325 l 1,61,-1
 364 455 l 1,62,-1
 299 455 l 2,63,64
 249 455 249 455 214 478 c 128,-1,65
 179 501 179 501 167 532.5 c 128,-1,66
 155 564 155 564 155 590 c 0,67,68
 155 650 155 650 197 693 c 1,69,70
 240 735 240 735 299 735 c 0,71,72
 339 735 339 735 373.5 713.5 c 128,-1,73
 408 692 408 692 421.5 658 c 128,-1,74
 435 624 435 624 435 591 c 2,75,-1
 435 526 l 1,76,-1
 565 526 l 1,77,-1
 565 591 l 2,78,79
 565 641 565 641 588.5 676 c 128,-1,80
 612 711 612 711 651 725 c 1,81,82
 675 735 675 735 701 735 c 0,83,84
 760 735 760 735 803 693 c 1,85,86
 845 650 845 650 845 590 c 0,87,88
 845 550 845 550 823.5 516 c 128,-1,89
 802 482 802 482 768 468.5 c 128,-1,90
 734 455 734 455 701 455 c 2,91,-1
 636 455 l 1,92,-1
 636 325 l 1,93,-1
 701 325 l 2,94,95
 751 325 751 325 786 302 c 0,96,97
 845 262 845 262 845 196 c 128,-1,98
 845 130 845 130 803 87 c 1,99,100
 760 45 760 45 701 45 c 0,101,102
 661 45 661 45 626 66 c 1,103,104
 565 105 565 105 565 188 c 2,105,-1
 565 254 l 1,106,-1
 435 254 l 1,107,-1
 435 189 l 2,108,109
 435 139 435 139 412 104 c 128,-1,110
 389 69 389 69 357.5 57 c 128,-1,111
 326 45 326 45 300 45 c 0,112,113
 240 45 240 45 197 87 c 1,54,55
EndSplineSet
Validated: 1
EndChar

StartChar: uni231A
Encoding: 8986 8986 481
Width: 1000
GlyphClass: 2
Flags: W
LayerCount: 2
Fore
SplineSet
664 628 m 1,0,1
 734 581 734 581 767 502 c 0,2,3
 790 449 790 449 790 390 c 128,-1,4
 790 331 790 331 767 278 c 0,5,6
 734 199 734 199 664 152 c 1,7,-1
 664 49 l 1,8,-1
 336 49 l 1,9,-1
 336 152 l 1,10,11
 266 199 266 199 233 278 c 0,12,13
 210 331 210 331 210 390 c 128,-1,14
 210 449 210 449 233 502 c 0,15,16
 266 581 266 581 336 628 c 1,17,-1
 336 731 l 1,18,-1
 664 731 l 1,19,-1
 664 628 l 1,0,1
676 214 m 128,-1,21
 749 287 749 287 749 390 c 128,-1,22
 749 493 749 493 676 566 c 128,-1,23
 603 639 603 639 500 639 c 128,-1,24
 397 639 397 639 324 566 c 128,-1,25
 251 493 251 493 251 390 c 128,-1,26
 251 287 251 287 324 214 c 128,-1,27
 397 141 397 141 500 141 c 128,-1,20
 603 141 603 141 676 214 c 128,-1,21
486 175 m 1,28,-1
 486 212 l 1,29,-1
 514 212 l 1,30,-1
 514 175 l 1,31,-1
 486 175 l 1,28,-1
514 605 m 1,32,-1
 514 568 l 1,33,-1
 486 568 l 1,34,-1
 486 605 l 1,35,-1
 514 605 l 1,32,-1
586 222 m 1,36,-1
 602 232 l 1,37,-1
 615 208 l 1,38,-1
 600 199 l 1,39,-1
 586 222 l 1,36,-1
414 558 m 1,40,-1
 398 548 l 1,41,-1
 385 572 l 1,42,-1
 400 581 l 1,43,-1
 414 558 l 1,40,-1
342 492 m 1,44,-1
 332 476 l 1,45,-1
 309 490 l 1,46,-1
 318 505 l 1,47,-1
 342 492 l 1,44,-1
658 288 m 1,48,-1
 668 304 l 1,49,-1
 691 290 l 1,50,-1
 682 275 l 1,51,-1
 658 288 l 1,48,-1
309 290 m 1,52,-1
 332 304 l 1,53,-1
 342 288 l 1,54,-1
 318 275 l 1,55,-1
 309 290 l 1,52,-1
691 490 m 1,56,-1
 668 476 l 1,57,-1
 658 492 l 1,58,-1
 682 505 l 1,59,-1
 691 490 l 1,56,-1
385 208 m 1,60,-1
 398 232 l 1,61,-1
 414 222 l 1,62,-1
 400 199 l 1,63,-1
 385 208 l 1,60,-1
615 572 m 1,64,-1
 602 548 l 1,65,-1
 586 558 l 1,66,-1
 600 581 l 1,67,-1
 615 572 l 1,64,-1
678 404 m 1,68,-1
 715 404 l 1,69,-1
 715 376 l 1,70,-1
 678 376 l 1,71,-1
 678 404 l 1,68,-1
322 404 m 1,72,-1
 322 376 l 1,73,-1
 285 376 l 1,74,-1
 285 404 l 1,75,-1
 322 404 l 1,72,-1
523 428 m 1,76,-1
 617 488 l 1,77,-1
 625 478 l 1,78,-1
 542 403 l 1,79,-1
 518 388 l 1,80,81
 516 372 516 372 498 372 c 0,82,83
 489 372 489 372 484 382 c 1,84,-1
 444 390 l 1,85,-1
 309 438 l 1,86,-1
 312 452 l 1,87,-1
 453 420 l 1,88,-1
 491 405 l 1,89,90
 495 408 495 408 498 408 c 2,91,-1
 502 408 l 1,92,-1
 523 428 l 1,76,-1
EndSplineSet
EndChar
StartChar: uni2326
Encoding: 8998 8998 482
Width: 1000
GlyphClass: 2
Flags: W
LayerCount: 2
Fore
SplineSet
885 412 m 1,0,-1
 906 390 l 1,1,-1
 639 123 l 1,2,-1
 153 123 l 1,3,-1
 153 657 l 1,4,-1
 639 657 l 1,5,-1
 885 412 l 1,0,-1
614 184 m 1,6,-1
 820 390 l 1,7,-1
 614 596 l 1,8,-1
 214 596 l 1,9,-1
 214 184 l 1,10,-1
 614 184 l 1,6,-1
567 539 m 1,11,-1
 610 496 l 1,12,-1
 505 390 l 1,13,-1
 610 284 l 1,14,-1
 567 241 l 1,15,-1
 461 347 l 1,16,-1
 355 241 l 1,17,-1
 312 284 l 1,18,-1
 418 390 l 1,19,-1
 312 496 l 1,20,-1
 355 539 l 1,21,-1
 461 433 l 1,22,-1
 567 539 l 1,11,-1
EndSplineSet
EndChar

StartChar: uni232B
Encoding: 9003 9003 483
Width: 1000
GlyphClass: 2
Flags: W
LayerCount: 2
Fore
SplineSet
433 539 m 1,0,-1
 539 433 l 1,1,-1
 645 539 l 1,2,-1
 688 496 l 1,3,-1
 582 390 l 1,4,-1
 688 284 l 1,5,-1
 645 241 l 1,6,-1
 539 347 l 1,7,-1
 433 241 l 1,8,-1
 390 284 l 1,9,-1
 495 390 l 1,10,-1
 390 496 l 1,11,-1
 433 539 l 1,0,-1
386 184 m 1,12,-1
 786 184 l 1,13,-1
 786 596 l 1,14,-1
 386 596 l 1,15,-1
 180 390 l 1,16,-1
 386 184 l 1,12,-1
94 390 m 1,17,-1
 361 657 l 1,18,-1
 847 657 l 1,19,-1
 847 123 l 1,20,-1
 361 123 l 1,21,-1
 94 390 l 1,17,-1
EndSplineSet
Validated: 1
EndChar
StartChar: uni2460
Encoding: 9312 9312 484
Width: 1000
GlyphClass: 2
Flags: W
LayerCount: 2
Fore
SplineSet
540 170 m 1,0,1
 545 147 545 147 567 143 c 1,2,-1
 623 143 l 1,3,-1
 623 96 l 1,4,-1
 381 96 l 1,5,-1
 381 143 l 1,6,-1
 436 143 l 1,7,8
 464 145 464 145 469 175 c 1,9,-1
 469 472 l 1,10,11
 454 467 454 467 442 467 c 2,12,-1
 380 467 l 1,13,-1
 380 520 l 1,14,15
 390 519 390 519 406.5 519 c 128,-1,16
 423 519 423 519 438 530 c 0,17,18
 469 553 469 553 469 607 c 1,19,-1
 540 607 l 1,20,-1
 540 170 l 1,0,1
129 357.5 m 128,-1,22
 129 258 129 258 179 172.5 c 128,-1,23
 229 87 229 87 314.5 37 c 128,-1,24
 400 -13 400 -13 500 -13 c 128,-1,25
 600 -13 600 -13 685.5 37 c 128,-1,26
 771 87 771 87 821 172.5 c 128,-1,27
 871 258 871 258 871 357.5 c 128,-1,28
 871 457 871 457 821 542.5 c 128,-1,29
 771 628 771 628 685.5 678 c 128,-1,30
 600 728 600 728 500 728 c 128,-1,31
 400 728 400 728 314.5 678 c 128,-1,32
 229 628 229 628 179 542.5 c 128,-1,21
 129 457 129 457 129 357.5 c 128,-1,22
80 357.5 m 128,-1,34
 80 471 80 471 136 568 c 128,-1,35
 192 665 192 665 289 721 c 128,-1,36
 386 777 386 777 500 777 c 128,-1,37
 614 777 614 777 711 721 c 128,-1,38
 808 665 808 665 864 568 c 128,-1,39
 920 471 920 471 920 357.5 c 128,-1,40
 920 244 920 244 864 147 c 128,-1,41
 808 50 808 50 711 -6 c 128,-1,42
 614 -62 614 -62 500 -62 c 128,-1,43
 386 -62 386 -62 289 -6 c 128,-1,44
 192 50 192 50 136 147 c 128,-1,33
 80 244 80 244 80 357.5 c 128,-1,34
EndSplineSet
EndChar

StartChar: uni2461
Encoding: 9313 9313 485
Width: 1000
GlyphClass: 2
Flags: W
LayerCount: 2
Fore
SplineSet
80 357.5 m 128,-1,1
 80 471 80 471 136 568 c 128,-1,2
 192 665 192 665 289 721 c 128,-1,3
 386 777 386 777 500 777 c 128,-1,4
 614 777 614 777 711 721 c 128,-1,5
 808 665 808 665 864 568 c 128,-1,6
 920 471 920 471 920 357.5 c 128,-1,7
 920 244 920 244 864 147 c 128,-1,8
 808 50 808 50 711 -6 c 128,-1,9
 614 -62 614 -62 500 -62 c 128,-1,10
 386 -62 386 -62 289 -6 c 128,-1,11
 192 50 192 50 136 147 c 128,-1,0
 80 244 80 244 80 357.5 c 128,-1,1
129 357.5 m 128,-1,13
 129 258 129 258 179 172.5 c 128,-1,14
 229 87 229 87 314.5 37 c 128,-1,15
 400 -13 400 -13 500 -13 c 128,-1,16
 600 -13 600 -13 685.5 37 c 128,-1,17
 771 87 771 87 821 172.5 c 128,-1,18
 871 258 871 258 871 357.5 c 128,-1,19
 871 457 871 457 821 542.5 c 128,-1,20
 771 628 771 628 685.5 678 c 128,-1,21
 600 728 600 728 500 728 c 128,-1,22
 400 728 400 728 314.5 678 c 128,-1,23
 229 628 229 628 179 542.5 c 128,-1,12
 129 457 129 457 129 357.5 c 128,-1,13
574 171 m 2,24,25
 590 171 590 171 610.5 183.5 c 128,-1,26
 631 196 631 196 641 207 c 2,27,-1
 666 234 l 1,28,-1
 637 102 l 1,29,-1
 358 102 l 1,30,-1
 358 166 l 2,31,32
 358 223 358 223 415 286 c 0,33,34
 437 311 437 311 492 360 c 128,-1,35
 547 409 547 409 561.5 433 c 128,-1,36
 576 457 576 457 576 484 c 128,-1,37
 576 511 576 511 550 531 c 128,-1,38
 524 551 524 551 494 551 c 0,39,40
 435 551 435 551 378 519 c 1,41,-1
 366 511 l 1,42,-1
 354 555 l 1,43,44
 369 572 369 572 418 594.5 c 128,-1,45
 467 617 467 617 513.5 617 c 128,-1,46
 560 617 560 617 592 598 c 1,47,48
 653 567 653 567 653 478 c 0,49,50
 653 432 653 432 629.5 403.5 c 128,-1,51
 606 375 606 375 546.5 331 c 128,-1,52
 487 287 487 287 459 250 c 128,-1,53
 431 213 431 213 428 171 c 1,54,-1
 574 171 l 2,24,25
EndSplineSet
Validated: 1
EndChar
StartChar: uni2462
Encoding: 9314 9314 486
Width: 1000
GlyphClass: 2
Flags: W
LayerCount: 2
Fore
SplineSet
487 574 m 1,0,-1
 486 574 l 2,1,2
 449 574 449 574 391 529 c 1,3,-1
 365 565 l 1,4,-1
 389 581 l 2,5,6
 461 629 461 629 505.5 629 c 128,-1,7
 550 629 550 629 581 613.5 c 128,-1,8
 612 598 612 598 625.5 569.5 c 128,-1,9
 639 541 639 541 639 507.5 c 128,-1,10
 639 474 639 474 613 444.5 c 128,-1,11
 587 415 587 415 542 393 c 1,12,13
 621 385 621 385 651 334 c 0,14,15
 667 307 667 307 667 268 c 0,16,17
 667 207 667 207 626 168 c 128,-1,18
 585 129 585 129 518 108 c 0,19,20
 479 96 479 96 439 96 c 128,-1,21
 399 96 399 96 359 103 c 1,22,-1
 344 154 l 1,23,-1
 363 151 l 1,24,-1
 379 149 l 2,25,26
 394 147 394 147 423 147 c 128,-1,27
 452 147 452 147 482.5 152.5 c 128,-1,28
 513 158 513 158 552.5 190 c 128,-1,29
 592 222 592 222 592 268 c 0,30,31
 592 352 592 352 484 352 c 0,32,33
 479 352 479 352 469 352 c 128,-1,34
 459 352 459 352 444 348 c 2,35,-1
 406 338 l 1,36,-1
 398 389 l 1,37,-1
 432 393 l 2,38,39
 447 395 447 395 465 404 c 0,40,41
 565 456 565 456 565 515 c 0,42,43
 565 546 565 546 538 564 c 0,44,45
 524 573 524 573 487 574 c 1,0,-1
129 357.5 m 128,-1,47
 129 258 129 258 179 172.5 c 128,-1,48
 229 87 229 87 314.5 37 c 128,-1,49
 400 -13 400 -13 500 -13 c 128,-1,50
 600 -13 600 -13 685.5 37 c 128,-1,51
 771 87 771 87 821 172.5 c 128,-1,52
 871 258 871 258 871 357.5 c 128,-1,53
 871 457 871 457 821 542.5 c 128,-1,54
 771 628 771 628 685.5 678 c 128,-1,55
 600 728 600 728 500 728 c 128,-1,56
 400 728 400 728 314.5 678 c 128,-1,57
 229 628 229 628 179 542.5 c 128,-1,46
 129 457 129 457 129 357.5 c 128,-1,47
80 357.5 m 128,-1,59
 80 471 80 471 136 568 c 128,-1,60
 192 665 192 665 289 721 c 128,-1,61
 386 777 386 777 500 777 c 128,-1,62
 614 777 614 777 711 721 c 128,-1,63
 808 665 808 665 864 568 c 128,-1,64
 920 471 920 471 920 357.5 c 128,-1,65
 920 244 920 244 864 147 c 128,-1,66
 808 50 808 50 711 -6 c 128,-1,67
 614 -62 614 -62 500 -62 c 128,-1,68
 386 -62 386 -62 289 -6 c 128,-1,69
 192 50 192 50 136 147 c 128,-1,58
 80 244 80 244 80 357.5 c 128,-1,59
EndSplineSet
EndChar
StartChar: uni2463
Encoding: 9315 9315 487
Width: 1000
GlyphClass: 2
Flags: W
LayerCount: 2
Fore
SplineSet
423 145 m 1,0,-1
 477 145 l 2,1,2
 487 145 487 145 495 153.5 c 128,-1,3
 503 162 503 162 505 171 c 1,4,-1
 505 228 l 1,5,-1
 283 228 l 1,6,-1
 503 620 l 1,7,-1
 573 620 l 1,8,-1
 573 288 l 1,9,-1
 659 288 l 1,10,-1
 659 228 l 1,11,-1
 573 228 l 1,12,-1
 573 176 l 1,13,14
 577 160 577 160 583.5 153.5 c 128,-1,15
 590 147 590 147 601 145 c 1,16,-1
 652 145 l 1,17,-1
 652 103 l 1,18,-1
 423 103 l 1,19,-1
 423 145 l 1,0,-1
371 288 m 1,20,-1
 505 288 l 1,21,-1
 505 518 l 1,22,-1
 371 288 l 1,20,-1
129 357.5 m 128,-1,24
 129 258 129 258 179 172.5 c 128,-1,25
 229 87 229 87 314.5 37 c 128,-1,26
 400 -13 400 -13 500 -13 c 128,-1,27
 600 -13 600 -13 685.5 37 c 128,-1,28
 771 87 771 87 821 172.5 c 128,-1,29
 871 258 871 258 871 357.5 c 128,-1,30
 871 457 871 457 821 542.5 c 128,-1,31
 771 628 771 628 685.5 678 c 128,-1,32
 600 728 600 728 500 728 c 128,-1,33
 400 728 400 728 314.5 678 c 128,-1,34
 229 628 229 628 179 542.5 c 128,-1,23
 129 457 129 457 129 357.5 c 128,-1,24
80 357.5 m 128,-1,36
 80 471 80 471 136 568 c 128,-1,37
 192 665 192 665 289 721 c 128,-1,38
 386 777 386 777 500 777 c 128,-1,39
 614 777 614 777 711 721 c 128,-1,40
 808 665 808 665 864 568 c 128,-1,41
 920 471 920 471 920 357.5 c 128,-1,42
 920 244 920 244 864 147 c 128,-1,43
 808 50 808 50 711 -6 c 128,-1,44
 614 -62 614 -62 500 -62 c 128,-1,45
 386 -62 386 -62 289 -6 c 128,-1,46
 192 50 192 50 136 147 c 128,-1,35
 80 244 80 244 80 357.5 c 128,-1,36
EndSplineSet
Validated: 1
EndChar

StartChar: uni2464
Encoding: 9316 9316 488
Width: 1000
GlyphClass: 2
Flags: W
LayerCount: 2
Fore
SplineSet
80 357.5 m 128,-1,1
 80 471 80 471 136 568 c 128,-1,2
 192 665 192 665 289 721 c 128,-1,3
 386 777 386 777 500 777 c 128,-1,4
 614 777 614 777 711 721 c 128,-1,5
 808 665 808 665 864 568 c 128,-1,6
 920 471 920 471 920 357.5 c 128,-1,7
 920 244 920 244 864 147 c 128,-1,8
 808 50 808 50 711 -6 c 128,-1,9
 614 -62 614 -62 500 -62 c 128,-1,10
 386 -62 386 -62 289 -6 c 128,-1,11
 192 50 192 50 136 147 c 128,-1,0
 80 244 80 244 80 357.5 c 128,-1,1
129 357.5 m 128,-1,13
 129 258 129 258 179 172.5 c 128,-1,14
 229 87 229 87 314.5 37 c 128,-1,15
 400 -13 400 -13 500 -13 c 128,-1,16
 600 -13 600 -13 685.5 37 c 128,-1,17
 771 87 771 87 821 172.5 c 128,-1,18
 871 258 871 258 871 357.5 c 128,-1,19
 871 457 871 457 821 542.5 c 128,-1,20
 771 628 771 628 685.5 678 c 128,-1,21
 600 728 600 728 500 728 c 128,-1,22
 400 728 400 728 314.5 678 c 128,-1,23
 229 628 229 628 179 542.5 c 128,-1,12
 129 457 129 457 129 357.5 c 128,-1,13
350 151 m 1,24,25
 403 140 403 140 432 140 c 128,-1,26
 461 140 461 140 467 141 c 0,27,28
 546 154 546 154 584 220 c 0,29,30
 598 246 598 246 598 279 c 128,-1,31
 598 312 598 312 581 336 c 0,32,33
 552 380 552 380 496.5 380 c 128,-1,34
 441 380 441 380 411 366 c 1,35,-1
 390 357 l 1,36,-1
 399 622 l 1,37,-1
 648 622 l 1,38,-1
 648 554 l 1,39,-1
 448 554 l 1,40,-1
 442 415 l 1,41,42
 483 429 483 429 516 429 c 128,-1,43
 549 429 549 429 585.5 415.5 c 128,-1,44
 622 402 622 402 641 372 c 0,45,46
 670 327 670 327 670 282 c 2,47,-1
 670 279 l 2,48,49
 670 238 670 238 652 203.5 c 128,-1,50
 634 169 634 169 615 150 c 0,51,52
 558 92 558 92 438 92 c 0,53,54
 402 92 402 92 364 100 c 1,55,-1
 350 151 l 1,24,25
EndSplineSet
Validated: 1
EndChar

StartChar: uni2465
Encoding: 9317 9317 489
Width: 1000
GlyphClass: 2
Flags: W
LayerCount: 2
Fore
SplineSet
80 357.5 m 128,-1,1
 80 471 80 471 136 568 c 128,-1,2
 192 665 192 665 289 721 c 128,-1,3
 386 777 386 777 500 777 c 128,-1,4
 614 777 614 777 711 721 c 128,-1,5
 808 665 808 665 864 568 c 128,-1,6
 920 471 920 471 920 357.5 c 128,-1,7
 920 244 920 244 864 147 c 128,-1,8
 808 50 808 50 711 -6 c 128,-1,9
 614 -62 614 -62 500 -62 c 128,-1,10
 386 -62 386 -62 289 -6 c 128,-1,11
 192 50 192 50 136 147 c 128,-1,0
 80 244 80 244 80 357.5 c 128,-1,1
129 357.5 m 128,-1,13
 129 258 129 258 179 172.5 c 128,-1,14
 229 87 229 87 314.5 37 c 128,-1,15
 400 -13 400 -13 500 -13 c 128,-1,16
 600 -13 600 -13 685.5 37 c 128,-1,17
 771 87 771 87 821 172.5 c 128,-1,18
 871 258 871 258 871 357.5 c 128,-1,19
 871 457 871 457 821 542.5 c 128,-1,20
 771 628 771 628 685.5 678 c 128,-1,21
 600 728 600 728 500 728 c 128,-1,22
 400 728 400 728 314.5 678 c 128,-1,23
 229 628 229 628 179 542.5 c 128,-1,12
 129 457 129 457 129 357.5 c 128,-1,13
577 275 m 2,24,-1
 577 287 l 2,25,26
 577 408 577 408 499 408 c 2,27,-1
 496 408 l 2,28,29
 464 408 464 408 440.5 380.5 c 128,-1,30
 417 353 417 353 415 286 c 1,31,-1
 415 272 l 2,32,33
 415 212 415 212 435 178 c 128,-1,34
 455 144 455 144 492 142 c 1,35,-1
 495 142 l 2,36,37
 529 142 529 142 553 176 c 128,-1,38
 577 210 577 210 577 275 c 2,24,-1
417 413 m 1,39,40
 449 452 449 452 500 452 c 2,41,-1
 502 452 l 2,42,43
 568 452 568 452 611 406 c 128,-1,44
 654 360 654 360 654 283 c 2,45,-1
 654 282 l 2,46,47
 654 164 654 164 573 115 c 0,48,49
 540 95 540 95 496 95 c 2,50,-1
 492 95 l 2,51,52
 450 95 450 95 417 116 c 0,53,54
 336 166 336 166 336 314 c 0,55,56
 336 424 336 424 365 492 c 0,57,58
 383 532 383 532 424 575 c 1,59,60
 452 602 452 602 507.5 621.5 c 128,-1,61
 563 641 563 641 609 643 c 1,62,-1
 594 586 l 1,63,-1
 583 586 l 2,64,65
 503 586 503 586 453 517 c 0,66,67
 436 494 436 494 427 462 c 128,-1,68
 418 430 418 430 417 413 c 1,39,40
EndSplineSet
Validated: 1
EndChar

StartChar: uni2466
Encoding: 9318 9318 490
Width: 1000
GlyphClass: 2
Flags: W
LayerCount: 2
Fore
SplineSet
458 302 m 0,0,1
 489 398 489 398 560 502 c 2,2,-1
 588 543 l 1,3,-1
 354 543 l 1,4,-1
 386 611 l 1,5,-1
 665 611 l 1,6,-1
 665 539 l 1,7,-1
 663 538 l 2,8,9
 657 534 657 534 647.5 525 c 128,-1,10
 638 516 638 516 610.5 481.5 c 128,-1,11
 583 447 583 447 554 395 c 0,12,13
 494 285 494 285 494 122 c 0,14,15
 494 120 494 120 494 117 c 2,16,17
 494 117 494 117 494 86 c 1,18,-1
 423 86 l 1,19,-1
 424 92 l 1,20,21
 439 241 439 241 458 302 c 0,0,1
129 357.5 m 128,-1,23
 129 258 129 258 179 172.5 c 128,-1,24
 229 87 229 87 314.5 37 c 128,-1,25
 400 -13 400 -13 500 -13 c 128,-1,26
 600 -13 600 -13 685.5 37 c 128,-1,27
 771 87 771 87 821 172.5 c 128,-1,28
 871 258 871 258 871 357.5 c 128,-1,29
 871 457 871 457 821 542.5 c 128,-1,30
 771 628 771 628 685.5 678 c 128,-1,31
 600 728 600 728 500 728 c 128,-1,32
 400 728 400 728 314.5 678 c 128,-1,33
 229 628 229 628 179 542.5 c 128,-1,22
 129 457 129 457 129 357.5 c 128,-1,23
80 357.5 m 128,-1,35
 80 471 80 471 136 568 c 128,-1,36
 192 665 192 665 289 721 c 128,-1,37
 386 777 386 777 500 777 c 128,-1,38
 614 777 614 777 711 721 c 128,-1,39
 808 665 808 665 864 568 c 128,-1,40
 920 471 920 471 920 357.5 c 128,-1,41
 920 244 920 244 864 147 c 128,-1,42
 808 50 808 50 711 -6 c 128,-1,43
 614 -62 614 -62 500 -62 c 128,-1,44
 386 -62 386 -62 289 -6 c 128,-1,45
 192 50 192 50 136 147 c 128,-1,34
 80 244 80 244 80 357.5 c 128,-1,35
EndSplineSet
EndChar

StartChar: uni2467
Encoding: 9319 9319 491
Width: 1000
GlyphClass: 2
Flags: W
LayerCount: 2
Fore
SplineSet
434 379 m 1,0,1
 354 429 354 429 354 502 c 0,2,3
 354 564 354 564 393 597 c 128,-1,4
 432 630 432 630 493 630 c 128,-1,5
 554 630 554 630 593 593 c 128,-1,6
 632 556 632 556 632 509 c 0,7,8
 632 449 632 449 561 394 c 1,9,10
 604 369 604 369 626 342 c 0,11,12
 662 299 662 299 662 235.5 c 128,-1,13
 662 172 662 172 613 130.5 c 128,-1,14
 564 89 564 89 493 89 c 2,15,-1
 492 89 l 2,16,17
 462 89 462 89 422 107.5 c 128,-1,18
 382 126 382 126 359 162 c 128,-1,19
 336 198 336 198 336 232.5 c 128,-1,20
 336 267 336 267 348.5 293 c 128,-1,21
 361 319 361 319 385 342.5 c 128,-1,22
 409 366 409 366 434 379 c 1,0,1
562 501 m 0,23,24
 562 588 562 588 494 588 c 0,25,26
 462 588 462 588 443 564 c 128,-1,27
 424 540 424 540 424 512.5 c 128,-1,28
 424 485 424 485 428 479 c 0,29,30
 441 461 441 461 446 450 c 1,31,32
 451 446 451 446 476.5 432.5 c 128,-1,33
 502 419 502 419 506.5 419 c 128,-1,34
 511 419 511 419 529 432 c 0,35,36
 562 455 562 455 562 501 c 0,23,24
490 348 m 0,37,38
 483 351 483 351 481 351 c 2,39,-1
 479 351 l 1,40,41
 465 338 465 338 450 328 c 128,-1,42
 435 318 435 318 421.5 292 c 128,-1,43
 408 266 408 266 408 246 c 0,44,45
 408 147 408 147 490 139 c 1,46,-1
 500 139 l 2,47,48
 531 139 531 139 560 161 c 128,-1,49
 589 183 589 183 589 233.5 c 128,-1,50
 589 284 589 284 557.5 310 c 128,-1,51
 526 336 526 336 490 348 c 0,37,38
129 357.5 m 128,-1,53
 129 258 129 258 179 172.5 c 128,-1,54
 229 87 229 87 314.5 37 c 128,-1,55
 400 -13 400 -13 500 -13 c 128,-1,56
 600 -13 600 -13 685.5 37 c 128,-1,57
 771 87 771 87 821 172.5 c 128,-1,58
 871 258 871 258 871 357.5 c 128,-1,59
 871 457 871 457 821 542.5 c 128,-1,60
 771 628 771 628 685.5 678 c 128,-1,61
 600 728 600 728 500 728 c 128,-1,62
 400 728 400 728 314.5 678 c 128,-1,63
 229 628 229 628 179 542.5 c 128,-1,52
 129 457 129 457 129 357.5 c 128,-1,53
80 357.5 m 128,-1,65
 80 471 80 471 136 568 c 128,-1,66
 192 665 192 665 289 721 c 128,-1,67
 386 777 386 777 500 777 c 128,-1,68
 614 777 614 777 711 721 c 128,-1,69
 808 665 808 665 864 568 c 128,-1,70
 920 471 920 471 920 357.5 c 128,-1,71
 920 244 920 244 864 147 c 128,-1,72
 808 50 808 50 711 -6 c 128,-1,73
 614 -62 614 -62 500 -62 c 128,-1,74
 386 -62 386 -62 289 -6 c 128,-1,75
 192 50 192 50 136 147 c 128,-1,64
 80 244 80 244 80 357.5 c 128,-1,65
EndSplineSet
EndChar

StartChar: uni2468
Encoding: 9320 9320 492
Width: 1000
GlyphClass: 2
Flags: W
LayerCount: 2
Fore
SplineSet
80 357.5 m 128,-1,1
 80 471 80 471 136 568 c 128,-1,2
 192 665 192 665 289 721 c 128,-1,3
 386 777 386 777 500 777 c 128,-1,4
 614 777 614 777 711 721 c 128,-1,5
 808 665 808 665 864 568 c 128,-1,6
 920 471 920 471 920 357.5 c 128,-1,7
 920 244 920 244 864 147 c 128,-1,8
 808 50 808 50 711 -6 c 128,-1,9
 614 -62 614 -62 500 -62 c 128,-1,10
 386 -62 386 -62 289 -6 c 128,-1,11
 192 50 192 50 136 147 c 128,-1,0
 80 244 80 244 80 357.5 c 128,-1,1
129 357.5 m 128,-1,13
 129 258 129 258 179 172.5 c 128,-1,14
 229 87 229 87 314.5 37 c 128,-1,15
 400 -13 400 -13 500 -13 c 128,-1,16
 600 -13 600 -13 685.5 37 c 128,-1,17
 771 87 771 87 821 172.5 c 128,-1,18
 871 258 871 258 871 357.5 c 128,-1,19
 871 457 871 457 821 542.5 c 128,-1,20
 771 628 771 628 685.5 678 c 128,-1,21
 600 728 600 728 500 728 c 128,-1,22
 400 728 400 728 314.5 678 c 128,-1,23
 229 628 229 628 179 542.5 c 128,-1,12
 129 457 129 457 129 357.5 c 128,-1,13
425 447 m 2,24,-1
 425 435 l 2,25,26
 425 314 425 314 503 314 c 2,27,-1
 506 314 l 2,28,29
 538 314 538 314 561.5 341.5 c 128,-1,30
 585 369 585 369 587 436 c 1,31,-1
 587 450 l 2,32,33
 587 510 587 510 567 544 c 128,-1,34
 547 578 547 578 510 580 c 1,35,-1
 507 580 l 2,36,37
 473 580 473 580 449 546 c 128,-1,38
 425 512 425 512 425 447 c 2,24,-1
419 136 m 2,39,40
 499 136 499 136 549 205 c 0,41,42
 566 228 566 228 575 259.5 c 128,-1,43
 584 291 584 291 585 307 c 1,44,-1
 585 309 l 1,45,46
 574 296 574 296 555 283 c 128,-1,47
 536 270 536 270 502 270 c 2,48,-1
 500 270 l 2,49,50
 434 270 434 270 391 316 c 128,-1,51
 348 362 348 362 348 439 c 2,52,-1
 348 440 l 2,53,54
 348 558 348 558 429 607 c 0,55,56
 462 627 462 627 506 627 c 2,57,-1
 510 627 l 2,58,59
 552 627 552 627 585 606 c 0,60,61
 666 556 666 556 666 408 c 0,62,63
 666 298 666 298 637 230 c 0,64,65
 619 190 619 190 578 147 c 1,66,67
 550 120 550 120 494.5 100.5 c 128,-1,68
 439 81 439 81 400 79 c 1,69,-1
 393 79 l 1,70,-1
 408 136 l 1,71,-1
 419 136 l 2,39,40
EndSplineSet
Validated: 1
EndChar
StartChar: uni2501
Encoding: 9473 9473 494
Width: 1000
GlyphClass: 2
Flags: W
LayerCount: 2
Fore
SplineSet
0 304 m 1,0,-1
 0 436 l 1,1,-1
 1000 436 l 1,2,-1
 1000 304 l 1,3,-1
 0 304 l 1,0,-1
EndSplineSet
Validated: 1
EndChar

StartChar: SF110000
Encoding: 9474 9474 495
Width: 1000
GlyphClass: 2
Flags: W
LayerCount: 2
Fore
SplineSet
525 -250 m 1,0,-1
 475 -250 l 1,1,-1
 475 990 l 1,2,-1
 525 990 l 1,3,-1
 525 -250 l 1,0,-1
EndSplineSet
Validated: 1
EndChar
StartChar: uni2503
Encoding: 9475 9475 496
Width: 1000
GlyphClass: 2
Flags: W
LayerCount: 2
Fore
SplineSet
566 -250 m 1,0,-1
 434 -250 l 1,1,-1
 434 990 l 1,2,-1
 566 990 l 1,3,-1
 566 -250 l 1,0,-1
EndSplineSet
Validated: 1
EndChar
StartChar: SF010000
Encoding: 9484 9484 497
Width: 1000
GlyphClass: 2
Flags: W
LayerCount: 2
Fore
SplineSet
475 -250 m 1,0,-1
 475 395 l 1,1,-1
 1000 395 l 1,2,-1
 1000 345 l 1,3,-1
 525 345 l 1,4,-1
 525 -250 l 1,5,-1
 475 -250 l 1,0,-1
EndSplineSet
EndChar
StartChar: uni250D
Encoding: 9485 9485 498
Width: 1000
GlyphClass: 2
Flags: W
LayerCount: 2
Fore
SplineSet
1000 304 m 1,0,-1
 525 304 l 1,1,-1
 525 -250 l 1,2,-1
 475 -250 l 1,3,-1
 475 436 l 1,4,-1
 1000 436 l 1,5,-1
 1000 304 l 1,0,-1
EndSplineSet
Validated: 1
EndChar

StartChar: uni250E
Encoding: 9486 9486 499
Width: 1000
GlyphClass: 2
Flags: W
LayerCount: 2
Fore
SplineSet
566 -250 m 1,0,-1
 434 -250 l 1,1,-1
 434 395 l 1,2,-1
 1000 395 l 1,3,-1
 1000 345 l 1,4,-1
 566 345 l 1,5,-1
 566 -250 l 1,0,-1
EndSplineSet
EndChar
StartChar: uni250F
Encoding: 9487 9487 500
Width: 1000
GlyphClass: 2
Flags: W
LayerCount: 2
Fore
SplineSet
434 -250 m 1,0,-1
 434 436 l 1,1,-1
 1000 436 l 1,2,-1
 1000 304 l 1,3,-1
 566 304 l 1,4,-1
 566 -250 l 1,5,-1
 434 -250 l 1,0,-1
EndSplineSet
EndChar
StartChar: SF030000
Encoding: 9488 9488 501
Width: 1000
GlyphClass: 2
Flags: W
LayerCount: 2
Fore
SplineSet
525 -250 m 1,0,-1
 475 -250 l 1,1,-1
 475 345 l 1,2,-1
 0 345 l 1,3,-1
 0 395 l 1,4,-1
 525 395 l 1,5,-1
 525 -250 l 1,0,-1
EndSplineSet
Validated: 1
EndChar
StartChar: uni2511
Encoding: 9489 9489 502
Width: 1000
GlyphClass: 2
Flags: W
LayerCount: 2
Fore
SplineSet
0 304 m 1,0,-1
 0 436 l 1,1,-1
 525 436 l 1,2,-1
 525 -250 l 1,3,-1
 475 -250 l 1,4,-1
 475 304 l 1,5,-1
 0 304 l 1,0,-1
EndSplineSet
Validated: 1
EndChar
StartChar: uni2512
Encoding: 9490 9490 503
Width: 1000
GlyphClass: 2
Flags: W
LayerCount: 2
Fore
SplineSet
434 -250 m 1,0,-1
 434 345 l 1,1,-1
 0 345 l 1,2,-1
 0 395 l 1,3,-1
 566 395 l 1,4,-1
 566 -250 l 1,5,-1
 434 -250 l 1,0,-1
EndSplineSet
Validated: 1
EndChar

StartChar: uni2513
Encoding: 9491 9491 504
Width: 1000
GlyphClass: 2
Flags: W
LayerCount: 2
Fore
SplineSet
566 -250 m 1,0,-1
 434 -250 l 1,1,-1
 434 304 l 1,2,-1
 0 304 l 1,3,-1
 0 436 l 1,4,-1
 566 436 l 1,5,-1
 566 -250 l 1,0,-1
EndSplineSet
EndChar
StartChar: SF020000
Encoding: 9492 9492 505
Width: 1000
GlyphClass: 2
Flags: W
LayerCount: 2
Fore
SplineSet
475 990 m 1,0,-1
 525 990 l 1,1,-1
 525 395 l 1,2,-1
 1000 395 l 1,3,-1
 1000 345 l 1,4,-1
 475 345 l 1,5,-1
 475 990 l 1,0,-1
EndSplineSet
Validated: 1
EndChar
StartChar: uni2516
Encoding: 9494 9494 507
Width: 1000
GlyphClass: 2
Flags: W
LayerCount: 2
Fore
SplineSet
566 990 m 1,0,-1
 566 395 l 1,1,-1
 1000 395 l 1,2,-1
 1000 345 l 1,3,-1
 434 345 l 1,4,-1
 434 990 l 1,5,-1
 566 990 l 1,0,-1
EndSplineSet
EndChar
StartChar: SF040000
Encoding: 9496 9496 509
Width: 1000
GlyphClass: 2
Flags: W
LayerCount: 2
Fore
SplineSet
525 990 m 1,0,-1
 525 345 l 1,1,-1
 0 345 l 1,2,-1
 0 395 l 1,3,-1
 475 395 l 1,4,-1
 475 990 l 1,5,-1
 525 990 l 1,0,-1
EndSplineSet
Validated: 1
EndChar
StartChar: uni2519
Encoding: 9497 9497 510
Width: 1000
GlyphClass: 2
Flags: W
LayerCount: 2
Fore
SplineSet
0 436 m 1,0,-1
 475 436 l 1,1,-1
 475 990 l 1,2,-1
 525 990 l 1,3,-1
 525 304 l 1,4,-1
 0 304 l 1,5,-1
 0 436 l 1,0,-1
EndSplineSet
EndChar
